<svg version="1.1" viewBox="0.0 0.0 497.0 308.0" fill="none" stroke="none" stroke-linecap="square" stroke-miterlimit="10" width="497" height="308" xmlns:xlink="http://www.w3.org/1999/xlink" xmlns="http://www.w3.org/2000/svg"><path fill="#ffffff" d="M0 0L497.0 0L497.0 308.0L0 308.0L0 0Z" fill-rule="nonzero"/><path stroke="#333333" stroke-width="1.0" stroke-linecap="butt" d="M64.5 250.5L481.5 250.5" fill-rule="nonzero"/><path fill="#eeeeee" d="M42.5 272.5L64.5 251.5L481.5 251.5L459.5 272.5Z" fill-rule="nonzero"/><path stroke="#cccccc" stroke-width="1.0" stroke-linecap="butt" d="M64.5 202.5L481.5 202.5" fill-rule="nonzero"/><path stroke="#cccccc" stroke-width="1.0" stroke-linecap="butt" d="M64.5 153.5L481.5 153.5" fill-rule="nonzero"/><path stroke="#cccccc" stroke-width="1.0" stroke-linecap="butt" d="M64.5 105.5L481.5 105.5" fill-rule="nonzero"/><path stroke="#cccccc" stroke-width="1.0" stroke-linecap="butt" d="M64.5 56.5L481.5 56.5" fill-rule="nonzero"/><clipPath id="id_0"><path d="M42.4 56.666668L481.6 56.666668L481.6 272.6L42.4 272.6L42.4 56.666668Z" clip-rule="nonzero"/></clipPath><path fill="#2b569f" clip-path="url(#id_0)" d="M152.0 251.0L152.0 251.0L135.0 268.0L135.0 268.0Z" fill-rule="nonzero"/><path fill="#689df6" clip-path="url(#id_0)" d="M135.0 268.0L69.0 268.0L86.0 251.0L152.0 251.0Z" fill-rule="nonzero"/><path stroke="#000000" stroke-width="2.0" stroke-linecap="butt" stroke-opacity="0.0" clip-path="url(#id_0)" d="M135.0 268.0L69.0 268.0L69.0 268.0L135.0 268.0Z" fill-rule="nonzero"/><path fill="#4285f4" clip-path="url(#id_0)" d="M135.0 268.0L69.0 268.0L69.0 268.0L135.0 268.0Z" fill-rule="nonzero"/><path fill="#2b569f" clip-path="url(#id_0)" d="M253.0 154.0L253.0 251.0L236.0 268.0L236.0 171.0Z" fill-rule="nonzero"/><path fill="#689df6" clip-path="url(#id_0)" d="M236.0 171.0L170.0 171.0L187.0 154.0L253.0 154.0Z" fill-rule="nonzero"/><path stroke="#000000" stroke-width="2.0" stroke-linecap="butt" stroke-opacity="0.0" clip-path="url(#id_0)" d="M236.0 268.0L170.0 268.0L170.0 171.0L236.0 171.0Z" fill-rule="nonzero"/><path fill="#4285f4" clip-path="url(#id_0)" d="M236.0 268.0L170.0 268.0L170.0 171.0L236.0 171.0Z" fill-rule="nonzero"/><path fill="#2b569f" clip-path="url(#id_0)" d="M354.0 202.0L354.0 251.0L337.0 268.0L337.0 219.0Z" fill-rule="nonzero"/><path fill="#689df6" clip-path="url(#id_0)" d="M337.0 219.0L271.0 219.0L288.0 202.0L354.0 202.0Z" fill-rule="nonzero"/><path stroke="#000000" stroke-width="2.0" stroke-linecap="butt" stroke-opacity="0.0" clip-path="url(#id_0)" d="M337.0 268.0L271.0 268.0L271.0 219.0L337.0 219.0Z" fill-rule="nonzero"/><path fill="#4285f4" clip-path="url(#id_0)" d="M337.0 268.0L271.0 268.0L271.0 219.0L337.0 219.0Z" fill-rule="nonzero"/><path fill="#2b569f" clip-path="url(#id_0)" d="M455.0 57.0L455.0 251.0L438.0 268.0L438.0 74.0Z" fill-rule="nonzero"/><path fill="#689df6" clip-path="url(#id_0)" d="M438.0 74.0L372.0 74.0L389.0 57.0L455.0 57.0Z" fill-rule="nonzero"/><path stroke="#000000" stroke-width="2.0" stroke-linecap="butt" stroke-opacity="0.0" clip-path="url(#id_0)" d="M438.0 268.0L372.0 268.0L372.0 74.0L438.0 74.0Z" fill-rule="nonzero"/><path fill="#4285f4" clip-path="url(#id_0)" d="M438.0 268.0L372.0 268.0L372.0 74.0L438.0 74.0Z" fill-rule="nonzero"/><path fill="#000000" d="M29.9 250.36563Q29.9 248.83438 30.2125 247.9125Q30.525 246.975 31.134375 246.475Q31.759375 245.975 32.696877 245.975Q33.384377 245.975 33.9 246.25626Q34.43125 246.5375 34.775 247.06876Q35.11875 247.58438 35.30625 248.33438Q35.49375 249.08438 35.49375 250.36563Q35.49375 251.88126 35.18125 252.80313Q34.884377 253.725 34.259377 254.24063Q33.65 254.74063 32.696877 254.74063Q31.4625 254.74063 30.74375 253.85Q29.9 252.7875 29.9 250.36563ZM30.978125 250.36563Q30.978125 252.475 31.478125 253.17813Q31.978125 253.88126 32.696877 253.88126Q33.43125 253.88126 33.915627 253.17813Q34.415627 252.475 34.415627 250.36563Q34.415627 248.24063 33.915627 247.55313Q33.43125 246.85 32.68125 246.85Q31.9625 246.85 31.525 247.45938Q30.978125 248.24063 30.978125 250.36563Z" fill-rule="nonzero"/><path fill="#000000" d="M33.86875 206.11667L32.821877 206.11667L32.821877 199.39792Q32.43125 199.7573 31.80625 200.1323Q31.196875 200.49167 30.7125 200.66354L30.7125 199.64792Q31.5875 199.22604 32.24375 198.64792Q32.915627 198.05417 33.196877 197.49167L33.86875 197.49167L33.86875 206.11667Z" fill-rule="nonzero"/><path fill="#000000" d="M35.446877 156.6177L35.446877 157.63333L29.759375 157.63333Q29.759375 157.25833 29.884375 156.89896Q30.103125 156.32083 30.571875 155.75833Q31.05625 155.19583 31.9625 154.46146Q33.36875 153.3052 33.853127 152.63333Q34.353127 151.96146 34.353127 151.3677Q34.353127 150.7427 33.9 150.32083Q33.446877 149.88333 32.728127 149.88333Q31.9625 149.88333 31.509375 150.33646Q31.05625 150.78958 31.040625 151.60208L29.9625 151.4927Q30.071875 150.27396 30.790625 149.64896Q31.525 149.00833 32.759377 149.00833Q33.99375 149.00833 34.7125 149.69583Q35.43125 150.38333 35.43125 151.39896Q35.43125 151.91458 35.2125 152.41458Q35.009377 152.89896 34.509377 153.46146Q34.025 154.00833 32.9 154.96146Q31.946875 155.75833 31.665625 156.0552Q31.4 156.33646 31.228125 156.6177L35.446877 156.6177Z" fill-rule="nonzero"/><path fill="#000000" d="M29.9 106.88438L30.9625 106.74375Q31.134375 107.63438 31.571875 108.04063Q32.009377 108.43125 32.634377 108.43125Q33.384377 108.43125 33.9 107.91563Q34.415627 107.4 34.415627 106.63438Q34.415627 105.91563 33.93125 105.44688Q33.4625 104.9625 32.728127 104.9625Q32.43125 104.9625 31.978125 105.0875L32.103127 104.15Q32.2125 104.16563 32.275 104.16563Q32.946877 104.16563 33.478127 103.82188Q34.025 103.4625 34.025 102.72813Q34.025 102.15 33.634377 101.775Q33.24375 101.38438 32.61875 101.38438Q32.009377 101.38438 31.5875 101.775Q31.18125 102.16563 31.071875 102.93125L30.009375 102.74375Q30.196875 101.69688 30.884375 101.11875Q31.571875 100.525 32.5875 100.525Q33.290627 100.525 33.884377 100.8375Q34.478127 101.13438 34.790627 101.65Q35.103127 102.16563 35.103127 102.75938Q35.103127 103.30625 34.80625 103.775Q34.509377 104.22813 33.93125 104.49375Q34.68125 104.66563 35.103127 105.22813Q35.525 105.775 35.525 106.61875Q35.525 107.74375 34.696877 108.525Q33.884377 109.30625 32.634377 109.30625Q31.509375 109.30625 30.759375 108.63438Q30.009375 107.94688 29.9 106.88438Z" fill-rule="nonzero"/><path fill="#000000" d="M33.275 60.666668L33.275 58.604168L29.55625 58.604168L29.55625 57.635418L33.478127 52.072918L34.3375 52.072918L34.3375 57.635418L35.49375 57.635418L35.49375 58.604168L34.3375 58.604168L34.3375 60.666668L33.275 60.666668ZM33.275 57.635418L33.275 53.776043L30.5875 57.635418L33.275 57.635418Z" fill-rule="nonzero"/><path fill="#000000" d="M61.926723 289.6L61.926723 281.00626L63.06735 281.00626L63.06735 288.58438L67.30173 288.58438L67.30173 289.6L61.926723 289.6ZM72.92673 289.6L72.92673 288.67813Q72.19235 289.74063 70.94235 289.74063Q70.39548 289.74063 69.9111 289.5375Q69.44235 289.31876 69.20798 289.00626Q68.9736 288.67813 68.87985 288.20938Q68.81735 287.9125 68.81735 287.225L68.81735 283.38126L69.87985 283.38126L69.87985 286.83438Q69.87985 287.64688 69.94235 287.94376Q70.0361 288.35 70.3486 288.6Q70.67673 288.83438 71.1611 288.83438Q71.62985 288.83438 72.0361 288.6Q72.45798 288.35 72.62985 287.92813Q72.81735 287.50626 72.81735 286.70938L72.81735 283.38126L73.86423 283.38126L73.86423 289.6L72.92673 289.6ZM75.8486 282.225L75.8486 281.00626L76.9111 281.00626L76.9111 282.225L75.8486 282.225ZM75.8486 289.6L75.8486 283.38126L76.9111 283.38126L76.9111 289.6L75.8486 289.6ZM78.64548 290.11563L79.67673 290.27188Q79.73923 290.74063 80.0361 290.95938Q80.42673 291.25626 81.0986 291.25626Q81.83298 291.25626 82.2236 290.95938Q82.62985 290.6625 82.77048 290.14688Q82.86423 289.81876 82.8486 288.7875Q82.1611 289.6 81.12985 289.6Q79.8486 289.6 79.14548 288.67813Q78.44235 287.74063 78.44235 286.45938Q78.44235 285.56876 78.75485 284.81876Q79.08298 284.05313 79.69235 283.64688Q80.30173 283.24063 81.12985 283.24063Q82.23923 283.24063 82.95798 284.13126L82.95798 283.38126L83.92673 283.38126L83.92673 288.75626Q83.92673 290.20938 83.62985 290.81876Q83.33298 291.42813 82.69235 291.77188Q82.05173 292.13126 81.11423 292.13126Q80.00485 292.13126 79.31735 291.63126Q78.62985 291.13126 78.64548 290.11563ZM79.52048 286.38126Q79.52048 287.6 80.00485 288.1625Q80.48923 288.725 81.2236 288.725Q81.95798 288.725 82.44235 288.1625Q82.94235 287.6 82.94235 286.4125Q82.94235 285.27188 82.42673 284.69376Q81.92673 284.11563 81.20798 284.11563Q80.50485 284.11563 80.00485 284.69376Q79.52048 285.25626 79.52048 286.38126ZM85.8486 282.225L85.8486 281.00626L86.9111 281.00626L86.9111 282.225L85.8486 282.225ZM85.8486 289.6L85.8486 283.38126L86.9111 283.38126L86.9111 289.6L85.8486 289.6ZM96.00485 286.225L96.00485 285.225L99.62985 285.20938L99.62985 288.39688Q98.80173 289.06876 97.9111 289.4125Q97.02048 289.74063 96.08298 289.74063Q94.81735 289.74063 93.77048 289.20938Q92.73923 288.6625 92.20798 287.64688Q91.69235 286.61563 91.69235 285.35Q91.69235 284.08438 92.20798 283.00626Q92.73923 281.9125 93.7236 281.39688Q94.70798 280.86563 95.98923 280.86563Q96.92673 280.86563 97.67673 281.1625Q98.42673 281.45938 98.8486 282.00626Q99.2861 282.5375 99.50485 283.4125L98.48923 283.69376Q98.2861 283.0375 97.98923 282.6625Q97.70798 282.2875 97.17673 282.06876Q96.64548 281.83438 96.00485 281.83438Q95.2236 281.83438 94.64548 282.06876Q94.08298 282.30313 93.7236 282.69376Q93.37985 283.08438 93.19235 283.55313Q92.86423 284.35 92.86423 285.27188Q92.86423 286.42813 93.25485 287.20938Q93.6611 287.975 94.4111 288.35Q95.1611 288.725 96.02048 288.725Q96.75485 288.725 97.45798 288.44376Q98.1611 288.14688 98.52048 287.83438L98.52048 286.225L96.00485 286.225ZM100.45798 286.49063Q100.45798 284.75626 101.4111 283.92813Q102.20798 283.24063 103.36423 283.24063Q104.64548 283.24063 105.45798 284.08438Q106.2861 284.9125 106.2861 286.39688Q106.2861 287.6 105.92673 288.2875Q105.56735 288.975 104.86423 289.36563Q104.17673 289.74063 103.36423 289.74063Q102.06735 289.74063 101.25485 288.9125Q100.45798 288.06876 100.45798 286.49063ZM101.5361 286.49063Q101.5361 287.67813 102.05173 288.27188Q102.58298 288.86563 103.36423 288.86563Q104.1611 288.86563 104.67673 288.27188Q105.19235 287.67813 105.19235 286.45938Q105.19235 285.30313 104.6611 284.70938Q104.14548 284.11563 103.36423 284.11563Q102.58298 284.11563 102.05173 284.70938Q101.5361 285.2875 101.5361 286.49063ZM107.8486 289.6L107.8486 283.38126L108.7861 283.38126L108.7861 284.25626Q109.4736 283.24063 110.77048 283.24063Q111.33298 283.24063 111.80173 283.44376Q112.2861 283.64688 112.52048 283.975Q112.75485 284.30313 112.8486 284.74063Q112.89548 285.0375 112.89548 285.77188L112.89548 289.6L111.8486 289.6L111.8486 285.81876Q111.8486 285.1625 111.7236 284.85Q111.5986 284.5375 111.2861 284.35Q110.9736 284.14688 110.55173 284.14688Q109.87985 284.14688 109.37985 284.58438Q108.89548 285.00626 108.89548 286.19376L108.89548 289.6L107.8486 289.6ZM114.2861 289.6L114.2861 288.74063L118.25485 284.19376Q117.56735 284.225 117.05173 284.225L114.52048 284.225L114.52048 283.38126L119.61423 283.38126L119.61423 284.06876L116.23923 288.02188L115.58298 288.74063Q116.30173 288.69376 116.9111 288.69376L119.80173 288.69376L119.80173 289.6L114.2861 289.6ZM124.9111 288.83438Q124.31735 289.33438 123.77048 289.5375Q123.23923 289.74063 122.61423 289.74063Q121.58298 289.74063 121.0361 289.24063Q120.48923 288.74063 120.48923 287.95938Q120.48923 287.50626 120.69235 287.13126Q120.89548 286.74063 121.23923 286.52188Q121.58298 286.2875 122.00485 286.17813Q122.30173 286.08438 122.94235 286.00626Q124.20798 285.86563 124.81735 285.64688Q124.81735 285.42813 124.81735 285.38126Q124.81735 284.725 124.52048 284.45938Q124.11423 284.11563 123.31735 284.11563Q122.58298 284.11563 122.2236 284.38126Q121.86423 284.63126 121.69235 285.2875L120.6611 285.14688Q120.80173 284.49063 121.12985 284.08438Q121.45798 283.67813 122.06735 283.45938Q122.67673 283.24063 123.4736 283.24063Q124.27048 283.24063 124.77048 283.42813Q125.27048 283.61563 125.50485 283.89688Q125.73923 284.17813 125.83298 284.61563Q125.87985 284.88126 125.87985 285.58438L125.87985 286.99063Q125.87985 288.45938 125.94235 288.85Q126.02048 289.24063 126.2236 289.6L125.11423 289.6Q124.95798 289.27188 124.9111 288.83438ZM124.81735 286.475Q124.23923 286.70938 123.0986 286.88126Q122.44235 286.975 122.17673 287.1Q121.9111 287.20938 121.75485 287.42813Q121.61423 287.64688 121.61423 287.92813Q121.61423 288.35 121.92673 288.63126Q122.25485 288.9125 122.86423 288.9125Q123.4736 288.9125 123.94235 288.64688Q124.42673 288.38126 124.64548 287.9125Q124.81735 287.55313 124.81735 286.86563L124.81735 286.475ZM127.81735 289.6L127.81735 281.00626L128.87985 281.00626L128.87985 289.6L127.81735 289.6ZM135.0986 287.6L136.19235 287.725Q135.94235 288.67813 135.23923 289.20938Q134.5361 289.74063 133.45798 289.74063Q132.0986 289.74063 131.2861 288.89688Q130.48923 288.05313 130.48923 286.5375Q130.48923 284.975 131.30173 284.11563Q132.11423 283.24063 133.39548 283.24063Q134.64548 283.24063 135.42673 284.08438Q136.2236 284.92813 136.2236 286.475Q136.2236 286.56876 136.2236 286.75626L131.58298 286.75626Q131.64548 287.7875 132.1611 288.33438Q132.67673 288.86563 133.45798 288.86563Q134.0361 288.86563 134.44235 288.56876Q134.86423 288.25626 135.0986 287.6ZM131.64548 285.89688L135.11423 285.89688Q135.05173 285.1 134.7236 284.70938Q134.20798 284.1 133.4111 284.1Q132.67673 284.1 132.17673 284.58438Q131.69235 285.06876 131.64548 285.89688ZM137.42673 287.74063L138.45798 287.58438Q138.55173 288.20938 138.94235 288.5375Q139.3486 288.86563 140.08298 288.86563Q140.80173 288.86563 141.14548 288.58438Q141.50485 288.2875 141.50485 287.88126Q141.50485 287.52188 141.19235 287.31876Q140.9736 287.17813 140.11423 286.95938Q138.95798 286.6625 138.50485 286.45938Q138.06735 286.24063 137.83298 285.86563Q137.5986 285.49063 137.5986 285.02188Q137.5986 284.61563 137.7861 284.25626Q137.9736 283.89688 138.30173 283.6625Q138.55173 283.49063 138.9736 283.36563Q139.39548 283.24063 139.89548 283.24063Q140.61423 283.24063 141.1611 283.45938Q141.7236 283.6625 141.98923 284.02188Q142.25485 284.38126 142.3486 284.975L141.31735 285.11563Q141.25485 284.64688 140.9111 284.38126Q140.58298 284.1 139.95798 284.1Q139.23923 284.1 138.92673 284.35Q138.61423 284.58438 138.61423 284.9125Q138.61423 285.11563 138.73923 285.27188Q138.87985 285.44376 139.14548 285.55313Q139.30173 285.61563 140.08298 285.81876Q141.20798 286.13126 141.64548 286.31876Q142.08298 286.50626 142.33298 286.86563Q142.58298 287.225 142.58298 287.77188Q142.58298 288.30313 142.27048 288.77188Q141.9736 289.225 141.39548 289.49063Q140.81735 289.74063 140.08298 289.74063Q138.86423 289.74063 138.2236 289.24063Q137.5986 288.725 137.42673 287.74063Z" fill-rule="nonzero"/><path fill="#000000" d="M161.50162 289.6L164.7985 281.00626L166.01724 281.00626L169.53287 289.6L168.25162 289.6L167.236 286.99063L163.65787 286.99063L162.70474 289.6L161.50162 289.6ZM163.986 286.06876L166.89224 286.06876L166.00162 283.69376Q165.57974 282.61563 165.39224 281.9125Q165.22037 282.74063 164.9235 283.55313L163.986 286.06876ZM170.31412 289.6L170.31412 281.00626L171.361 281.00626L171.361 284.08438Q172.09537 283.24063 173.22037 283.24063Q173.9235 283.24063 174.4235 283.52188Q174.93912 283.7875 175.15787 284.27188Q175.37662 284.74063 175.37662 285.6625L175.37662 289.6L174.32974 289.6L174.32974 285.6625Q174.32974 284.86563 173.986 284.50626Q173.64224 284.14688 173.01724 284.14688Q172.5485 284.14688 172.12662 284.39688Q171.72037 284.63126 171.53287 285.05313Q171.361 285.45938 171.361 286.19376L171.361 289.6L170.31412 289.6ZM177.31412 289.6L177.31412 283.38126L178.25162 283.38126L178.25162 284.25626Q178.5485 283.7875 179.03287 283.52188Q179.51724 283.24063 180.14224 283.24063Q180.82974 283.24063 181.26724 283.52188Q181.72037 283.80313 181.89224 284.31876Q182.64224 283.24063 183.81412 283.24063Q184.75162 283.24063 185.236 283.75626Q185.736 284.25626 185.736 285.33438L185.736 289.6L184.68912 289.6L184.68912 285.67813Q184.68912 285.05313 184.57974 284.77188Q184.486 284.49063 184.22037 284.31876Q183.95474 284.14688 183.57974 284.14688Q182.9235 284.14688 182.486 284.58438Q182.06412 285.02188 182.06412 285.99063L182.06412 289.6L181.00162 289.6L181.00162 285.55313Q181.00162 284.85 180.736 284.50626Q180.486 284.14688 179.90787 284.14688Q179.45474 284.14688 179.07974 284.38126Q178.70474 284.61563 178.53287 285.06876Q178.361 285.52188 178.361 286.36563L178.361 289.6L177.31412 289.6ZM191.56412 287.6L192.65787 287.725Q192.40787 288.67813 191.70474 289.20938Q191.00162 289.74063 189.9235 289.74063Q188.56412 289.74063 187.75162 288.89688Q186.95474 288.05313 186.95474 286.5375Q186.95474 284.975 187.76724 284.11563Q188.57974 283.24063 189.861 283.24063Q191.111 283.24063 191.89224 284.08438Q192.68912 284.92813 192.68912 286.475Q192.68912 286.56876 192.68912 286.75626L188.0485 286.75626Q188.111 287.7875 188.62662 288.33438Q189.14224 288.86563 189.9235 288.86563Q190.50162 288.86563 190.90787 288.56876Q191.32974 288.25626 191.56412 287.6ZM188.111 285.89688L191.57974 285.89688Q191.51724 285.1 191.18912 284.70938Q190.6735 284.1 189.87662 284.1Q189.14224 284.1 188.64224 284.58438Q188.15787 285.06876 188.111 285.89688ZM198.34537 289.6L198.34537 288.81876Q197.75162 289.74063 196.611 289.74063Q195.861 289.74063 195.236 289.33438Q194.611 288.9125 194.26724 288.17813Q193.9235 287.44376 193.9235 286.49063Q193.9235 285.56876 194.236 284.80313Q194.5485 284.0375 195.1735 283.64688Q195.7985 283.24063 196.56412 283.24063Q197.12662 283.24063 197.56412 283.475Q198.00162 283.70938 198.28287 284.08438L198.28287 281.00626L199.32974 281.00626L199.32974 289.6L198.34537 289.6ZM195.01724 286.49063Q195.01724 287.69376 195.51724 288.2875Q196.01724 288.86563 196.70474 288.86563Q197.39224 288.86563 197.87662 288.30313Q198.361 287.74063 198.361 286.58438Q198.361 285.30313 197.861 284.70938Q197.37662 284.11563 196.65787 284.11563Q195.95474 284.11563 195.486 284.69376Q195.01724 285.25626 195.01724 286.49063ZM204.64224 289.6L204.64224 281.00626L205.76724 281.00626L205.76724 289.6L204.64224 289.6ZM207.28287 289.6L207.28287 281.00626L208.34537 281.00626L208.34537 289.6L207.28287 289.6ZM210.28287 289.6L210.28287 281.00626L211.34537 281.00626L211.34537 289.6L210.28287 289.6ZM217.56412 287.6L218.65787 287.725Q218.40787 288.67813 217.70474 289.20938Q217.00162 289.74063 215.9235 289.74063Q214.56412 289.74063 213.75162 288.89688Q212.95474 288.05313 212.95474 286.5375Q212.95474 284.975 213.76724 284.11563Q214.57974 283.24063 215.861 283.24063Q217.111 283.24063 217.89224 284.08438Q218.68912 284.92813 218.68912 286.475Q218.68912 286.56876 218.68912 286.75626L214.0485 286.75626Q214.111 287.7875 214.62662 288.33438Q215.14224 288.86563 215.9235 288.86563Q216.50162 288.86563 216.90787 288.56876Q217.32974 288.25626 217.56412 287.6ZM214.111 285.89688L217.57974 285.89688Q217.51724 285.1 217.18912 284.70938Q216.6735 284.1 215.87662 284.1Q215.14224 284.1 214.64224 284.58438Q214.15787 285.06876 214.111 285.89688ZM219.89224 287.74063L220.9235 287.58438Q221.01724 288.20938 221.40787 288.5375Q221.81412 288.86563 222.5485 288.86563Q223.26724 288.86563 223.611 288.58438Q223.97037 288.2875 223.97037 287.88126Q223.97037 287.52188 223.65787 287.31876Q223.43912 287.17813 222.57974 286.95938Q221.4235 286.6625 220.97037 286.45938Q220.53287 286.24063 220.2985 285.86563Q220.06412 285.49063 220.06412 285.02188Q220.06412 284.61563 220.25162 284.25626Q220.43912 283.89688 220.76724 283.6625Q221.01724 283.49063 221.43912 283.36563Q221.861 283.24063 222.361 283.24063Q223.07974 283.24063 223.62662 283.45938Q224.18912 283.6625 224.45474 284.02188Q224.72037 284.38126 224.81412 284.975L223.78287 285.11563Q223.72037 284.64688 223.37662 284.38126Q223.0485 284.1 222.4235 284.1Q221.70474 284.1 221.39224 284.35Q221.07974 284.58438 221.07974 284.9125Q221.07974 285.11563 221.20474 285.27188Q221.34537 285.44376 221.611 285.55313Q221.76724 285.61563 222.5485 285.81876Q223.6735 286.13126 224.111 286.31876Q224.5485 286.50626 224.7985 286.86563Q225.0485 287.225 225.0485 287.77188Q225.0485 288.30313 224.736 288.77188Q224.43912 289.225 223.861 289.49063Q223.28287 289.74063 222.5485 289.74063Q221.32974 289.74063 220.68912 289.24063Q220.06412 288.725 219.89224 287.74063ZM230.37662 287.31876L231.40787 287.45938Q231.236 288.52188 230.53287 289.13126Q229.82974 289.74063 228.81412 289.74063Q227.53287 289.74063 226.75162 288.9125Q225.986 288.06876 225.986 286.50626Q225.986 285.50626 226.31412 284.75626Q226.65787 283.99063 227.32974 283.61563Q228.01724 283.24063 228.82974 283.24063Q229.82974 283.24063 230.47037 283.75626Q231.12662 284.25626 231.31412 285.20938L230.28287 285.36563Q230.14224 284.74063 229.76724 284.42813Q229.39224 284.1 228.861 284.1Q228.06412 284.1 227.56412 284.67813Q227.06412 285.24063 227.06412 286.475Q227.06412 287.74063 227.5485 288.30313Q228.03287 288.86563 228.7985 288.86563Q229.4235 288.86563 229.82974 288.49063Q230.25162 288.11563 230.37662 287.31876ZM236.37662 288.83438Q235.78287 289.33438 235.236 289.5375Q234.70474 289.74063 234.07974 289.74063Q233.0485 289.74063 232.50162 289.24063Q231.95474 288.74063 231.95474 287.95938Q231.95474 287.50626 232.15787 287.13126Q232.361 286.74063 232.70474 286.52188Q233.0485 286.2875 233.47037 286.17813Q233.76724 286.08438 234.40787 286.00626Q235.6735 285.86563 236.28287 285.64688Q236.28287 285.42813 236.28287 285.38126Q236.28287 284.725 235.986 284.45938Q235.57974 284.11563 234.78287 284.11563Q234.0485 284.11563 233.68912 284.38126Q233.32974 284.63126 233.15787 285.2875L232.12662 285.14688Q232.26724 284.49063 232.59537 284.08438Q232.9235 283.67813 233.53287 283.45938Q234.14224 283.24063 234.93912 283.24063Q235.736 283.24063 236.236 283.42813Q236.736 283.61563 236.97037 283.89688Q237.20474 284.17813 237.2985 284.61563Q237.34537 284.88126 237.34537 285.58438L237.34537 286.99063Q237.34537 288.45938 237.40787 288.85Q237.486 289.24063 237.68912 289.6L236.57974 289.6Q236.4235 289.27188 236.37662 288.83438ZM236.28287 286.475Q235.70474 286.70938 234.56412 286.88126Q233.90787 286.975 233.64224 287.1Q233.37662 287.20938 233.22037 287.42813Q233.07974 287.64688 233.07974 287.92813Q233.07974 288.35 233.39224 288.63126Q233.72037 288.9125 234.32974 288.9125Q234.93912 288.9125 235.40787 288.64688Q235.89224 288.38126 236.111 287.9125Q236.28287 287.55313 236.28287 286.86563L236.28287 286.475ZM238.89224 287.74063L239.9235 287.58438Q240.01724 288.20938 240.40787 288.5375Q240.81412 288.86563 241.5485 288.86563Q242.26724 288.86563 242.611 288.58438Q242.97037 288.2875 242.97037 287.88126Q242.97037 287.52188 242.65787 287.31876Q242.43912 287.17813 241.57974 286.95938Q240.4235 286.6625 239.97037 286.45938Q239.53287 286.24063 239.2985 285.86563Q239.06412 285.49063 239.06412 285.02188Q239.06412 284.61563 239.25162 284.25626Q239.43912 283.89688 239.76724 283.6625Q240.01724 283.49063 240.43912 283.36563Q240.861 283.24063 241.361 283.24063Q242.07974 283.24063 242.62662 283.45938Q243.18912 283.6625 243.45474 284.02188Q243.72037 284.38126 243.81412 284.975L242.78287 285.11563Q242.72037 284.64688 242.37662 284.38126Q242.0485 284.1 241.4235 284.1Q240.70474 284.1 240.39224 284.35Q240.07974 284.58438 240.07974 284.9125Q240.07974 285.11563 240.20474 285.27188Q240.34537 285.44376 240.611 285.55313Q240.76724 285.61563 241.5485 285.81876Q242.6735 286.13126 243.111 286.31876Q243.5485 286.50626 243.7985 286.86563Q244.0485 287.225 244.0485 287.77188Q244.0485 288.30313 243.736 288.77188Q243.43912 289.225 242.861 289.49063Q242.28287 289.74063 241.5485 289.74063Q240.32974 289.74063 239.68912 289.24063Q239.06412 288.725 238.89224 287.74063Z" fill-rule="nonzero"/><path fill="#000000" d="M262.85776 289.6L262.85776 281.00626L263.99838 281.00626L263.99838 288.58438L268.23276 288.58438L268.23276 289.6L262.85776 289.6ZM269.389 286.49063Q269.389 284.75626 270.34213 283.92813Q271.139 283.24063 272.29526 283.24063Q273.5765 283.24063 274.389 284.08438Q275.21713 284.9125 275.21713 286.39688Q275.21713 287.6 274.85776 288.2875Q274.49838 288.975 273.79526 289.36563Q273.10776 289.74063 272.29526 289.74063Q270.99838 289.74063 270.18588 288.9125Q269.389 288.06876 269.389 286.49063ZM270.46713 286.49063Q270.46713 287.67813 270.98276 288.27188Q271.514 288.86563 272.29526 288.86563Q273.09213 288.86563 273.60776 288.27188Q274.12338 287.67813 274.12338 286.45938Q274.12338 285.30313 273.59213 284.70938Q273.0765 284.11563 272.29526 284.11563Q271.514 284.11563 270.98276 284.70938Q270.46713 285.2875 270.46713 286.49063ZM276.764 289.6L276.764 283.38126L277.71713 283.38126L277.71713 284.31876Q278.0765 283.6625 278.37338 283.45938Q278.68588 283.24063 279.06088 283.24063Q279.59213 283.24063 280.139 283.56876L279.77963 284.55313Q279.389 284.31876 279.014 284.31876Q278.65463 284.31876 278.37338 284.5375Q278.10776 284.74063 277.99838 285.11563Q277.81088 285.67813 277.81088 286.33438L277.81088 289.6L276.764 289.6ZM285.02963 287.6L286.12338 287.725Q285.87338 288.67813 285.17026 289.20938Q284.46713 289.74063 283.389 289.74063Q282.02963 289.74063 281.21713 288.89688Q280.42026 288.05313 280.42026 286.5375Q280.42026 284.975 281.23276 284.11563Q282.04526 283.24063 283.3265 283.24063Q284.5765 283.24063 285.35776 284.08438Q286.15463 284.92813 286.15463 286.475Q286.15463 286.56876 286.15463 286.75626L281.514 286.75626Q281.5765 287.7875 282.09213 288.33438Q282.60776 288.86563 283.389 288.86563Q283.96713 288.86563 284.37338 288.56876Q284.79526 288.25626 285.02963 287.6ZM281.5765 285.89688L285.04526 285.89688Q284.98276 285.1 284.65463 284.70938Q284.139 284.1 283.34213 284.1Q282.60776 284.1 282.10776 284.58438Q281.62338 285.06876 281.5765 285.89688ZM287.77963 289.6L287.77963 283.38126L288.71713 283.38126L288.71713 284.25626Q289.40463 283.24063 290.7015 283.24063Q291.264 283.24063 291.73276 283.44376Q292.21713 283.64688 292.4515 283.975Q292.68588 284.30313 292.77963 284.74063Q292.8265 285.0375 292.8265 285.77188L292.8265 289.6L291.77963 289.6L291.77963 285.81876Q291.77963 285.1625 291.65463 284.85Q291.52963 284.5375 291.21713 284.35Q290.90463 284.14688 290.48276 284.14688Q289.81088 284.14688 289.31088 284.58438Q288.8265 285.00626 288.8265 286.19376L288.8265 289.6L287.77963 289.6ZM294.21713 289.6L294.21713 288.74063L298.18588 284.19376Q297.49838 284.225 296.98276 284.225L294.4515 284.225L294.4515 283.38126L299.54526 283.38126L299.54526 284.06876L296.17026 288.02188L295.514 288.74063Q296.23276 288.69376 296.84213 288.69376L299.73276 288.69376L299.73276 289.6L294.21713 289.6ZM300.389 286.49063Q300.389 284.75626 301.34213 283.92813Q302.139 283.24063 303.29526 283.24063Q304.5765 283.24063 305.389 284.08438Q306.21713 284.9125 306.21713 286.39688Q306.21713 287.6 305.85776 288.2875Q305.49838 288.975 304.79526 289.36563Q304.10776 289.74063 303.29526 289.74063Q301.99838 289.74063 301.18588 288.9125Q300.389 288.06876 300.389 286.49063ZM301.46713 286.49063Q301.46713 287.67813 301.98276 288.27188Q302.514 288.86563 303.29526 288.86563Q304.09213 288.86563 304.60776 288.27188Q305.12338 287.67813 305.12338 286.45938Q305.12338 285.30313 304.59213 284.70938Q304.0765 284.11563 303.29526 284.11563Q302.514 284.11563 301.98276 284.70938Q301.46713 285.2875 301.46713 286.49063ZM310.52963 286.83438L311.59213 286.74063Q311.67026 287.39688 311.9515 287.80313Q312.23276 288.20938 312.81088 288.475Q313.40463 288.725 314.139 288.725Q314.77963 288.725 315.27963 288.5375Q315.77963 288.33438 316.014 288.00626Q316.264 287.6625 316.264 287.27188Q316.264 286.86563 316.02963 286.56876Q315.79526 286.25626 315.264 286.05313Q314.90463 285.9125 313.71713 285.63126Q312.54526 285.35 312.0765 285.1Q311.4515 284.77188 311.15463 284.30313Q310.85776 283.81876 310.85776 283.225Q310.85776 282.58438 311.21713 282.02188Q311.59213 281.44376 312.29526 281.1625Q313.014 280.86563 313.87338 280.86563Q314.8265 280.86563 315.56088 281.17813Q316.29526 281.475 316.68588 282.08438Q317.0765 282.67813 317.10776 283.42813L316.014 283.50626Q315.92026 282.69376 315.40463 282.2875Q314.90463 281.86563 313.92026 281.86563Q312.889 281.86563 312.42026 282.24063Q311.9515 282.61563 311.9515 283.14688Q311.9515 283.61563 312.27963 283.9125Q312.60776 284.20938 313.98276 284.52188Q315.37338 284.83438 315.889 285.06876Q316.639 285.42813 316.99838 285.95938Q317.35776 286.475 317.35776 287.17813Q317.35776 287.86563 316.96713 288.475Q316.5765 289.06876 315.84213 289.4125Q315.10776 289.74063 314.18588 289.74063Q313.014 289.74063 312.21713 289.4125Q311.43588 289.06876 310.98276 288.38126Q310.54526 287.69376 310.52963 286.83438ZM322.85776 289.6L322.85776 288.67813Q322.12338 289.74063 320.87338 289.74063Q320.3265 289.74063 319.84213 289.5375Q319.37338 289.31876 319.139 289.00626Q318.90463 288.67813 318.81088 288.20938Q318.74838 287.9125 318.74838 287.225L318.74838 283.38126L319.81088 283.38126L319.81088 286.83438Q319.81088 287.64688 319.87338 287.94376Q319.96713 288.35 320.27963 288.6Q320.60776 288.83438 321.09213 288.83438Q321.56088 288.83438 321.96713 288.6Q322.389 288.35 322.56088 287.92813Q322.74838 287.50626 322.74838 286.70938L322.74838 283.38126L323.79526 283.38126L323.79526 289.6L322.85776 289.6ZM330.02963 287.6L331.12338 287.725Q330.87338 288.67813 330.17026 289.20938Q329.46713 289.74063 328.389 289.74063Q327.02963 289.74063 326.21713 288.89688Q325.42026 288.05313 325.42026 286.5375Q325.42026 284.975 326.23276 284.11563Q327.04526 283.24063 328.3265 283.24063Q329.5765 283.24063 330.35776 284.08438Q331.15463 284.92813 331.15463 286.475Q331.15463 286.56876 331.15463 286.75626L326.514 286.75626Q326.5765 287.7875 327.09213 288.33438Q327.60776 288.86563 328.389 288.86563Q328.96713 288.86563 329.37338 288.56876Q329.79526 288.25626 330.02963 287.6ZM326.5765 285.89688L330.04526 285.89688Q329.98276 285.1 329.65463 284.70938Q329.139 284.1 328.34213 284.1Q327.60776 284.1 327.10776 284.58438Q326.62338 285.06876 326.5765 285.89688ZM332.764 289.6L332.764 283.38126L333.71713 283.38126L333.71713 284.31876Q334.0765 283.6625 334.37338 283.45938Q334.68588 283.24063 335.06088 283.24063Q335.59213 283.24063 336.139 283.56876L335.77963 284.55313Q335.389 284.31876 335.014 284.31876Q334.65463 284.31876 334.37338 284.5375Q334.10776 284.74063 333.99838 285.11563Q333.81088 285.67813 333.81088 286.33438L333.81088 289.6L332.764 289.6ZM339.0765 288.6625L339.23276 289.58438Q338.77963 289.67813 338.43588 289.67813Q337.85776 289.67813 337.54526 289.50626Q337.23276 289.31876 337.09213 289.02188Q336.96713 288.725 336.96713 287.77188L336.96713 284.19376L336.2015 284.19376L336.2015 283.38126L336.96713 283.38126L336.96713 281.83438L338.014 281.20938L338.014 283.38126L339.0765 283.38126L339.0765 284.19376L338.014 284.19376L338.014 287.83438Q338.014 288.2875 338.06088 288.4125Q338.12338 288.5375 338.24838 288.61563Q338.37338 288.69376 338.60776 288.69376Q338.79526 288.69376 339.0765 288.6625ZM344.02963 287.6L345.12338 287.725Q344.87338 288.67813 344.17026 289.20938Q343.46713 289.74063 342.389 289.74063Q341.02963 289.74063 340.21713 288.89688Q339.42026 288.05313 339.42026 286.5375Q339.42026 284.975 340.23276 284.11563Q341.04526 283.24063 342.3265 283.24063Q343.5765 283.24063 344.35776 284.08438Q345.15463 284.92813 345.15463 286.475Q345.15463 286.56876 345.15463 286.75626L340.514 286.75626Q340.5765 287.7875 341.09213 288.33438Q341.60776 288.86563 342.389 288.86563Q342.96713 288.86563 343.37338 288.56876Q343.79526 288.25626 344.02963 287.6ZM340.5765 285.89688L344.04526 285.89688Q343.98276 285.1 343.65463 284.70938Q343.139 284.1 342.34213 284.1Q341.60776 284.1 341.10776 284.58438Q340.62338 285.06876 340.5765 285.89688Z" fill-rule="nonzero"/><path fill="#000000" d="M367.88577 289.6L367.88577 281.00626L371.69827 281.00626Q372.85452 281.00626 373.44827 281.24063Q374.04202 281.475 374.4014 282.06876Q374.76077 282.64688 374.76077 283.35Q374.76077 284.27188 374.16702 284.89688Q373.57327 285.52188 372.3389 285.69376Q372.79202 285.9125 373.0264 286.11563Q373.5264 286.56876 373.9639 287.25626L375.4639 289.6L374.0264 289.6L372.9014 287.81876Q372.4014 287.0375 372.07327 286.63126Q371.76077 286.225 371.49515 286.06876Q371.24515 285.89688 370.97952 285.81876Q370.79202 285.7875 370.35452 285.7875L369.0264 285.7875L369.0264 289.6L367.88577 289.6ZM369.0264 284.80313L371.47952 284.80313Q372.24515 284.80313 372.68265 284.64688Q373.13577 284.475 373.35452 284.13126Q373.5889 283.77188 373.5889 283.35Q373.5889 282.74063 373.13577 282.35Q372.69827 281.95938 371.74515 281.95938L369.0264 281.95938L369.0264 284.80313ZM380.80765 288.83438Q380.2139 289.33438 379.66702 289.5375Q379.13577 289.74063 378.51077 289.74063Q377.47952 289.74063 376.93265 289.24063Q376.38577 288.74063 376.38577 287.95938Q376.38577 287.50626 376.5889 287.13126Q376.79202 286.74063 377.13577 286.52188Q377.47952 286.2875 377.9014 286.17813Q378.19827 286.08438 378.8389 286.00626Q380.10452 285.86563 380.7139 285.64688Q380.7139 285.42813 380.7139 285.38126Q380.7139 284.725 380.41702 284.45938Q380.01077 284.11563 379.2139 284.11563Q378.47952 284.11563 378.12015 284.38126Q377.76077 284.63126 377.5889 285.2875L376.55765 285.14688Q376.69827 284.49063 377.0264 284.08438Q377.35452 283.67813 377.9639 283.45938Q378.57327 283.24063 379.37015 283.24063Q380.16702 283.24063 380.66702 283.42813Q381.16702 283.61563 381.4014 283.89688Q381.63577 284.17813 381.72952 284.61563Q381.7764 284.88126 381.7764 285.58438L381.7764 286.99063Q381.7764 288.45938 381.8389 288.85Q381.91702 289.24063 382.12015 289.6L381.01077 289.6Q380.85452 289.27188 380.80765 288.83438ZM380.7139 286.475Q380.13577 286.70938 378.99515 286.88126Q378.3389 286.975 378.07327 287.1Q377.80765 287.20938 377.6514 287.42813Q377.51077 287.64688 377.51077 287.92813Q377.51077 288.35 377.82327 288.63126Q378.1514 288.9125 378.76077 288.9125Q379.37015 288.9125 379.8389 288.64688Q380.32327 288.38126 380.54202 287.9125Q380.7139 287.55313 380.7139 286.86563L380.7139 286.475ZM383.74515 289.6L383.74515 283.38126L384.68265 283.38126L384.68265 284.25626Q384.97952 283.7875 385.4639 283.52188Q385.94827 283.24063 386.57327 283.24063Q387.26077 283.24063 387.69827 283.52188Q388.1514 283.80313 388.32327 284.31876Q389.07327 283.24063 390.24515 283.24063Q391.18265 283.24063 391.66702 283.75626Q392.16702 284.25626 392.16702 285.33438L392.16702 289.6L391.12015 289.6L391.12015 285.67813Q391.12015 285.05313 391.01077 284.77188Q390.91702 284.49063 390.6514 284.31876Q390.38577 284.14688 390.01077 284.14688Q389.35452 284.14688 388.91702 284.58438Q388.49515 285.02188 388.49515 285.99063L388.49515 289.6L387.43265 289.6L387.43265 285.55313Q387.43265 284.85 387.16702 284.50626Q386.91702 284.14688 386.3389 284.14688Q385.88577 284.14688 385.51077 284.38126Q385.13577 284.61563 384.9639 285.06876Q384.79202 285.52188 384.79202 286.36563L384.79202 289.6L383.74515 289.6ZM396.87015 289.6L396.87015 281.00626L399.8389 281.00626Q400.8389 281.00626 401.37015 281.13126Q402.10452 281.30313 402.62015 281.74063Q403.30765 282.31876 403.63577 283.225Q403.97952 284.11563 403.97952 285.25626Q403.97952 286.24063 403.74515 286.99063Q403.5264 287.74063 403.16702 288.24063Q402.80765 288.74063 402.37015 289.02188Q401.94827 289.30313 401.35452 289.45938Q400.76077 289.6 399.97952 289.6L396.87015 289.6ZM398.01077 288.58438L399.8389 288.58438Q400.69827 288.58438 401.18265 288.42813Q401.66702 288.27188 401.94827 287.975Q402.35452 287.58438 402.57327 286.89688Q402.80765 286.20938 402.80765 285.24063Q402.80765 283.89688 402.35452 283.17813Q401.91702 282.44376 401.29202 282.19376Q400.82327 282.02188 399.82327 282.02188L398.01077 282.02188L398.01077 288.58438ZM409.99515 287.6L411.0889 287.725Q410.8389 288.67813 410.13577 289.20938Q409.43265 289.74063 408.35452 289.74063Q406.99515 289.74063 406.18265 288.89688Q405.38577 288.05313 405.38577 286.5375Q405.38577 284.975 406.19827 284.11563Q407.01077 283.24063 408.29202 283.24063Q409.54202 283.24063 410.32327 284.08438Q411.12015 284.92813 411.12015 286.475Q411.12015 286.56876 411.12015 286.75626L406.47952 286.75626Q406.54202 287.7875 407.05765 288.33438Q407.57327 288.86563 408.35452 288.86563Q408.93265 288.86563 409.3389 288.56876Q409.76077 288.25626 409.99515 287.6ZM406.54202 285.89688L410.01077 285.89688Q409.94827 285.1 409.62015 284.70938Q409.10452 284.1 408.30765 284.1Q407.57327 284.1 407.07327 284.58438Q406.5889 285.06876 406.54202 285.89688ZM415.82327 289.6L415.82327 281.00626L416.9639 281.00626L416.9639 288.58438L421.19827 288.58438L421.19827 289.6L415.82327 289.6ZM426.99515 287.6L428.0889 287.725Q427.8389 288.67813 427.13577 289.20938Q426.43265 289.74063 425.35452 289.74063Q423.99515 289.74063 423.18265 288.89688Q422.38577 288.05313 422.38577 286.5375Q422.38577 284.975 423.19827 284.11563Q424.01077 283.24063 425.29202 283.24063Q426.54202 283.24063 427.32327 284.08438Q428.12015 284.92813 428.12015 286.475Q428.12015 286.56876 428.12015 286.75626L423.47952 286.75626Q423.54202 287.7875 424.05765 288.33438Q424.57327 288.86563 425.35452 288.86563Q425.93265 288.86563 426.3389 288.56876Q426.76077 288.25626 426.99515 287.6ZM423.54202 285.89688L427.01077 285.89688Q426.94827 285.1 426.62015 284.70938Q426.10452 284.1 425.30765 284.1Q424.57327 284.1 424.07327 284.58438Q423.5889 285.06876 423.54202 285.89688ZM429.35452 286.49063Q429.35452 284.75626 430.30765 283.92813Q431.10452 283.24063 432.26077 283.24063Q433.54202 283.24063 434.35452 284.08438Q435.18265 284.9125 435.18265 286.39688Q435.18265 287.6 434.82327 288.2875Q434.4639 288.975 433.76077 289.36563Q433.07327 289.74063 432.26077 289.74063Q430.9639 289.74063 430.1514 288.9125Q429.35452 288.06876 429.35452 286.49063ZM430.43265 286.49063Q430.43265 287.67813 430.94827 288.27188Q431.47952 288.86563 432.26077 288.86563Q433.05765 288.86563 433.57327 288.27188Q434.0889 287.67813 434.0889 286.45938Q434.0889 285.30313 433.55765 284.70938Q433.04202 284.11563 432.26077 284.11563Q431.47952 284.11563 430.94827 284.70938Q430.43265 285.2875 430.43265 286.49063ZM436.74515 289.6L436.74515 283.38126L437.68265 283.38126L437.68265 284.25626Q438.37015 283.24063 439.66702 283.24063Q440.22952 283.24063 440.69827 283.44376Q441.18265 283.64688 441.41702 283.975Q441.6514 284.30313 441.74515 284.74063Q441.79202 285.0375 441.79202 285.77188L441.79202 289.6L440.74515 289.6L440.74515 285.81876Q440.74515 285.1625 440.62015 284.85Q440.49515 284.5375 440.18265 284.35Q439.87015 284.14688 439.44827 284.14688Q438.7764 284.14688 438.2764 284.58438Q437.79202 285.00626 437.79202 286.19376L437.79202 289.6L436.74515 289.6Z" fill-rule="nonzero"/><path fill="#757575" d="M17.009375 34.4L17.009375 20.087502L18.9 20.087502L18.9 25.962502L26.3375 25.962502L26.3375 20.087502L28.228125 20.087502L28.228125 34.4L26.3375 34.4L26.3375 27.650002L18.9 27.650002L18.9 34.4L17.009375 34.4ZM30.071875 29.212502Q30.071875 26.337502 31.665625 24.946877Q33.009377 23.790627 34.93125 23.790627Q37.071877 23.790627 38.415627 25.196877Q39.775 26.603127 39.775 29.071877Q39.775 31.071877 39.18125 32.228127Q38.5875 33.36875 37.43125 34.009377Q36.290627 34.634377 34.93125 34.634377Q32.74375 34.634377 31.4 33.24375Q30.071875 31.837502 30.071875 29.212502ZM31.86875 29.212502Q31.86875 31.212502 32.728127 32.196877Q33.603127 33.18125 34.93125 33.18125Q36.24375 33.18125 37.103127 32.196877Q37.978127 31.196877 37.978127 29.150002Q37.978127 27.228127 37.103127 26.243752Q36.228127 25.243752 34.93125 25.243752Q33.603127 25.243752 32.728127 26.243752Q31.86875 27.228127 31.86875 29.212502ZM43.634377 34.4L40.4625 24.025002L42.275 24.025002L43.93125 30.009377L44.540627 32.24375Q44.5875 32.071877 45.071877 30.103127L46.728127 24.025002L48.540627 24.025002L50.0875 30.040627L50.603127 32.025L51.196877 30.025002L52.978127 24.025002L54.68125 24.025002L51.446877 34.4L49.61875 34.4L47.9625 28.181252L47.571877 26.415627L45.4625 34.4L43.634377 34.4ZM61.7125 34.4L61.7125 24.025002L63.290627 24.025002L63.290627 25.478127Q63.775 24.728127 64.5875 24.259377Q65.4 23.790627 66.43125 23.790627Q67.5875 23.790627 68.32188 24.275002Q69.05625 24.743752 69.36875 25.603127Q70.60313 23.790627 72.57188 23.790627Q74.11875 23.790627 74.94688 24.650002Q75.775 25.509377 75.775 27.275002L75.775 34.4L74.025 34.4L74.025 27.868752Q74.025 26.806252 73.85313 26.353127Q73.68125 25.884377 73.22813 25.603127Q72.79063 25.321877 72.18125 25.321877Q71.0875 25.321877 70.35313 26.056252Q69.63438 26.775002 69.63438 28.368752L69.63438 34.4L67.88438 34.4L67.88438 27.665627Q67.88438 26.493752 67.44688 25.915627Q67.025 25.321877 66.04063 25.321877Q65.30625 25.321877 64.66563 25.712502Q64.04063 26.103127 63.759377 26.853127Q63.478127 27.603127 63.478127 29.025002L63.478127 34.4L61.7125 34.4ZM85.49375 33.11875Q84.50938 33.946877 83.60313 34.290627Q82.69688 34.634377 81.66563 34.634377Q79.9625 34.634377 79.04063 33.80625Q78.11875 32.9625 78.11875 31.665627Q78.11875 30.900002 78.4625 30.275002Q78.82188 29.650002 79.38438 29.275002Q79.94688 28.884377 80.65 28.681252Q81.16563 28.556252 82.2125 28.415627Q84.3375 28.165627 85.3375 27.821877Q85.35313 27.462502 85.35313 27.353127Q85.35313 26.290627 84.85313 25.837502Q84.18125 25.243752 82.85313 25.243752Q81.60313 25.243752 81.00938 25.681252Q80.43125 26.118752 80.15 27.228127L78.43125 26.993752Q78.66563 25.884377 79.19688 25.212502Q79.72813 24.525002 80.74375 24.165627Q81.75938 23.790627 83.10313 23.790627Q84.43125 23.790627 85.25938 24.103127Q86.0875 24.415627 86.47813 24.900002Q86.86875 25.368752 87.025 26.087502Q87.11875 26.540627 87.11875 27.712502L87.11875 30.056252Q87.11875 32.509377 87.22813 33.165627Q87.3375 33.80625 87.68125 34.4L85.8375 34.4Q85.57188 33.853127 85.49375 33.11875ZM85.3375 29.196877Q84.38438 29.587502 82.4625 29.853127Q81.38438 30.009377 80.93125 30.212502Q80.49375 30.400002 80.24375 30.775002Q79.99375 31.150002 79.99375 31.618752Q79.99375 32.321877 80.525 32.790627Q81.05625 33.259377 82.0875 33.259377Q83.10313 33.259377 83.88438 32.821877Q84.68125 32.36875 85.05625 31.603127Q85.3375 30.993752 85.3375 29.837502L85.3375 29.196877ZM89.7125 34.4L89.7125 24.025002L91.30625 24.025002L91.30625 25.509377Q92.44688 23.790627 94.60313 23.790627Q95.54063 23.790627 96.32188 24.134377Q97.11875 24.462502 97.50938 25.009377Q97.9 25.556252 98.05625 26.306252Q98.15 26.806252 98.15 28.025002L98.15 34.4L96.38438 34.4L96.38438 28.087502Q96.38438 27.009377 96.18125 26.478127Q95.97813 25.946877 95.44688 25.634377Q94.93125 25.321877 94.22813 25.321877Q93.10313 25.321877 92.29063 26.040627Q91.47813 26.743752 91.47813 28.728127L91.47813 34.4L89.7125 34.4ZM100.63438 38.4L100.44688 36.74375Q101.025 36.9 101.44688 36.9Q102.04063 36.9 102.38438 36.696877Q102.74375 36.509377 102.9625 36.165627Q103.13438 35.9 103.50938 34.853127Q103.55625 34.696877 103.66563 34.415627L99.72813 24.025002L101.61875 24.025002L103.775 30.040627Q104.19688 31.181252 104.525 32.43125Q104.8375 31.228127 105.24375 30.071877L107.4625 24.025002L109.22813 24.025002L105.275 34.571877Q104.65 36.290627 104.29063 36.93125Q103.82188 37.80625 103.2125 38.196877Q102.61875 38.603127 101.775 38.603127Q101.25938 38.603127 100.63438 38.4ZM116.4 35.259377L118.10313 35.509377Q118.2125 36.30625 118.69688 36.665627Q119.35313 37.15 120.49375 37.15Q121.7125 37.15 122.36875 36.665627Q123.04063 36.18125 123.275 35.30625Q123.41563 34.759377 123.4 33.040627Q122.24375 34.4 120.525 34.4Q118.38438 34.4 117.2125 32.853127Q116.04063 31.306252 116.04063 29.150002Q116.04063 27.665627 116.57188 26.415627Q117.11875 25.165627 118.13438 24.478127Q119.16563 23.790627 120.54063 23.790627Q122.36875 23.790627 123.57188 25.275002L123.57188 24.025002L125.18125 24.025002L125.18125 32.99375Q125.18125 35.415627 124.68125 36.415627Q124.19688 37.43125 123.11875 38.009377Q122.05625 38.603127 120.49375 38.603127Q118.65 38.603127 117.49375 37.775Q116.35313 36.946877 116.4 35.259377ZM117.85313 29.025002Q117.85313 31.071877 118.66563 32.009377Q119.47813 32.946877 120.69688 32.946877Q121.9 32.946877 122.7125 32.009377Q123.54063 31.071877 123.54063 29.087502Q123.54063 27.181252 122.69688 26.212502Q121.85313 25.243752 120.66563 25.243752Q119.49375 25.243752 118.66563 26.196877Q117.85313 27.150002 117.85313 29.025002ZM134.49374 33.11875Q133.50937 33.946877 132.60312 34.290627Q131.69687 34.634377 130.66562 34.634377Q128.9625 34.634377 128.04062 33.80625Q127.11875 32.9625 127.11875 31.665627Q127.11875 30.900002 127.4625 30.275002Q127.82188 29.650002 128.38437 29.275002Q128.94687 28.884377 129.65 28.681252Q130.16562 28.556252 131.2125 28.415627Q133.3375 28.165627 134.3375 27.821877Q134.35312 27.462502 134.35312 27.353127Q134.35312 26.290627 133.85312 25.837502Q133.18124 25.243752 131.85312 25.243752Q130.60312 25.243752 130.00937 25.681252Q129.43124 26.118752 129.15 27.228127L127.43125 26.993752Q127.66563 25.884377 128.19687 25.212502Q128.72812 24.525002 129.74374 24.165627Q130.75937 23.790627 132.10312 23.790627Q133.43124 23.790627 134.25937 24.103127Q135.0875 24.415627 135.47812 24.900002Q135.86874 25.368752 136.025 26.087502Q136.11874 26.540627 136.11874 27.712502L136.11874 30.056252Q136.11874 32.509377 136.22812 33.165627Q136.3375 33.80625 136.68124 34.4L134.8375 34.4Q134.57187 33.853127 134.49374 33.11875ZM134.3375 29.196877Q133.38437 29.587502 131.4625 29.853127Q130.38437 30.009377 129.93124 30.212502Q129.49374 30.400002 129.24374 30.775002Q128.99374 31.150002 128.99374 31.618752Q128.99374 32.321877 129.525 32.790627Q130.05624 33.259377 131.0875 33.259377Q132.10312 33.259377 132.88437 32.821877Q133.68124 32.36875 134.05624 31.603127Q134.3375 30.993752 134.3375 29.837502L134.3375 29.196877ZM138.7125 34.4L138.7125 24.025002L140.29062 24.025002L140.29062 25.478127Q140.775 24.728127 141.5875 24.259377Q142.4 23.790627 143.43124 23.790627Q144.5875 23.790627 145.32187 24.275002Q146.05624 24.743752 146.36874 25.603127Q147.60312 23.790627 149.57187 23.790627Q151.11874 23.790627 151.94687 24.650002Q152.775 25.509377 152.775 27.275002L152.775 34.4L151.025 34.4L151.025 27.868752Q151.025 26.806252 150.85312 26.353127Q150.68124 25.884377 150.22812 25.603127Q149.79062 25.321877 149.18124 25.321877Q148.0875 25.321877 147.35312 26.056252Q146.63437 26.775002 146.63437 28.368752L146.63437 34.4L144.88437 34.4L144.88437 27.665627Q144.88437 26.493752 144.44687 25.915627Q144.025 25.321877 143.04062 25.321877Q142.30624 25.321877 141.66562 25.712502Q141.04062 26.103127 140.75937 26.853127Q140.47812 27.603127 140.47812 29.025002L140.47812 34.4L138.7125 34.4ZM162.82187 31.056252L164.63437 31.290627Q164.2125 32.86875 163.04062 33.759377Q161.88437 34.634377 160.07187 34.634377Q157.80624 34.634377 156.4625 33.24375Q155.13437 31.837502 155.13437 29.306252Q155.13437 26.681252 156.47812 25.243752Q157.82187 23.790627 159.97812 23.790627Q162.05624 23.790627 163.36874 25.212502Q164.69687 26.618752 164.69687 29.196877Q164.69687 29.353127 164.68124 29.665627L156.94687 29.665627Q157.04062 31.368752 157.91562 32.275Q158.79062 33.18125 160.0875 33.18125Q161.05624 33.18125 161.72812 32.68125Q162.41562 32.165627 162.82187 31.056252ZM157.04062 28.212502L162.8375 28.212502Q162.72812 26.915627 162.18124 26.259377Q161.3375 25.243752 159.99374 25.243752Q158.79062 25.243752 157.9625 26.056252Q157.13437 26.853127 157.04062 28.212502ZM172.68124 34.4L172.68124 20.087502L174.43124 20.087502L174.43124 34.4L172.68124 34.4ZM176.72812 22.103127L176.72812 20.087502L178.49374 20.087502L178.49374 22.103127L176.72812 22.103127ZM176.72812 34.4L176.72812 24.025002L178.49374 24.025002L178.49374 34.4L176.72812 34.4ZM180.72812 34.4L180.72812 20.087502L182.49374 20.087502L182.49374 28.243752L186.65 24.025002L188.91562 24.025002L184.9625 27.868752L189.32187 34.4L187.15 34.4L183.72812 29.103127L182.49374 30.290627L182.49374 34.4L180.72812 34.4ZM197.82187 31.056252L199.63437 31.290627Q199.2125 32.86875 198.04062 33.759377Q196.88437 34.634377 195.07187 34.634377Q192.80624 34.634377 191.4625 33.24375Q190.13437 31.837502 190.13437 29.306252Q190.13437 26.681252 191.47812 25.243752Q192.82187 23.790627 194.97812 23.790627Q197.05624 23.790627 198.36874 25.212502Q199.69687 26.618752 199.69687 29.196877Q199.69687 29.353127 199.68124 29.665627L191.94687 29.665627Q192.04062 31.368752 192.91562 32.275Q193.79062 33.18125 195.0875 33.18125Q196.05624 33.18125 196.72812 32.68125Q197.41562 32.165627 197.82187 31.056252ZM192.04062 28.212502L197.8375 28.212502Q197.72812 26.915627 197.18124 26.259377Q196.3375 25.243752 194.99374 25.243752Q193.79062 25.243752 192.9625 26.056252Q192.13437 26.853127 192.04062 28.212502ZM214.49374 33.11875Q213.50937 33.946877 212.60312 34.290627Q211.69687 34.634377 210.66562 34.634377Q208.9625 34.634377 208.04062 33.80625Q207.11874 32.9625 207.11874 31.665627Q207.11874 30.900002 207.4625 30.275002Q207.82187 29.650002 208.38437 29.275002Q208.94687 28.884377 209.65 28.681252Q210.16562 28.556252 211.2125 28.415627Q213.3375 28.165627 214.3375 27.821877Q214.35312 27.462502 214.35312 27.353127Q214.35312 26.290627 213.85312 25.837502Q213.18124 25.243752 211.85312 25.243752Q210.60312 25.243752 210.00937 25.681252Q209.43124 26.118752 209.15 27.228127L207.43124 26.993752Q207.66562 25.884377 208.19687 25.212502Q208.72812 24.525002 209.74374 24.165627Q210.75937 23.790627 212.10312 23.790627Q213.43124 23.790627 214.25937 24.103127Q215.0875 24.415627 215.47812 24.900002Q215.86874 25.368752 216.025 26.087502Q216.11874 26.540627 216.11874 27.712502L216.11874 30.056252Q216.11874 32.509377 216.22812 33.165627Q216.3375 33.80625 216.68124 34.4L214.8375 34.4Q214.57187 33.853127 214.49374 33.11875ZM214.3375 29.196877Q213.38437 29.587502 211.4625 29.853127Q210.38437 30.009377 209.93124 30.212502Q209.49374 30.400002 209.24374 30.775002Q208.99374 31.150002 208.99374 31.618752Q208.99374 32.321877 209.525 32.790627Q210.05624 33.259377 211.0875 33.259377Q212.10312 33.259377 212.88437 32.821877Q213.68124 32.36875 214.05624 31.603127Q214.3375 30.993752 214.3375 29.837502L214.3375 29.196877ZM225.49374 30.603127L227.2125 30.821877Q226.93124 32.61875 225.75937 33.634377Q224.60312 34.634377 222.9 34.634377Q220.775 34.634377 219.47812 33.24375Q218.18124 31.853127 218.18124 29.259377Q218.18124 27.571877 218.72812 26.321877Q219.29062 25.056252 220.43124 24.431252Q221.57187 23.790627 222.91562 23.790627Q224.60312 23.790627 225.66562 24.650002Q226.74374 25.509377 227.05624 27.071877L225.3375 27.337502Q225.10312 26.290627 224.47812 25.775002Q223.85312 25.243752 222.97812 25.243752Q221.65 25.243752 220.82187 26.196877Q219.99374 27.150002 219.99374 29.196877Q219.99374 31.290627 220.79062 32.24375Q221.5875 33.18125 222.88437 33.18125Q223.91562 33.18125 224.60312 32.55625Q225.30624 31.915627 225.49374 30.603127ZM232.55624 32.821877L232.80624 34.384377Q232.07187 34.540627 231.47812 34.540627Q230.525 34.540627 229.99374 34.24375Q229.47812 33.93125 229.25937 33.446877Q229.04062 32.946877 229.04062 31.368752L229.04062 25.400002L227.75937 25.400002L227.75937 24.025002L229.04062 24.025002L229.04062 21.462502L230.79062 20.400002L230.79062 24.025002L232.55624 24.025002L232.55624 25.400002L230.79062 25.400002L230.79062 31.462502Q230.79062 32.2125 230.88437 32.43125Q230.97812 32.634377 231.18124 32.775Q231.4 32.9 231.79062 32.9Q232.07187 32.9 232.55624 32.821877ZM234.72812 22.103127L234.72812 20.087502L236.49374 20.087502L236.49374 22.103127L234.72812 22.103127ZM234.72812 34.4L234.72812 24.025002L236.49374 24.025002L236.49374 34.4L234.72812 34.4ZM241.60312 34.4L237.65 24.025002L239.50937 24.025002L241.74374 30.243752Q242.10312 31.243752 242.4 32.321877Q242.63437 31.509377 243.05624 30.353127L245.35312 24.025002L247.16562 24.025002L243.24374 34.4L241.60312 34.4ZM248.72812 22.103127L248.72812 20.087502L250.49374 20.087502L250.49374 22.103127L248.72812 22.103127ZM248.72812 34.4L248.72812 24.025002L250.49374 24.025002L250.49374 34.4L248.72812 34.4ZM256.55624 32.821877L256.80624 34.384377Q256.07187 34.540627 255.47812 34.540627Q254.525 34.540627 253.99374 34.24375Q253.47812 33.93125 253.25937 33.446877Q253.04062 32.946877 253.04062 31.368752L253.04062 25.400002L251.75937 25.400002L251.75937 24.025002L253.04062 24.025002L253.04062 21.462502L254.79062 20.400002L254.79062 24.025002L256.55624 24.025002L256.55624 25.400002L254.79062 25.400002L254.79062 31.462502Q254.79062 32.2125 254.88437 32.43125Q254.97812 32.634377 255.18124 32.775Q255.4 32.9 255.79062 32.9Q256.07187 32.9 256.55624 32.821877ZM258.72812 22.103127L258.72812 20.087502L260.49374 20.087502L260.49374 22.103127L258.72812 22.103127ZM258.72812 34.4L258.72812 24.025002L260.49374 24.025002L260.49374 34.4L258.72812 34.4ZM269.82187 31.056252L271.63437 31.290627Q271.2125 32.86875 270.04062 33.759377Q268.88437 34.634377 267.07187 34.634377Q264.80624 34.634377 263.4625 33.24375Q262.13437 31.837502 262.13437 29.306252Q262.13437 26.681252 263.47812 25.243752Q264.82187 23.790627 266.97812 23.790627Q269.05624 23.790627 270.36874 25.212502Q271.69687 26.618752 271.69687 29.196877Q271.69687 29.353127 271.68124 29.665627L263.94687 29.665627Q264.04062 31.368752 264.91562 32.275Q265.79062 33.18125 267.0875 33.18125Q268.05624 33.18125 268.72812 32.68125Q269.41562 32.165627 269.82187 31.056252ZM264.04062 28.212502L269.8375 28.212502Q269.72812 26.915627 269.18124 26.259377Q268.3375 25.243752 266.99374 25.243752Q265.79062 25.243752 264.9625 26.056252Q264.13437 26.853127 264.04062 28.212502ZM273.00937 31.306252L274.75937 31.025002Q274.9 32.071877 275.57187 32.634377Q276.24374 33.18125 277.44687 33.18125Q278.65 33.18125 279.22812 32.696877Q279.82187 32.196877 279.82187 31.540627Q279.82187 30.946877 279.30624 30.603127Q278.94687 30.368752 277.50937 30.009377Q275.57187 29.509377 274.82187 29.165627Q274.0875 28.806252 273.69687 28.181252Q273.30624 27.540627 273.30624 26.775002Q273.30624 26.087502 273.61874 25.493752Q273.94687 24.900002 274.49374 24.509377Q274.9 24.212502 275.60312 24.009377Q276.32187 23.790627 277.13437 23.790627Q278.35312 23.790627 279.275 24.150002Q280.19687 24.493752 280.63437 25.103127Q281.07187 25.696877 281.24374 26.696877L279.525 26.931252Q279.4 26.134377 278.8375 25.696877Q278.275 25.243752 277.25937 25.243752Q276.04062 25.243752 275.525 25.650002Q275.00937 26.040627 275.00937 26.571877Q275.00937 26.915627 275.22812 27.196877Q275.43124 27.478127 275.9 27.665627Q276.16562 27.759377 277.44687 28.103127Q279.32187 28.603127 280.05624 28.931252Q280.79062 29.243752 281.2125 29.853127Q281.63437 30.446877 281.63437 31.353127Q281.63437 32.228127 281.11874 33.009377Q280.60312 33.790627 279.63437 34.2125Q278.66562 34.634377 277.44687 34.634377Q275.43124 34.634377 274.36874 33.790627Q273.30624 32.946877 273.00937 31.306252ZM296.44687 34.4L296.44687 33.0875Q295.4625 34.634377 293.54062 34.634377Q292.30624 34.634377 291.25937 33.946877Q290.22812 33.259377 289.65 32.040627Q289.0875 30.821877 289.0875 29.228127Q289.0875 27.665627 289.60312 26.400002Q290.11874 25.134377 291.15 24.462502Q292.19687 23.790627 293.4625 23.790627Q294.4 23.790627 295.13437 24.196877Q295.86874 24.587502 296.3375 25.212502L296.3375 20.087502L298.07187 20.087502L298.07187 34.4L296.44687 34.4ZM290.88437 29.228127Q290.88437 31.212502 291.72812 32.196877Q292.57187 33.18125 293.7125 33.18125Q294.86874 33.18125 295.66562 32.24375Q296.47812 31.306252 296.47812 29.368752Q296.47812 27.243752 295.65 26.243752Q294.8375 25.243752 293.63437 25.243752Q292.4625 25.243752 291.66562 26.212502Q290.88437 27.165627 290.88437 29.228127ZM300.07187 29.212502Q300.07187 26.337502 301.66562 24.946877Q303.00937 23.790627 304.93124 23.790627Q307.07187 23.790627 308.41562 25.196877Q309.775 26.603127 309.775 29.071877Q309.775 31.071877 309.18124 32.228127Q308.5875 33.36875 307.43124 34.009377Q306.29062 34.634377 304.93124 34.634377Q302.74374 34.634377 301.4 33.24375Q300.07187 31.837502 300.07187 29.212502ZM301.86874 29.212502Q301.86874 31.212502 302.72812 32.196877Q303.60312 33.18125 304.93124 33.18125Q306.24374 33.18125 307.10312 32.196877Q307.97812 31.196877 307.97812 29.150002Q307.97812 27.228127 307.10312 26.243752Q306.22812 25.243752 304.93124 25.243752Q303.60312 25.243752 302.72812 26.243752Q301.86874 27.228127 301.86874 29.212502ZM317.63437 38.4L317.44687 36.74375Q318.025 36.9 318.44687 36.9Q319.04062 36.9 319.38437 36.696877Q319.74374 36.509377 319.9625 36.165627Q320.13437 35.9 320.50937 34.853127Q320.55624 34.696877 320.66562 34.415627L316.72812 24.025002L318.61874 24.025002L320.775 30.040627Q321.19687 31.181252 321.525 32.43125Q321.8375 31.228127 322.24374 30.071877L324.4625 24.025002L326.22812 24.025002L322.275 34.571877Q321.65 36.290627 321.29062 36.93125Q320.82187 37.80625 320.2125 38.196877Q319.61874 38.603127 318.775 38.603127Q318.25937 38.603127 317.63437 38.4ZM327.07187 29.212502Q327.07187 26.337502 328.66562 24.946877Q330.00937 23.790627 331.93124 23.790627Q334.07187 23.790627 335.41562 25.196877Q336.775 26.603127 336.775 29.071877Q336.775 31.071877 336.18124 32.228127Q335.5875 33.36875 334.43124 34.009377Q333.29062 34.634377 331.93124 34.634377Q329.74374 34.634377 328.4 33.24375Q327.07187 31.837502 327.07187 29.212502ZM328.86874 29.212502Q328.86874 31.212502 329.72812 32.196877Q330.60312 33.18125 331.93124 33.18125Q333.24374 33.18125 334.10312 32.196877Q334.97812 31.196877 334.97812 29.150002Q334.97812 27.228127 334.10312 26.243752Q333.22812 25.243752 331.93124 25.243752Q330.60312 25.243752 329.72812 26.243752Q328.86874 27.228127 328.86874 29.212502ZM345.50937 34.4L345.50937 32.86875Q344.30624 34.634377 342.22812 34.634377Q341.30624 34.634377 340.50937 34.290627Q339.7125 33.93125 339.32187 33.4Q338.94687 32.86875 338.79062 32.0875Q338.68124 31.571877 338.68124 30.446877L338.68124 24.025002L340.43124 24.025002L340.43124 29.775002Q340.43124 31.150002 340.54062 31.634377Q340.7125 32.321877 341.24374 32.728127Q341.79062 33.11875 342.57187 33.11875Q343.36874 33.11875 344.05624 32.7125Q344.75937 32.30625 345.04062 31.618752Q345.3375 30.915627 345.3375 29.587502L345.3375 24.025002L347.0875 24.025002L347.0875 34.4L345.50937 34.4ZM357.63437 34.4L354.4625 24.025002L356.275 24.025002L357.93124 30.009377L358.54062 32.24375Q358.5875 32.071877 359.07187 30.103127L360.72812 24.025002L362.54062 24.025002L364.0875 30.040627L364.60312 32.025L365.19687 30.025002L366.97812 24.025002L368.68124 24.025002L365.44687 34.4L363.61874 34.4L361.9625 28.181252L361.57187 26.415627L359.4625 34.4L357.63437 34.4ZM376.49374 33.11875Q375.50937 33.946877 374.60312 34.290627Q373.69687 34.634377 372.66562 34.634377Q370.9625 34.634377 370.04062 33.80625Q369.11874 32.9625 369.11874 31.665627Q369.11874 30.900002 369.4625 30.275002Q369.82187 29.650002 370.38437 29.275002Q370.94687 28.884377 371.65 28.681252Q372.16562 28.556252 373.2125 28.415627Q375.3375 28.165627 376.3375 27.821877Q376.35312 27.462502 376.35312 27.353127Q376.35312 26.290627 375.85312 25.837502Q375.18124 25.243752 373.85312 25.243752Q372.60312 25.243752 372.00937 25.681252Q371.43124 26.118752 371.15 27.228127L369.43124 26.993752Q369.66562 25.884377 370.19687 25.212502Q370.72812 24.525002 371.74374 24.165627Q372.75937 23.790627 374.10312 23.790627Q375.43124 23.790627 376.25937 24.103127Q377.0875 24.415627 377.47812 24.900002Q377.86874 25.368752 378.025 26.087502Q378.11874 26.540627 378.11874 27.712502L378.11874 30.056252Q378.11874 32.509377 378.22812 33.165627Q378.3375 33.80625 378.68124 34.4L376.8375 34.4Q376.57187 33.853127 376.49374 33.11875ZM376.3375 29.196877Q375.38437 29.587502 373.4625 29.853127Q372.38437 30.009377 371.93124 30.212502Q371.49374 30.400002 371.24374 30.775002Q370.99374 31.150002 370.99374 31.618752Q370.99374 32.321877 371.525 32.790627Q372.05624 33.259377 373.0875 33.259377Q374.10312 33.259377 374.88437 32.821877Q375.68124 32.36875 376.05624 31.603127Q376.3375 30.993752 376.3375 29.837502L376.3375 29.196877ZM380.7125 34.4L380.7125 24.025002L382.30624 24.025002L382.30624 25.509377Q383.44687 23.790627 385.60312 23.790627Q386.54062 23.790627 387.32187 24.134377Q388.11874 24.462502 388.50937 25.009377Q388.9 25.556252 389.05624 26.306252Q389.15 26.806252 389.15 28.025002L389.15 34.4L387.38437 34.4L387.38437 28.087502Q387.38437 27.009377 387.18124 26.478127Q386.97812 25.946877 386.44687 25.634377Q385.93124 25.321877 385.22812 25.321877Q384.10312 25.321877 383.29062 26.040627Q382.47812 26.743752 382.47812 28.728127L382.47812 34.4L380.7125 34.4ZM395.55624 32.821877L395.80624 34.384377Q395.07187 34.540627 394.47812 34.540627Q393.525 34.540627 392.99374 34.24375Q392.47812 33.93125 392.25937 33.446877Q392.04062 32.946877 392.04062 31.368752L392.04062 25.400002L390.75937 25.400002L390.75937 24.025002L392.04062 24.025002L392.04062 21.462502L393.79062 20.400002L393.79062 24.025002L395.55624 24.025002L395.55624 25.400002L393.79062 25.400002L393.79062 31.462502Q393.79062 32.2125 393.88437 32.43125Q393.97812 32.634377 394.18124 32.775Q394.4 32.9 394.79062 32.9Q395.07187 32.9 395.55624 32.821877ZM403.72812 22.103127L403.72812 20.087502L405.49374 20.087502L405.49374 22.103127L403.72812 22.103127ZM403.72812 34.4L403.72812 24.025002L405.49374 24.025002L405.49374 34.4L403.72812 34.4ZM407.7125 34.4L407.7125 24.025002L409.30624 24.025002L409.30624 25.509377Q410.44687 23.790627 412.60312 23.790627Q413.54062 23.790627 414.32187 24.134377Q415.11874 24.462502 415.50937 25.009377Q415.9 25.556252 416.05624 26.306252Q416.15 26.806252 416.15 28.025002L416.15 34.4L414.38437 34.4L414.38437 28.087502Q414.38437 27.009377 414.18124 26.478127Q413.97812 25.946877 413.44687 25.634377Q412.93124 25.321877 412.22812 25.321877Q411.10312 25.321877 410.29062 26.040627Q409.47812 26.743752 409.47812 28.728127L409.47812 34.4L407.7125 34.4ZM424.07187 29.212502Q424.07187 26.337502 425.66562 24.946877Q427.00937 23.790627 428.93124 23.790627Q431.07187 23.790627 432.41562 25.196877Q433.775 26.603127 433.775 29.071877Q433.775 31.071877 433.18124 32.228127Q432.5875 33.36875 431.43124 34.009377Q430.29062 34.634377 428.93124 34.634377Q426.74374 34.634377 425.4 33.24375Q424.07187 31.837502 424.07187 29.212502ZM425.86874 29.212502Q425.86874 31.212502 426.72812 32.196877Q427.60312 33.18125 428.93124 33.18125Q430.24374 33.18125 431.10312 32.196877Q431.97812 31.196877 431.97812 29.150002Q431.97812 27.228127 431.10312 26.243752Q430.22812 25.243752 428.93124 25.243752Q427.60312 25.243752 426.72812 26.243752Q425.86874 27.228127 425.86874 29.212502ZM442.50937 34.4L442.50937 32.86875Q441.30624 34.634377 439.22812 34.634377Q438.30624 34.634377 437.50937 34.290627Q436.7125 33.93125 436.32187 33.4Q435.94687 32.86875 435.79062 32.0875Q435.68124 31.571877 435.68124 30.446877L435.68124 24.025002L437.43124 24.025002L437.43124 29.775002Q437.43124 31.150002 437.54062 31.634377Q437.7125 32.321877 438.24374 32.728127Q438.79062 33.11875 439.57187 33.11875Q440.36874 33.11875 441.05624 32.7125Q441.75937 32.30625 442.04062 31.618752Q442.3375 30.915627 442.3375 29.587502L442.3375 24.025002L444.0875 24.025002L444.0875 34.4L442.50937 34.4ZM446.69687 34.4L446.69687 24.025002L448.275 24.025002L448.275 25.603127Q448.88437 24.493752 449.4 24.150002Q449.91562 23.790627 450.525 23.790627Q451.41562 23.790627 452.3375 24.353127L451.72812 25.993752Q451.0875 25.603127 450.44687 25.603127Q449.86874 25.603127 449.4 25.962502Q448.94687 26.306252 448.74374 26.915627Q448.4625 27.853127 448.4625 28.962502L448.4625 34.4L446.69687 34.4Z" fill-rule="nonzero"/></svg>