<svg version="1.1" viewBox="0.0 0.0 497.0 308.0" fill="none" stroke="none" stroke-linecap="square" stroke-miterlimit="10" width="497" height="308" xmlns:xlink="http://www.w3.org/1999/xlink" xmlns="http://www.w3.org/2000/svg"><path fill="#ffffff" d="M0 0L497.0 0L497.0 308.0L0 308.0L0 0Z" fill-rule="nonzero"/><path fill="#a42f25" d="M361.96667 186.64333C361.96667 230.50948 311.16592 266.07 248.5 266.07C185.83409 266.07 135.03334 230.50948 135.03334 186.64333L135.03334 169.62334C135.03334 213.48947 185.83409 249.05 248.5 249.05C311.16592 249.05 361.96667 213.48947 361.96667 169.62334Z" fill-rule="nonzero"/><path fill="#a42f25" d="M191.76666 169.62334C191.76666 147.69026 217.16704 129.91 248.5 129.91C279.83295 129.91 305.23334 147.69026 305.23334 169.62334L305.23334 186.64333C305.23334 164.71027 279.83295 146.93 248.5 146.93C217.16704 146.93 191.76666 164.71027 191.76666 186.64333Z" fill-rule="nonzero"/><path fill="#ea4335" d="M248.5 90.19666C311.16592 90.19666 361.96667 125.757195 361.96667 169.62334C361.96667 213.48947 311.16592 249.05 248.5 249.05C185.83409 249.05 135.03334 213.48947 135.03334 169.62334C135.03334 125.757195 185.83409 90.19666 248.5 90.19666L248.5 129.91C217.16704 129.91 191.76666 147.69026 191.76666 169.62334C191.76666 191.5564 217.16704 209.33667 248.5 209.33667C279.83295 209.33667 305.23334 191.5564 305.23334 169.62334C305.23334 147.69026 279.83295 129.91 248.5 129.91Z" fill-rule="nonzero"/><path fill="#1a1a1a" d="M463.94376 240.57866L463.94376 236.93803L460.63126 231.98491L462.02188 231.98491L463.70938 234.57866Q464.17813 235.29741 464.58438 236.03178Q464.975 235.35991 465.52188 234.51616L467.19376 231.98491L468.50626 231.98491L465.08438 236.93803L465.08438 240.57866L463.94376 240.57866ZM473.64688 238.57866L474.74063 238.70366Q474.49063 239.65678 473.7875 240.18803Q473.08438 240.71928 472.00626 240.71928Q470.64688 240.71928 469.83438 239.87553Q469.0375 239.03178 469.0375 237.51616Q469.0375 235.95366 469.85 235.09428Q470.6625 234.21928 471.94376 234.21928Q473.19376 234.21928 473.975 235.06303Q474.77188 235.90678 474.77188 237.45366Q474.77188 237.54741 474.77188 237.73491L470.13126 237.73491Q470.19376 238.76616 470.70938 239.31303Q471.225 239.84428 472.00626 239.84428Q472.58438 239.84428 472.99063 239.54741Q473.4125 239.23491 473.64688 238.57866ZM470.19376 236.87553L473.6625 236.87553Q473.6 236.07866 473.27188 235.68803Q472.75626 235.07866 471.95938 235.07866Q471.225 235.07866 470.725 235.56303Q470.24063 236.04741 470.19376 236.87553ZM475.975 238.71928L477.00626 238.56303Q477.1 239.18803 477.49063 239.51616Q477.89688 239.84428 478.63126 239.84428Q479.35 239.84428 479.69376 239.56303Q480.05313 239.26616 480.05313 238.85991Q480.05313 238.50053 479.74063 238.29741Q479.52188 238.15678 478.6625 237.93803Q477.50626 237.64116 477.05313 237.43803Q476.61563 237.21928 476.38126 236.84428Q476.14688 236.46928 476.14688 236.00053Q476.14688 235.59428 476.33438 235.23491Q476.52188 234.87553 476.85 234.64116Q477.1 234.46928 477.52188 234.34428Q477.94376 234.21928 478.44376 234.21928Q479.1625 234.21928 479.70938 234.43803Q480.27188 234.64116 480.5375 235.00053Q480.80313 235.35991 480.89688 235.95366L479.86563 236.09428Q479.80313 235.62553 479.45938 235.35991Q479.13126 235.07866 478.50626 235.07866Q477.7875 235.07866 477.475 235.32866Q477.1625 235.56303 477.1625 235.89116Q477.1625 236.09428 477.2875 236.25053Q477.42813 236.42241 477.69376 236.53178Q477.85 236.59428 478.63126 236.79741Q479.75626 237.10991 480.19376 237.29741Q480.63126 237.48491 480.88126 237.84428Q481.13126 238.20366 481.13126 238.75053Q481.13126 239.28178 480.81876 239.75053Q480.52188 240.20366 479.94376 240.46928Q479.36563 240.71928 478.63126 240.71928Q477.4125 240.71928 476.77188 240.21928Q476.14688 239.70366 475.975 238.71928Z" fill-rule="nonzero"/><path fill="#9e9e9e" d="M444.06876 257.57867L443.02188 257.57867L443.02188 250.85992Q442.63126 251.2193 442.00626 251.5943Q441.39688 251.95367 440.9125 252.12555L440.9125 251.10992Q441.7875 250.68805 442.44376 250.10992Q443.11563 249.51617 443.39688 248.95367L444.06876 248.95367L444.06876 257.57867ZM447.1 253.3443Q447.1 251.81305 447.4125 250.89117Q447.725 249.95367 448.33438 249.45367Q448.95938 248.95367 449.89688 248.95367Q450.58438 248.95367 451.1 249.23492Q451.63126 249.51617 451.975 250.04742Q452.31876 250.56305 452.50626 251.31305Q452.69376 252.06305 452.69376 253.3443Q452.69376 254.85992 452.38126 255.7818Q452.08438 256.70367 451.45938 257.2193Q450.85 257.7193 449.89688 257.7193Q448.6625 257.7193 447.94376 256.82867Q447.1 255.76617 447.1 253.3443ZM448.17813 253.3443Q448.17813 255.45367 448.67813 256.1568Q449.17813 256.85992 449.89688 256.85992Q450.63126 256.85992 451.11563 256.1568Q451.61563 255.45367 451.61563 253.3443Q451.61563 251.2193 451.11563 250.5318Q450.63126 249.82867 449.88126 249.82867Q449.1625 249.82867 448.725 250.43805Q448.17813 251.2193 448.17813 253.3443ZM454.1 253.3443Q454.1 251.81305 454.4125 250.89117Q454.725 249.95367 455.33438 249.45367Q455.95938 248.95367 456.89688 248.95367Q457.58438 248.95367 458.1 249.23492Q458.63126 249.51617 458.975 250.04742Q459.31876 250.56305 459.50626 251.31305Q459.69376 252.06305 459.69376 253.3443Q459.69376 254.85992 459.38126 255.7818Q459.08438 256.70367 458.45938 257.2193Q457.85 257.7193 456.89688 257.7193Q455.6625 257.7193 454.94376 256.82867Q454.1 255.76617 454.1 253.3443ZM455.17813 253.3443Q455.17813 255.45367 455.67813 256.1568Q456.17813 256.85992 456.89688 256.85992Q457.63126 256.85992 458.11563 256.1568Q458.61563 255.45367 458.61563 253.3443Q458.61563 251.2193 458.11563 250.5318Q457.63126 249.82867 456.88126 249.82867Q456.1625 249.82867 455.725 250.43805Q455.17813 251.2193 455.17813 253.3443ZM461.69376 257.57867L461.69376 256.37555L462.89688 256.37555L462.89688 257.57867L461.69376 257.57867ZM464.1 253.3443Q464.1 251.81305 464.4125 250.89117Q464.725 249.95367 465.33438 249.45367Q465.95938 248.95367 466.89688 248.95367Q467.58438 248.95367 468.1 249.23492Q468.63126 249.51617 468.975 250.04742Q469.31876 250.56305 469.50626 251.31305Q469.69376 252.06305 469.69376 253.3443Q469.69376 254.85992 469.38126 255.7818Q469.08438 256.70367 468.45938 257.2193Q467.85 257.7193 466.89688 257.7193Q465.6625 257.7193 464.94376 256.82867Q464.1 255.76617 464.1 253.3443ZM465.17813 253.3443Q465.17813 255.45367 465.67813 256.1568Q466.17813 256.85992 466.89688 256.85992Q467.63126 256.85992 468.11563 256.1568Q468.61563 255.45367 468.61563 253.3443Q468.61563 251.2193 468.11563 250.5318Q467.63126 249.82867 466.88126 249.82867Q466.1625 249.82867 465.725 250.43805Q465.17813 251.2193 465.17813 253.3443ZM471.30313 251.04742Q471.30313 250.12555 471.75626 249.48492Q472.225 248.8443 473.1 248.8443Q473.9125 248.8443 474.44376 249.42242Q474.975 250.00055 474.975 251.10992Q474.975 252.20367 474.42813 252.79742Q473.89688 253.37555 473.11563 253.37555Q472.33438 253.37555 471.81876 252.79742Q471.30313 252.2193 471.30313 251.04742ZM473.13126 249.56305Q472.74063 249.56305 472.475 249.9068Q472.225 250.25055 472.225 251.1568Q472.225 251.98492 472.475 252.32867Q472.74063 252.6568 473.13126 252.6568Q473.5375 252.6568 473.7875 252.31305Q474.05313 251.9693 474.05313 251.07867Q474.05313 250.23492 473.7875 249.9068Q473.52188 249.56305 473.13126 249.56305ZM473.13126 257.89117L477.83438 248.8443L478.69376 248.8443L474.00626 257.89117L473.13126 257.89117ZM476.85 255.56305Q476.85 254.64117 477.30313 254.00055Q477.77188 253.35992 478.6625 253.35992Q479.475 253.35992 480.00626 253.93805Q480.5375 254.50055 480.5375 255.62555Q480.5375 256.7193 479.99063 257.31305Q479.45938 257.89117 478.6625 257.89117Q477.89688 257.89117 477.36563 257.31305Q476.85 256.73492 476.85 255.56305ZM478.69376 254.07867Q478.2875 254.07867 478.02188 254.42242Q477.77188 254.76617 477.77188 255.67242Q477.77188 256.48492 478.0375 256.82867Q478.30313 257.17242 478.69376 257.17242Q479.08438 257.17242 479.35 256.82867Q479.61563 256.48492 479.61563 255.57867Q479.61563 254.75055 479.35 254.42242Q479.08438 254.07867 478.69376 254.07867Z" fill-rule="nonzero"/><path stroke="#757575" stroke-width="1.0" stroke-linecap="butt" d="M481.6 245.07866L367.96667 245.07866L248.5 245.07866" fill-rule="nonzero"/><path fill="#9e9e9e" d="M250.5 245.07866C250.5 243.97409 249.60457 243.07866 248.5 243.07866C247.39543 243.07866 246.5 243.97409 246.5 245.07866C246.5 246.18324 247.39543 247.07866 248.5 247.07866C249.60457 247.07866 250.5 246.18324 250.5 245.07866" fill-rule="nonzero"/><path fill="#757575" d="M16.946875 34.4L16.946875 20.087502L21.86875 20.087502Q23.540625 20.087502 24.43125 20.290627Q25.65 20.571877 26.525 21.306252Q27.65 22.275002 28.2125 23.759377Q28.775 25.243752 28.775 27.165627Q28.775 28.790627 28.4 30.056252Q28.025 31.306252 27.415625 32.134377Q26.821875 32.9625 26.11875 33.446877Q25.415625 33.915627 24.415625 34.165627Q23.415625 34.4 22.103125 34.4L16.946875 34.4ZM18.8375 32.7125L21.9 32.7125Q23.30625 32.7125 24.103125 32.446877Q24.915625 32.18125 25.4 31.696877Q26.071875 31.025002 26.446875 29.900002Q26.821875 28.759377 26.821875 27.134377Q26.821875 24.884377 26.0875 23.681252Q25.353125 22.478127 24.290625 22.071877Q23.540625 21.775002 21.853125 21.775002L18.8375 21.775002L18.8375 32.7125ZM30.071875 29.212502Q30.071875 26.337502 31.665625 24.946877Q33.009377 23.790627 34.93125 23.790627Q37.071877 23.790627 38.415627 25.196877Q39.775 26.603127 39.775 29.071877Q39.775 31.071877 39.18125 32.228127Q38.5875 33.36875 37.43125 34.009377Q36.290627 34.634377 34.93125 34.634377Q32.74375 34.634377 31.4 33.24375Q30.071875 31.837502 30.071875 29.212502ZM31.86875 29.212502Q31.86875 31.212502 32.728127 32.196877Q33.603127 33.18125 34.93125 33.18125Q36.24375 33.18125 37.103127 32.196877Q37.978127 31.196877 37.978127 29.150002Q37.978127 27.228127 37.103127 26.243752Q36.228127 25.243752 34.93125 25.243752Q33.603127 25.243752 32.728127 26.243752Q31.86875 27.228127 31.86875 29.212502ZM49.634377 34.4L46.4625 24.025002L48.275 24.025002L49.93125 30.009377L50.540627 32.24375Q50.5875 32.071877 51.071877 30.103127L52.728127 24.025002L54.540627 24.025002L56.0875 30.040627L56.603127 32.025L57.196877 30.025002L58.978127 24.025002L60.68125 24.025002L57.446877 34.4L55.61875 34.4L53.9625 28.181252L53.571877 26.415627L51.4625 34.4L49.634377 34.4ZM68.49375 33.11875Q67.50938 33.946877 66.60313 34.290627Q65.69688 34.634377 64.66563 34.634377Q62.9625 34.634377 62.040627 33.80625Q61.11875 32.9625 61.11875 31.665627Q61.11875 30.900002 61.4625 30.275002Q61.821877 29.650002 62.384377 29.275002Q62.946877 28.884377 63.65 28.681252Q64.16563 28.556252 65.2125 28.415627Q67.3375 28.165627 68.3375 27.821877Q68.35313 27.462502 68.35313 27.353127Q68.35313 26.290627 67.85313 25.837502Q67.18125 25.243752 65.85313 25.243752Q64.60313 25.243752 64.00938 25.681252Q63.43125 26.118752 63.15 27.228127L61.43125 26.993752Q61.665627 25.884377 62.196877 25.212502Q62.728127 24.525002 63.74375 24.165627Q64.75938 23.790627 66.10313 23.790627Q67.43125 23.790627 68.25938 24.103127Q69.0875 24.415627 69.47813 24.900002Q69.86875 25.368752 70.025 26.087502Q70.11875 26.540627 70.11875 27.712502L70.11875 30.056252Q70.11875 32.509377 70.22813 33.165627Q70.3375 33.80625 70.68125 34.4L68.8375 34.4Q68.57188 33.853127 68.49375 33.11875ZM68.3375 29.196877Q67.38438 29.587502 65.4625 29.853127Q64.38438 30.009377 63.93125 30.212502Q63.49375 30.400002 63.24375 30.775002Q62.99375 31.150002 62.99375 31.618752Q62.99375 32.321877 63.525 32.790627Q64.05625 33.259377 65.0875 33.259377Q66.10313 33.259377 66.88438 32.821877Q67.68125 32.36875 68.05625 31.603127Q68.3375 30.993752 68.3375 29.837502L68.3375 29.196877ZM72.7125 34.4L72.7125 24.025002L74.30625 24.025002L74.30625 25.509377Q75.44688 23.790627 77.60313 23.790627Q78.54063 23.790627 79.32188 24.134377Q80.11875 24.462502 80.50938 25.009377Q80.9 25.556252 81.05625 26.306252Q81.15 26.806252 81.15 28.025002L81.15 34.4L79.38438 34.4L79.38438 28.087502Q79.38438 27.009377 79.18125 26.478127Q78.97813 25.946877 78.44688 25.634377Q77.93125 25.321877 77.22813 25.321877Q76.10313 25.321877 75.29063 26.040627Q74.47813 26.743752 74.47813 28.728127L74.47813 34.4L72.7125 34.4ZM87.55625 32.821877L87.80625 34.384377Q87.07188 34.540627 86.47813 34.540627Q85.525 34.540627 84.99375 34.24375Q84.47813 33.93125 84.25938 33.446877Q84.04063 32.946877 84.04063 31.368752L84.04063 25.400002L82.75938 25.400002L82.75938 24.025002L84.04063 24.025002L84.04063 21.462502L85.79063 20.400002L85.79063 24.025002L87.55625 24.025002L87.55625 25.400002L85.79063 25.400002L85.79063 31.462502Q85.79063 32.2125 85.88438 32.43125Q85.97813 32.634377 86.18125 32.775Q86.4 32.9 86.79063 32.9Q87.07188 32.9 87.55625 32.821877ZM99.55625 32.821877L99.80625 34.384377Q99.07188 34.540627 98.47813 34.540627Q97.525 34.540627 96.99375 34.24375Q96.47813 33.93125 96.25938 33.446877Q96.04063 32.946877 96.04063 31.368752L96.04063 25.400002L94.75938 25.400002L94.75938 24.025002L96.04063 24.025002L96.04063 21.462502L97.79063 20.400002L97.79063 24.025002L99.55625 24.025002L99.55625 25.400002L97.79063 25.400002L97.79063 31.462502Q97.79063 32.2125 97.88438 32.43125Q97.97813 32.634377 98.18125 32.775Q98.4 32.9 98.79063 32.9Q99.07188 32.9 99.55625 32.821877ZM101.07188 29.212502Q101.07188 26.337502 102.66563 24.946877Q104.00938 23.790627 105.93125 23.790627Q108.07188 23.790627 109.41563 25.196877Q110.775 26.603127 110.775 29.071877Q110.775 31.071877 110.18125 32.228127Q109.5875 33.36875 108.43125 34.009377Q107.29063 34.634377 105.93125 34.634377Q103.74375 34.634377 102.4 33.24375Q101.07188 31.837502 101.07188 29.212502ZM102.86875 29.212502Q102.86875 31.212502 103.72813 32.196877Q104.60313 33.18125 105.93125 33.18125Q107.24375 33.18125 108.10313 32.196877Q108.97813 31.196877 108.97813 29.150002Q108.97813 27.228127 108.10313 26.243752Q107.22813 25.243752 105.93125 25.243752Q104.60313 25.243752 103.72813 26.243752Q102.86875 27.228127 102.86875 29.212502ZM118.00938 31.306252L119.75938 31.025002Q119.9 32.071877 120.57188 32.634377Q121.24375 33.18125 122.44688 33.18125Q123.65 33.18125 124.22813 32.696877Q124.82188 32.196877 124.82188 31.540627Q124.82188 30.946877 124.30625 30.603127Q123.94688 30.368752 122.50938 30.009377Q120.57188 29.509377 119.82188 29.165627Q119.0875 28.806252 118.69688 28.181252Q118.30625 27.540627 118.30625 26.775002Q118.30625 26.087502 118.61875 25.493752Q118.94688 24.900002 119.49375 24.509377Q119.9 24.212502 120.60313 24.009377Q121.32188 23.790627 122.13438 23.790627Q123.35313 23.790627 124.275 24.150002Q125.19688 24.493752 125.63438 25.103127Q126.07188 25.696877 126.24375 26.696877L124.525 26.931252Q124.4 26.134377 123.8375 25.696877Q123.275 25.243752 122.25938 25.243752Q121.04063 25.243752 120.525 25.650002Q120.00938 26.040627 120.00938 26.571877Q120.00938 26.915627 120.22813 27.196877Q120.43125 27.478127 120.9 27.665627Q121.16563 27.759377 122.44688 28.103127Q124.32188 28.603127 125.05625 28.931252Q125.79063 29.243752 126.2125 29.853127Q126.63438 30.446877 126.63438 31.353127Q126.63438 32.228127 126.11875 33.009377Q125.60313 33.790627 124.63438 34.2125Q123.66563 34.634377 122.44688 34.634377Q120.43125 34.634377 119.36875 33.790627Q118.30625 32.946877 118.00938 31.306252ZM135.82187 31.056252L137.63437 31.290627Q137.2125 32.86875 136.04062 33.759377Q134.88437 34.634377 133.07187 34.634377Q130.80624 34.634377 129.4625 33.24375Q128.13437 31.837502 128.13437 29.306252Q128.13437 26.681252 129.47812 25.243752Q130.82187 23.790627 132.97812 23.790627Q135.05624 23.790627 136.36874 25.212502Q137.69687 26.618752 137.69687 29.196877Q137.69687 29.353127 137.68124 29.665627L129.94687 29.665627Q130.04062 31.368752 130.91562 32.275Q131.79062 33.18125 133.0875 33.18125Q134.05624 33.18125 134.72812 32.68125Q135.41562 32.165627 135.82187 31.056252ZM130.04062 28.212502L135.8375 28.212502Q135.72812 26.915627 135.18124 26.259377Q134.3375 25.243752 132.99374 25.243752Q131.79062 25.243752 130.9625 26.056252Q130.13437 26.853127 130.04062 28.212502ZM146.82187 31.056252L148.63437 31.290627Q148.2125 32.86875 147.04062 33.759377Q145.88437 34.634377 144.07187 34.634377Q141.80624 34.634377 140.4625 33.24375Q139.13437 31.837502 139.13437 29.306252Q139.13437 26.681252 140.47812 25.243752Q141.82187 23.790627 143.97812 23.790627Q146.05624 23.790627 147.36874 25.212502Q148.69687 26.618752 148.69687 29.196877Q148.69687 29.353127 148.68124 29.665627L140.94687 29.665627Q141.04062 31.368752 141.91562 32.275Q142.79062 33.18125 144.0875 33.18125Q145.05624 33.18125 145.72812 32.68125Q146.41562 32.165627 146.82187 31.056252ZM141.04062 28.212502L146.8375 28.212502Q146.72812 26.915627 146.18124 26.259377Q145.3375 25.243752 143.99374 25.243752Q142.79062 25.243752 141.9625 26.056252Q141.13437 26.853127 141.04062 28.212502ZM160.55624 32.821877L160.80624 34.384377Q160.07187 34.540627 159.47812 34.540627Q158.525 34.540627 157.99374 34.24375Q157.47812 33.93125 157.25937 33.446877Q157.04062 32.946877 157.04062 31.368752L157.04062 25.400002L155.75937 25.400002L155.75937 24.025002L157.04062 24.025002L157.04062 21.462502L158.79062 20.400002L158.79062 24.025002L160.55624 24.025002L160.55624 25.400002L158.79062 25.400002L158.79062 31.462502Q158.79062 32.2125 158.88437 32.43125Q158.97812 32.634377 159.18124 32.775Q159.4 32.9 159.79062 32.9Q160.07187 32.9 160.55624 32.821877ZM162.7125 34.4L162.7125 20.087502L164.47812 20.087502L164.47812 25.212502Q165.7125 23.790627 167.5875 23.790627Q168.72812 23.790627 169.57187 24.243752Q170.43124 24.696877 170.79062 25.509377Q171.16562 26.306252 171.16562 27.821877L171.16562 34.4L169.41562 34.4L169.41562 27.821877Q169.41562 26.509377 168.8375 25.915627Q168.25937 25.306252 167.22812 25.306252Q166.44687 25.306252 165.74374 25.712502Q165.05624 26.118752 164.75937 26.821877Q164.47812 27.509377 164.47812 28.728127L164.47812 34.4L162.7125 34.4ZM180.82187 31.056252L182.63437 31.290627Q182.2125 32.86875 181.04062 33.759377Q179.88437 34.634377 178.07187 34.634377Q175.80624 34.634377 174.4625 33.24375Q173.13437 31.837502 173.13437 29.306252Q173.13437 26.681252 174.47812 25.243752Q175.82187 23.790627 177.97812 23.790627Q180.05624 23.790627 181.36874 25.212502Q182.69687 26.618752 182.69687 29.196877Q182.69687 29.353127 182.68124 29.665627L174.94687 29.665627Q175.04062 31.368752 175.91562 32.275Q176.79062 33.18125 178.0875 33.18125Q179.05624 33.18125 179.72812 32.68125Q180.41562 32.165627 180.82187 31.056252ZM175.04062 28.212502L180.8375 28.212502Q180.72812 26.915627 180.18124 26.259377Q179.3375 25.243752 177.99374 25.243752Q176.79062 25.243752 175.9625 26.056252Q175.13437 26.853127 175.04062 28.212502ZM184.00937 31.306252L185.75937 31.025002Q185.9 32.071877 186.57187 32.634377Q187.24374 33.18125 188.44687 33.18125Q189.65 33.18125 190.22812 32.696877Q190.82187 32.196877 190.82187 31.540627Q190.82187 30.946877 190.30624 30.603127Q189.94687 30.368752 188.50937 30.009377Q186.57187 29.509377 185.82187 29.165627Q185.0875 28.806252 184.69687 28.181252Q184.30624 27.540627 184.30624 26.775002Q184.30624 26.087502 184.61874 25.493752Q184.94687 24.900002 185.49374 24.509377Q185.9 24.212502 186.60312 24.009377Q187.32187 23.790627 188.13437 23.790627Q189.35312 23.790627 190.275 24.150002Q191.19687 24.493752 191.63437 25.103127Q192.07187 25.696877 192.24374 26.696877L190.525 26.931252Q190.4 26.134377 189.8375 25.696877Q189.275 25.243752 188.25937 25.243752Q187.04062 25.243752 186.525 25.650002Q186.00937 26.040627 186.00937 26.571877Q186.00937 26.915627 186.22812 27.196877Q186.43124 27.478127 186.9 27.665627Q187.16562 27.759377 188.44687 28.103127Q190.32187 28.603127 191.05624 28.931252Q191.79062 29.243752 192.2125 29.853127Q192.63437 30.446877 192.63437 31.353127Q192.63437 32.228127 192.11874 33.009377Q191.60312 33.790627 190.63437 34.2125Q189.66562 34.634377 188.44687 34.634377Q186.43124 34.634377 185.36874 33.790627Q184.30624 32.946877 184.00937 31.306252ZM201.82187 31.056252L203.63437 31.290627Q203.2125 32.86875 202.04062 33.759377Q200.88437 34.634377 199.07187 34.634377Q196.80624 34.634377 195.4625 33.24375Q194.13437 31.837502 194.13437 29.306252Q194.13437 26.681252 195.47812 25.243752Q196.82187 23.790627 198.97812 23.790627Q201.05624 23.790627 202.36874 25.212502Q203.69687 26.618752 203.69687 29.196877Q203.69687 29.353127 203.68124 29.665627L195.94687 29.665627Q196.04062 31.368752 196.91562 32.275Q197.79062 33.18125 199.0875 33.18125Q200.05624 33.18125 200.72812 32.68125Q201.41562 32.165627 201.82187 31.056252ZM196.04062 28.212502L201.8375 28.212502Q201.72812 26.915627 201.18124 26.259377Q200.3375 25.243752 198.99374 25.243752Q197.79062 25.243752 196.9625 26.056252Q196.13437 26.853127 196.04062 28.212502ZM218.3375 38.36875L218.3375 33.290627Q217.91562 33.86875 217.18124 34.259377Q216.44687 34.634377 215.61874 34.634377Q213.775 34.634377 212.43124 33.165627Q211.10312 31.681252 211.10312 29.118752Q211.10312 27.556252 211.63437 26.321877Q212.18124 25.071877 213.2125 24.431252Q214.24374 23.790627 215.47812 23.790627Q217.4 23.790627 218.50937 25.415627L218.50937 24.025002L220.0875 24.025002L220.0875 38.36875L218.3375 38.36875ZM212.91562 29.181252Q212.91562 31.181252 213.74374 32.18125Q214.5875 33.18125 215.75937 33.18125Q216.88437 33.18125 217.69687 32.24375Q218.50937 31.290627 218.50937 29.337502Q218.50937 27.275002 217.65 26.228127Q216.79062 25.181252 215.65 25.181252Q214.50937 25.181252 213.7125 26.150002Q212.91562 27.118752 212.91562 29.181252ZM229.50937 34.4L229.50937 32.86875Q228.30624 34.634377 226.22812 34.634377Q225.30624 34.634377 224.50937 34.290627Q223.7125 33.93125 223.32187 33.4Q222.94687 32.86875 222.79062 32.0875Q222.68124 31.571877 222.68124 30.446877L222.68124 24.025002L224.43124 24.025002L224.43124 29.775002Q224.43124 31.150002 224.54062 31.634377Q224.7125 32.321877 225.24374 32.728127Q225.79062 33.11875 226.57187 33.11875Q227.36874 33.11875 228.05624 32.7125Q228.75937 32.30625 229.04062 31.618752Q229.3375 30.915627 229.3375 29.587502L229.3375 24.025002L231.0875 24.025002L231.0875 34.4L229.50937 34.4ZM240.82187 31.056252L242.63437 31.290627Q242.2125 32.86875 241.04062 33.759377Q239.88437 34.634377 238.07187 34.634377Q235.80624 34.634377 234.4625 33.24375Q233.13437 31.837502 233.13437 29.306252Q233.13437 26.681252 234.47812 25.243752Q235.82187 23.790627 237.97812 23.790627Q240.05624 23.790627 241.36874 25.212502Q242.69687 26.618752 242.69687 29.196877Q242.69687 29.353127 242.68124 29.665627L234.94687 29.665627Q235.04062 31.368752 235.91562 32.275Q236.79062 33.18125 238.0875 33.18125Q239.05624 33.18125 239.72812 32.68125Q240.41562 32.165627 240.82187 31.056252ZM235.04062 28.212502L240.8375 28.212502Q240.72812 26.915627 240.18124 26.259377Q239.3375 25.243752 237.99374 25.243752Q236.79062 25.243752 235.9625 26.056252Q235.13437 26.853127 235.04062 28.212502ZM244.00937 31.306252L245.75937 31.025002Q245.9 32.071877 246.57187 32.634377Q247.24374 33.18125 248.44687 33.18125Q249.65 33.18125 250.22812 32.696877Q250.82187 32.196877 250.82187 31.540627Q250.82187 30.946877 250.30624 30.603127Q249.94687 30.368752 248.50937 30.009377Q246.57187 29.509377 245.82187 29.165627Q245.0875 28.806252 244.69687 28.181252Q244.30624 27.540627 244.30624 26.775002Q244.30624 26.087502 244.61874 25.493752Q244.94687 24.900002 245.49374 24.509377Q245.9 24.212502 246.60312 24.009377Q247.32187 23.790627 248.13437 23.790627Q249.35312 23.790627 250.275 24.150002Q251.19687 24.493752 251.63437 25.103127Q252.07187 25.696877 252.24374 26.696877L250.525 26.931252Q250.4 26.134377 249.8375 25.696877Q249.275 25.243752 248.25937 25.243752Q247.04062 25.243752 246.525 25.650002Q246.00937 26.040627 246.00937 26.571877Q246.00937 26.915627 246.22812 27.196877Q246.43124 27.478127 246.9 27.665627Q247.16562 27.759377 248.44687 28.103127Q250.32187 28.603127 251.05624 28.931252Q251.79062 29.243752 252.2125 29.853127Q252.63437 30.446877 252.63437 31.353127Q252.63437 32.228127 252.11874 33.009377Q251.60312 33.790627 250.63437 34.2125Q249.66562 34.634377 248.44687 34.634377Q246.43124 34.634377 245.36874 33.790627Q244.30624 32.946877 244.00937 31.306252ZM258.55624 32.821877L258.80624 34.384377Q258.07187 34.540627 257.47812 34.540627Q256.525 34.540627 255.99374 34.24375Q255.47812 33.93125 255.25937 33.446877Q255.04062 32.946877 255.04062 31.368752L255.04062 25.400002L253.75937 25.400002L253.75937 24.025002L255.04062 24.025002L255.04062 21.462502L256.79062 20.400002L256.79062 24.025002L258.55624 24.025002L258.55624 25.400002L256.79062 25.400002L256.79062 31.462502Q256.79062 32.2125 256.88437 32.43125Q256.97812 32.634377 257.18124 32.775Q257.4 32.9 257.79062 32.9Q258.07187 32.9 258.55624 32.821877ZM260.72812 22.103127L260.72812 20.087502L262.49374 20.087502L262.49374 22.103127L260.72812 22.103127ZM260.72812 34.4L260.72812 24.025002L262.49374 24.025002L262.49374 34.4L260.72812 34.4ZM264.07187 29.212502Q264.07187 26.337502 265.66562 24.946877Q267.00937 23.790627 268.93124 23.790627Q271.07187 23.790627 272.41562 25.196877Q273.775 26.603127 273.775 29.071877Q273.775 31.071877 273.18124 32.228127Q272.5875 33.36875 271.43124 34.009377Q270.29062 34.634377 268.93124 34.634377Q266.74374 34.634377 265.4 33.24375Q264.07187 31.837502 264.07187 29.212502ZM265.86874 29.212502Q265.86874 31.212502 266.72812 32.196877Q267.60312 33.18125 268.93124 33.18125Q270.24374 33.18125 271.10312 32.196877Q271.97812 31.196877 271.97812 29.150002Q271.97812 27.228127 271.10312 26.243752Q270.22812 25.243752 268.93124 25.243752Q267.60312 25.243752 266.72812 26.243752Q265.86874 27.228127 265.86874 29.212502ZM275.7125 34.4L275.7125 24.025002L277.30624 24.025002L277.30624 25.509377Q278.44687 23.790627 280.60312 23.790627Q281.54062 23.790627 282.32187 24.134377Q283.11874 24.462502 283.50937 25.009377Q283.9 25.556252 284.05624 26.306252Q284.15 26.806252 284.15 28.025002L284.15 34.4L282.38437 34.4L282.38437 28.087502Q282.38437 27.009377 282.18124 26.478127Q281.97812 25.946877 281.44687 25.634377Q280.93124 25.321877 280.22812 25.321877Q279.10312 25.321877 278.29062 26.040627Q277.47812 26.743752 277.47812 28.728127L277.47812 34.4L275.7125 34.4ZM286.00937 31.306252L287.75937 31.025002Q287.9 32.071877 288.57187 32.634377Q289.24374 33.18125 290.44687 33.18125Q291.65 33.18125 292.22812 32.696877Q292.82187 32.196877 292.82187 31.540627Q292.82187 30.946877 292.30624 30.603127Q291.94687 30.368752 290.50937 30.009377Q288.57187 29.509377 287.82187 29.165627Q287.0875 28.806252 286.69687 28.181252Q286.30624 27.540627 286.30624 26.775002Q286.30624 26.087502 286.61874 25.493752Q286.94687 24.900002 287.49374 24.509377Q287.9 24.212502 288.60312 24.009377Q289.32187 23.790627 290.13437 23.790627Q291.35312 23.790627 292.275 24.150002Q293.19687 24.493752 293.63437 25.103127Q294.07187 25.696877 294.24374 26.696877L292.525 26.931252Q292.4 26.134377 291.8375 25.696877Q291.275 25.243752 290.25937 25.243752Q289.04062 25.243752 288.525 25.650002Q288.00937 26.040627 288.00937 26.571877Q288.00937 26.915627 288.22812 27.196877Q288.43124 27.478127 288.9 27.665627Q289.16562 27.759377 290.44687 28.103127Q292.32187 28.603127 293.05624 28.931252Q293.79062 29.243752 294.2125 29.853127Q294.63437 30.446877 294.63437 31.353127Q294.63437 32.228127 294.11874 33.009377Q293.60312 33.790627 292.63437 34.2125Q291.66562 34.634377 290.44687 34.634377Q288.43124 34.634377 287.36874 33.790627Q286.30624 32.946877 286.00937 31.306252ZM302.72812 22.103127L302.72812 20.087502L304.49374 20.087502L304.49374 22.103127L302.72812 22.103127ZM302.72812 34.4L302.72812 24.025002L304.49374 24.025002L304.49374 34.4L302.72812 34.4ZM306.7125 34.4L306.7125 24.025002L308.30624 24.025002L308.30624 25.509377Q309.44687 23.790627 311.60312 23.790627Q312.54062 23.790627 313.32187 24.134377Q314.11874 24.462502 314.50937 25.009377Q314.9 25.556252 315.05624 26.306252Q315.15 26.806252 315.15 28.025002L315.15 34.4L313.38437 34.4L313.38437 28.087502Q313.38437 27.009377 313.18124 26.478127Q312.97812 25.946877 312.44687 25.634377Q311.93124 25.321877 311.22812 25.321877Q310.10312 25.321877 309.29062 26.040627Q308.47812 26.743752 308.47812 28.728127L308.47812 34.4L306.7125 34.4ZM323.07187 29.212502Q323.07187 26.337502 324.66562 24.946877Q326.00937 23.790627 327.93124 23.790627Q330.07187 23.790627 331.41562 25.196877Q332.775 26.603127 332.775 29.071877Q332.775 31.071877 332.18124 32.228127Q331.5875 33.36875 330.43124 34.009377Q329.29062 34.634377 327.93124 34.634377Q325.74374 34.634377 324.4 33.24375Q323.07187 31.837502 323.07187 29.212502ZM324.86874 29.212502Q324.86874 31.212502 325.72812 32.196877Q326.60312 33.18125 327.93124 33.18125Q329.24374 33.18125 330.10312 32.196877Q330.97812 31.196877 330.97812 29.150002Q330.97812 27.228127 330.10312 26.243752Q329.22812 25.243752 327.93124 25.243752Q326.60312 25.243752 325.72812 26.243752Q324.86874 27.228127 324.86874 29.212502ZM341.50937 34.4L341.50937 32.86875Q340.30624 34.634377 338.22812 34.634377Q337.30624 34.634377 336.50937 34.290627Q335.7125 33.93125 335.32187 33.4Q334.94687 32.86875 334.79062 32.0875Q334.68124 31.571877 334.68124 30.446877L334.68124 24.025002L336.43124 24.025002L336.43124 29.775002Q336.43124 31.150002 336.54062 31.634377Q336.7125 32.321877 337.24374 32.728127Q337.79062 33.11875 338.57187 33.11875Q339.36874 33.11875 340.05624 32.7125Q340.75937 32.30625 341.04062 31.618752Q341.3375 30.915627 341.3375 29.587502L341.3375 24.025002L343.0875 24.025002L343.0875 34.4L341.50937 34.4ZM345.69687 34.4L345.69687 24.025002L347.275 24.025002L347.275 25.603127Q347.88437 24.493752 348.4 24.150002Q348.91562 23.790627 349.525 23.790627Q350.41562 23.790627 351.3375 24.353127L350.72812 25.993752Q350.0875 25.603127 349.44687 25.603127Q348.86874 25.603127 348.4 25.962502Q347.94687 26.306252 347.74374 26.915627Q347.4625 27.853127 347.4625 28.962502L347.4625 34.4L345.69687 34.4ZM360.63437 34.4L357.4625 24.025002L359.275 24.025002L360.93124 30.009377L361.54062 32.24375Q361.5875 32.071877 362.07187 30.103127L363.72812 24.025002L365.54062 24.025002L367.0875 30.040627L367.60312 32.025L368.19687 30.025002L369.97812 24.025002L371.68124 24.025002L368.44687 34.4L366.61874 34.4L364.9625 28.181252L364.57187 26.415627L362.4625 34.4L360.63437 34.4ZM372.07187 29.212502Q372.07187 26.337502 373.66562 24.946877Q375.00937 23.790627 376.93124 23.790627Q379.07187 23.790627 380.41562 25.196877Q381.775 26.603127 381.775 29.071877Q381.775 31.071877 381.18124 32.228127Q380.5875 33.36875 379.43124 34.009377Q378.29062 34.634377 376.93124 34.634377Q374.74374 34.634377 373.4 33.24375Q372.07187 31.837502 372.07187 29.212502ZM373.86874 29.212502Q373.86874 31.212502 374.72812 32.196877Q375.60312 33.18125 376.93124 33.18125Q378.24374 33.18125 379.10312 32.196877Q379.97812 31.196877 379.97812 29.150002Q379.97812 27.228127 379.10312 26.243752Q378.22812 25.243752 376.93124 25.243752Q375.60312 25.243752 374.72812 26.243752Q373.86874 27.228127 373.86874 29.212502ZM383.69687 34.4L383.69687 24.025002L385.275 24.025002L385.275 25.603127Q385.88437 24.493752 386.4 24.150002Q386.91562 23.790627 387.525 23.790627Q388.41562 23.790627 389.3375 24.353127L388.72812 25.993752Q388.0875 25.603127 387.44687 25.603127Q386.86874 25.603127 386.4 25.962502Q385.94687 26.306252 385.74374 26.915627Q385.4625 27.853127 385.4625 28.962502L385.4625 34.4L383.69687 34.4ZM390.72812 34.4L390.72812 20.087502L392.49374 20.087502L392.49374 28.243752L396.65 24.025002L398.91562 24.025002L394.9625 27.868752L399.32187 34.4L397.15 34.4L393.72812 29.103127L392.49374 30.290627L392.49374 34.4L390.72812 34.4ZM400.00937 31.306252L401.75937 31.025002Q401.9 32.071877 402.57187 32.634377Q403.24374 33.18125 404.44687 33.18125Q405.65 33.18125 406.22812 32.696877Q406.82187 32.196877 406.82187 31.540627Q406.82187 30.946877 406.30624 30.603127Q405.94687 30.368752 404.50937 30.009377Q402.57187 29.509377 401.82187 29.165627Q401.0875 28.806252 400.69687 28.181252Q400.30624 27.540627 400.30624 26.775002Q400.30624 26.087502 400.61874 25.493752Q400.94687 24.900002 401.49374 24.509377Q401.9 24.212502 402.60312 24.009377Q403.32187 23.790627 404.13437 23.790627Q405.35312 23.790627 406.275 24.150002Q407.19687 24.493752 407.63437 25.103127Q408.07187 25.696877 408.24374 26.696877L406.525 26.931252Q406.4 26.134377 405.8375 25.696877Q405.275 25.243752 404.25937 25.243752Q403.04062 25.243752 402.525 25.650002Q402.00937 26.040627 402.00937 26.571877Q402.00937 26.915627 402.22812 27.196877Q402.43124 27.478127 402.9 27.665627Q403.16562 27.759377 404.44687 28.103127Q406.32187 28.603127 407.05624 28.931252Q407.79062 29.243752 408.2125 29.853127Q408.63437 30.446877 408.63437 31.353127Q408.63437 32.228127 408.11874 33.009377Q407.60312 33.790627 406.63437 34.2125Q405.66562 34.634377 404.44687 34.634377Q402.43124 34.634377 401.36874 33.790627Q400.30624 32.946877 400.00937 31.306252ZM410.7125 34.4L410.7125 20.087502L412.47812 20.087502L412.47812 25.212502Q413.7125 23.790627 415.5875 23.790627Q416.72812 23.790627 417.57187 24.243752Q418.43124 24.696877 418.79062 25.509377Q419.16562 26.306252 419.16562 27.821877L419.16562 34.4L417.41562 34.4L417.41562 27.821877Q417.41562 26.509377 416.8375 25.915627Q416.25937 25.306252 415.22812 25.306252Q414.44687 25.306252 413.74374 25.712502Q413.05624 26.118752 412.75937 26.821877Q412.47812 27.509377 412.47812 28.728127L412.47812 34.4L410.7125 34.4ZM421.07187 29.212502Q421.07187 26.337502 422.66562 24.946877Q424.00937 23.790627 425.93124 23.790627Q428.07187 23.790627 429.41562 25.196877Q430.775 26.603127 430.775 29.071877Q430.775 31.071877 430.18124 32.228127Q429.5875 33.36875 428.43124 34.009377Q427.29062 34.634377 425.93124 34.634377Q423.74374 34.634377 422.4 33.24375Q421.07187 31.837502 421.07187 29.212502ZM422.86874 29.212502Q422.86874 31.212502 423.72812 32.196877Q424.60312 33.18125 425.93124 33.18125Q427.24374 33.18125 428.10312 32.196877Q428.97812 31.196877 428.97812 29.150002Q428.97812 27.228127 428.10312 26.243752Q427.22812 25.243752 425.93124 25.243752Q424.60312 25.243752 423.72812 26.243752Q422.86874 27.228127 422.86874 29.212502ZM432.7125 38.36875L432.7125 24.025002L434.32187 24.025002L434.32187 25.368752Q434.88437 24.587502 435.5875 24.196877Q436.30624 23.790627 437.32187 23.790627Q438.65 23.790627 439.66562 24.478127Q440.68124 25.165627 441.19687 26.415627Q441.72812 27.650002 441.72812 29.134377Q441.72812 30.728127 441.15 32.009377Q440.5875 33.275 439.49374 33.9625Q438.4 34.634377 437.19687 34.634377Q436.32187 34.634377 435.61874 34.259377Q434.93124 33.884377 434.47812 33.321877L434.47812 38.36875L432.7125 38.36875ZM434.30624 29.275002Q434.30624 31.275002 435.11874 32.228127Q435.93124 33.18125 437.0875 33.18125Q438.25937 33.18125 439.0875 32.196877Q439.93124 31.212502 439.93124 29.118752Q439.93124 27.150002 439.10312 26.165627Q438.29062 25.165627 437.16562 25.165627Q436.04062 25.165627 435.16562 26.228127Q434.30624 27.275002 434.30624 29.275002ZM447.00937 30.868752Q446.99374 30.525002 446.99374 30.353127Q446.99374 29.306252 447.29062 28.556252Q447.50937 27.993752 447.99374 27.415627Q448.3375 26.993752 449.24374 26.196877Q450.16562 25.384377 450.43124 24.915627Q450.7125 24.431252 450.7125 23.868752Q450.7125 22.837502 449.9 22.071877Q449.10312 21.290627 447.94687 21.290627Q446.82187 21.290627 446.07187 21.993752Q445.32187 22.696877 445.0875 24.181252L443.275 23.962502Q443.525 21.962502 444.72812 20.900002Q445.93124 19.837502 447.91562 19.837502Q450.025 19.837502 451.275 20.978127Q452.525 22.118752 452.525 23.743752Q452.525 24.681252 452.07187 25.478127Q451.63437 26.259377 450.35312 27.400002Q449.49374 28.165627 449.22812 28.525002Q448.97812 28.884377 448.8375 29.353127Q448.7125 29.821877 448.69687 30.868752L447.00937 30.868752ZM446.9 34.4L446.9 32.4L448.9 32.4L448.9 34.4L446.9 34.4Z" fill-rule="nonzero"/><path fill="#757575" d="M17.009375 58.4L17.009375 44.0875L18.9 44.0875L18.9 49.9625L26.3375 49.9625L26.3375 44.0875L28.228125 44.0875L28.228125 58.4L26.3375 58.4L26.3375 51.65L18.9 51.65L18.9 58.4L17.009375 58.4ZM30.071875 53.2125Q30.071875 50.3375 31.665625 48.946877Q33.009377 47.790627 34.93125 47.790627Q37.071877 47.790627 38.415627 49.196877Q39.775 50.603127 39.775 53.071877Q39.775 55.071877 39.18125 56.228127Q38.5875 57.36875 37.43125 58.009377Q36.290627 58.634377 34.93125 58.634377Q32.74375 58.634377 31.4 57.24375Q30.071875 55.8375 30.071875 53.2125ZM31.86875 53.2125Q31.86875 55.2125 32.728127 56.196877Q33.603127 57.18125 34.93125 57.18125Q36.24375 57.18125 37.103127 56.196877Q37.978127 55.196877 37.978127 53.15Q37.978127 51.228127 37.103127 50.24375Q36.228127 49.24375 34.93125 49.24375Q33.603127 49.24375 32.728127 50.24375Q31.86875 51.228127 31.86875 53.2125ZM43.634377 58.4L40.4625 48.025L42.275 48.025L43.93125 54.009377L44.540627 56.24375Q44.5875 56.071877 45.071877 54.103127L46.728127 48.025L48.540627 48.025L50.0875 54.040627L50.603127 56.025L51.196877 54.025L52.978127 48.025L54.68125 48.025L51.446877 58.4L49.61875 58.4L47.9625 52.18125L47.571877 50.415627L45.4625 58.4L43.634377 58.4ZM68.49375 54.603127L70.2125 54.821877Q69.93125 56.61875 68.75938 57.634377Q67.60313 58.634377 65.9 58.634377Q63.775 58.634377 62.478127 57.24375Q61.18125 55.853127 61.18125 53.259377Q61.18125 51.571877 61.728127 50.321877Q62.290627 49.05625 63.43125 48.43125Q64.57188 47.790627 65.91563 47.790627Q67.60313 47.790627 68.66563 48.65Q69.74375 49.509377 70.05625 51.071877L68.3375 51.3375Q68.10313 50.290627 67.47813 49.775Q66.85313 49.24375 65.97813 49.24375Q64.65 49.24375 63.821877 50.196877Q62.99375 51.15 62.99375 53.196877Q62.99375 55.290627 63.790627 56.24375Q64.5875 57.18125 65.88438 57.18125Q66.91563 57.18125 67.60313 56.55625Q68.30625 55.915627 68.49375 54.603127ZM78.49375 57.11875Q77.50938 57.946877 76.60313 58.290627Q75.69688 58.634377 74.66563 58.634377Q72.9625 58.634377 72.04063 57.80625Q71.11875 56.9625 71.11875 55.665627Q71.11875 54.9 71.4625 54.275Q71.82188 53.65 72.38438 53.275Q72.94688 52.884377 73.65 52.68125Q74.16563 52.55625 75.2125 52.415627Q77.3375 52.165627 78.3375 51.821877Q78.35313 51.4625 78.35313 51.353127Q78.35313 50.290627 77.85313 49.8375Q77.18125 49.24375 75.85313 49.24375Q74.60313 49.24375 74.00938 49.68125Q73.43125 50.11875 73.15 51.228127L71.43125 50.99375Q71.66563 49.884377 72.19688 49.2125Q72.72813 48.525 73.74375 48.165627Q74.75938 47.790627 76.10313 47.790627Q77.43125 47.790627 78.25938 48.103127Q79.0875 48.415627 79.47813 48.9Q79.86875 49.36875 80.025 50.0875Q80.11875 50.540627 80.11875 51.7125L80.11875 54.05625Q80.11875 56.509377 80.22813 57.165627Q80.3375 57.80625 80.68125 58.4L78.8375 58.4Q78.57188 57.853127 78.49375 57.11875ZM78.3375 53.196877Q77.38438 53.5875 75.4625 53.853127Q74.38438 54.009377 73.93125 54.2125Q73.49375 54.4 73.24375 54.775Q72.99375 55.15 72.99375 55.61875Q72.99375 56.321877 73.525 56.790627Q74.05625 57.259377 75.0875 57.259377Q76.10313 57.259377 76.88438 56.821877Q77.68125 56.36875 78.05625 55.603127Q78.3375 54.99375 78.3375 53.8375L78.3375 53.196877ZM82.7125 58.4L82.7125 48.025L84.30625 48.025L84.30625 49.509377Q85.44688 47.790627 87.60313 47.790627Q88.54063 47.790627 89.32188 48.134377Q90.11875 48.4625 90.50938 49.009377Q90.9 49.55625 91.05625 50.30625Q91.15 50.80625 91.15 52.025L91.15 58.4L89.38438 58.4L89.38438 52.0875Q89.38438 51.009377 89.18125 50.478127Q88.97813 49.946877 88.44688 49.634377Q87.93125 49.321877 87.22813 49.321877Q86.10313 49.321877 85.29063 50.040627Q84.47813 50.74375 84.47813 52.728127L84.47813 58.4L82.7125 58.4ZM101.63438 58.4L98.4625 48.025L100.275 48.025L101.93125 54.009377L102.54063 56.24375Q102.5875 56.071877 103.07188 54.103127L104.72813 48.025L106.54063 48.025L108.0875 54.040627L108.60313 56.025L109.19688 54.025L110.97813 48.025L112.68125 48.025L109.44688 58.4L107.61875 58.4L105.9625 52.18125L105.57188 50.415627L103.4625 58.4L101.63438 58.4ZM120.82188 55.05625L122.63438 55.290627Q122.2125 56.86875 121.04063 57.759377Q119.88438 58.634377 118.07188 58.634377Q115.80625 58.634377 114.4625 57.24375Q113.13438 55.8375 113.13438 53.30625Q113.13438 50.68125 114.47813 49.24375Q115.82188 47.790627 117.97813 47.790627Q120.05625 47.790627 121.36875 49.2125Q122.69688 50.61875 122.69688 53.196877Q122.69688 53.353127 122.68125 53.665627L114.94688 53.665627Q115.04063 55.36875 115.91563 56.275Q116.79063 57.18125 118.0875 57.18125Q119.05625 57.18125 119.72813 56.68125Q120.41563 56.165627 120.82188 55.05625ZM115.04063 52.2125L120.8375 52.2125Q120.72813 50.915627 120.18125 50.259377Q119.3375 49.24375 117.99375 49.24375Q116.79063 49.24375 115.9625 50.05625Q115.13438 50.853127 115.04063 52.2125ZM130.7125 58.4L130.7125 48.025L132.29062 48.025L132.29062 49.478127Q132.775 48.728127 133.5875 48.259377Q134.4 47.790627 135.43124 47.790627Q136.5875 47.790627 137.32187 48.275Q138.05624 48.74375 138.36874 49.603127Q139.60312 47.790627 141.57187 47.790627Q143.11874 47.790627 143.94687 48.65Q144.775 49.509377 144.775 51.275L144.775 58.4L143.025 58.4L143.025 51.86875Q143.025 50.80625 142.85312 50.353127Q142.68124 49.884377 142.22812 49.603127Q141.79062 49.321877 141.18124 49.321877Q140.0875 49.321877 139.35312 50.05625Q138.63437 50.775 138.63437 52.36875L138.63437 58.4L136.88437 58.4L136.88437 51.665627Q136.88437 50.49375 136.44687 49.915627Q136.025 49.321877 135.04062 49.321877Q134.30624 49.321877 133.66562 49.7125Q133.04062 50.103127 132.75937 50.853127Q132.47812 51.603127 132.47812 53.025L132.47812 58.4L130.7125 58.4ZM154.50937 58.4L154.50937 56.86875Q153.30624 58.634377 151.22812 58.634377Q150.30624 58.634377 149.50937 58.290627Q148.7125 57.93125 148.32187 57.4Q147.94687 56.86875 147.79062 56.0875Q147.68124 55.571877 147.68124 54.446877L147.68124 48.025L149.43124 48.025L149.43124 53.775Q149.43124 55.15 149.54062 55.634377Q149.7125 56.321877 150.24374 56.728127Q150.79062 57.11875 151.57187 57.11875Q152.36874 57.11875 153.05624 56.7125Q153.75937 56.30625 154.04062 55.61875Q154.3375 54.915627 154.3375 53.5875L154.3375 48.025L156.0875 48.025L156.0875 58.4L154.50937 58.4ZM158.68124 58.4L158.68124 44.0875L160.43124 44.0875L160.43124 58.4L158.68124 58.4ZM166.55624 56.821877L166.80624 58.384377Q166.07187 58.540627 165.47812 58.540627Q164.525 58.540627 163.99374 58.24375Q163.47812 57.93125 163.25937 57.446877Q163.04062 56.946877 163.04062 55.36875L163.04062 49.4L161.75937 49.4L161.75937 48.025L163.04062 48.025L163.04062 45.4625L164.79062 44.4L164.79062 48.025L166.55624 48.025L166.55624 49.4L164.79062 49.4L164.79062 55.4625Q164.79062 56.2125 164.88437 56.43125Q164.97812 56.634377 165.18124 56.775Q165.4 56.9 165.79062 56.9Q166.07187 56.9 166.55624 56.821877ZM168.72812 46.103127L168.72812 44.0875L170.49374 44.0875L170.49374 46.103127L168.72812 46.103127ZM168.72812 58.4L168.72812 48.025L170.49374 48.025L170.49374 58.4L168.72812 58.4ZM176.55624 56.821877L176.80624 58.384377Q176.07187 58.540627 175.47812 58.540627Q174.525 58.540627 173.99374 58.24375Q173.47812 57.93125 173.25937 57.446877Q173.04062 56.946877 173.04062 55.36875L173.04062 49.4L171.75937 49.4L171.75937 48.025L173.04062 48.025L173.04062 45.4625L174.79062 44.4L174.79062 48.025L176.55624 48.025L176.55624 49.4L174.79062 49.4L174.79062 55.4625Q174.79062 56.2125 174.88437 56.43125Q174.97812 56.634377 175.18124 56.775Q175.4 56.9 175.79062 56.9Q176.07187 56.9 176.55624 56.821877ZM185.49374 57.11875Q184.50937 57.946877 183.60312 58.290627Q182.69687 58.634377 181.66562 58.634377Q179.9625 58.634377 179.04062 57.80625Q178.11874 56.9625 178.11874 55.665627Q178.11874 54.9 178.4625 54.275Q178.82187 53.65 179.38437 53.275Q179.94687 52.884377 180.65 52.68125Q181.16562 52.55625 182.2125 52.415627Q184.3375 52.165627 185.3375 51.821877Q185.35312 51.4625 185.35312 51.353127Q185.35312 50.290627 184.85312 49.8375Q184.18124 49.24375 182.85312 49.24375Q181.60312 49.24375 181.00937 49.68125Q180.43124 50.11875 180.15 51.228127L178.43124 50.99375Q178.66562 49.884377 179.19687 49.2125Q179.72812 48.525 180.74374 48.165627Q181.75937 47.790627 183.10312 47.790627Q184.43124 47.790627 185.25937 48.103127Q186.0875 48.415627 186.47812 48.9Q186.86874 49.36875 187.025 50.0875Q187.11874 50.540627 187.11874 51.7125L187.11874 54.05625Q187.11874 56.509377 187.22812 57.165627Q187.3375 57.80625 187.68124 58.4L185.8375 58.4Q185.57187 57.853127 185.49374 57.11875ZM185.3375 53.196877Q184.38437 53.5875 182.4625 53.853127Q181.38437 54.009377 180.93124 54.2125Q180.49374 54.4 180.24374 54.775Q179.99374 55.15 179.99374 55.61875Q179.99374 56.321877 180.525 56.790627Q181.05624 57.259377 182.0875 57.259377Q183.10312 57.259377 183.88437 56.821877Q184.68124 56.36875 185.05624 55.603127Q185.3375 54.99375 185.3375 53.8375L185.3375 53.196877ZM189.00937 55.30625L190.75937 55.025Q190.9 56.071877 191.57187 56.634377Q192.24374 57.18125 193.44687 57.18125Q194.65 57.18125 195.22812 56.696877Q195.82187 56.196877 195.82187 55.540627Q195.82187 54.946877 195.30624 54.603127Q194.94687 54.36875 193.50937 54.009377Q191.57187 53.509377 190.82187 53.165627Q190.0875 52.80625 189.69687 52.18125Q189.30624 51.540627 189.30624 50.775Q189.30624 50.0875 189.61874 49.49375Q189.94687 48.9 190.49374 48.509377Q190.9 48.2125 191.60312 48.009377Q192.32187 47.790627 193.13437 47.790627Q194.35312 47.790627 195.275 48.15Q196.19687 48.49375 196.63437 49.103127Q197.07187 49.696877 197.24374 50.696877L195.525 50.93125Q195.4 50.134377 194.8375 49.696877Q194.275 49.24375 193.25937 49.24375Q192.04062 49.24375 191.525 49.65Q191.00937 50.040627 191.00937 50.571877Q191.00937 50.915627 191.22812 51.196877Q191.43124 51.478127 191.9 51.665627Q192.16562 51.759377 193.44687 52.103127Q195.32187 52.603127 196.05624 52.93125Q196.79062 53.24375 197.2125 53.853127Q197.63437 54.446877 197.63437 55.353127Q197.63437 56.228127 197.11874 57.009377Q196.60312 57.790627 195.63437 58.2125Q194.66562 58.634377 193.44687 58.634377Q191.43124 58.634377 190.36874 57.790627Q189.30624 56.946877 189.00937 55.30625ZM199.72812 58.4L199.72812 44.0875L201.49374 44.0875L201.49374 52.24375L205.65 48.025L207.91562 48.025L203.9625 51.86875L208.32187 58.4L206.15 58.4L202.72812 53.103127L201.49374 54.290627L201.49374 58.4L199.72812 58.4ZM213.00937 54.86875Q212.99374 54.525 212.99374 54.353127Q212.99374 53.30625 213.29062 52.55625Q213.50937 51.99375 213.99374 51.415627Q214.3375 50.99375 215.24374 50.196877Q216.16562 49.384377 216.43124 48.915627Q216.7125 48.43125 216.7125 47.86875Q216.7125 46.8375 215.9 46.071877Q215.10312 45.290627 213.94687 45.290627Q212.82187 45.290627 212.07187 45.99375Q211.32187 46.696877 211.0875 48.18125L209.275 47.9625Q209.525 45.9625 210.72812 44.9Q211.93124 43.8375 213.91562 43.8375Q216.025 43.8375 217.275 44.978127Q218.525 46.11875 218.525 47.74375Q218.525 48.68125 218.07187 49.478127Q217.63437 50.259377 216.35312 51.4Q215.49374 52.165627 215.22812 52.525Q214.97812 52.884377 214.8375 53.353127Q214.7125 53.821877 214.69687 54.86875L213.00937 54.86875ZM212.9 58.4L212.9 56.4L214.9 56.4L214.9 58.4L212.9 58.4Z" fill-rule="nonzero"/></svg>