<svg version="1.1" viewBox="0.0 0.0 497.0 308.0" fill="none" stroke="none" stroke-linecap="square" stroke-miterlimit="10" width="497" height="308" xmlns:xlink="http://www.w3.org/1999/xlink" xmlns="http://www.w3.org/2000/svg"><path fill="#ffffff" d="M0 0L497.0 0L497.0 308.0L0 308.0L0 0Z" fill-rule="nonzero"/><path fill="#a42f25" d="M369.96667 180.24333C369.96667 227.20227 315.5842 265.27 248.5 265.27C181.41582 265.27 127.03333 227.20227 127.03333 180.24333L127.03333 162.02333C127.03333 208.98227 181.41582 247.05 248.5 247.05C315.5842 247.05 369.96667 208.98227 369.96667 162.02333Z" fill-rule="nonzero"/><path fill="#a42f25" d="M187.76666 162.02333C187.76666 138.54387 214.9579 119.51 248.5 119.51C282.04208 119.51 309.23334 138.54387 309.23334 162.02333L309.23334 180.24333C309.23334 156.76387 282.04208 137.73 248.5 137.73C214.9579 137.73 187.76666 156.76387 187.76666 180.24333Z" fill-rule="nonzero"/><path fill="#ea4335" d="M248.5 76.996666C315.5842 76.996666 369.96667 115.0644 369.96667 162.02333C369.96667 208.98227 315.5842 247.05 248.5 247.05C181.41582 247.05 127.03333 208.98227 127.03333 162.02333C127.03333 115.0644 181.41582 76.996666 248.5 76.996666L248.5 119.51C214.9579 119.51 187.76666 138.54387 187.76666 162.02333C187.76666 185.50279 214.9579 204.53667 248.5 204.53667C282.04208 204.53667 309.23334 185.50279 309.23334 162.02333C309.23334 138.54387 282.04208 119.51 248.5 119.51Z" fill-rule="nonzero"/><path fill="#1a1a1a" d="M463.94376 238.29866L463.94376 234.65804L460.63126 229.70491L462.02188 229.70491L463.70938 232.29866Q464.17813 233.01741 464.58438 233.75179Q464.975 233.07991 465.52188 232.23616L467.19376 229.70491L468.50626 229.70491L465.08438 234.65804L465.08438 238.29866L463.94376 238.29866ZM473.64688 236.29866L474.74063 236.42366Q474.49063 237.37679 473.7875 237.90804Q473.08438 238.43929 472.00626 238.43929Q470.64688 238.43929 469.83438 237.59554Q469.0375 236.75179 469.0375 235.23616Q469.0375 233.67366 469.85 232.81429Q470.6625 231.93929 471.94376 231.93929Q473.19376 231.93929 473.975 232.78304Q474.77188 233.62679 474.77188 235.17366Q474.77188 235.26741 474.77188 235.45491L470.13126 235.45491Q470.19376 236.48616 470.70938 237.03304Q471.225 237.56429 472.00626 237.56429Q472.58438 237.56429 472.99063 237.26741Q473.4125 236.95491 473.64688 236.29866ZM470.19376 234.59554L473.6625 234.59554Q473.6 233.79866 473.27188 233.40804Q472.75626 232.79866 471.95938 232.79866Q471.225 232.79866 470.725 233.28304Q470.24063 233.76741 470.19376 234.59554ZM475.975 236.43929L477.00626 236.28304Q477.1 236.90804 477.49063 237.23616Q477.89688 237.56429 478.63126 237.56429Q479.35 237.56429 479.69376 237.28304Q480.05313 236.98616 480.05313 236.57991Q480.05313 236.22054 479.74063 236.01741Q479.52188 235.87679 478.6625 235.65804Q477.50626 235.36116 477.05313 235.15804Q476.61563 234.93929 476.38126 234.56429Q476.14688 234.18929 476.14688 233.72054Q476.14688 233.31429 476.33438 232.95491Q476.52188 232.59554 476.85 232.36116Q477.1 232.18929 477.52188 232.06429Q477.94376 231.93929 478.44376 231.93929Q479.1625 231.93929 479.70938 232.15804Q480.27188 232.36116 480.5375 232.72054Q480.80313 233.07991 480.89688 233.67366L479.86563 233.81429Q479.80313 233.34554 479.45938 233.07991Q479.13126 232.79866 478.50626 232.79866Q477.7875 232.79866 477.475 233.04866Q477.1625 233.28304 477.1625 233.61116Q477.1625 233.81429 477.2875 233.97054Q477.42813 234.14241 477.69376 234.25179Q477.85 234.31429 478.63126 234.51741Q479.75626 234.82991 480.19376 235.01741Q480.63126 235.20491 480.88126 235.56429Q481.13126 235.92366 481.13126 236.47054Q481.13126 237.00179 480.81876 237.47054Q480.52188 237.92366 479.94376 238.18929Q479.36563 238.43929 478.63126 238.43929Q477.4125 238.43929 476.77188 237.93929Q476.14688 237.42366 475.975 236.43929Z" fill-rule="nonzero"/><path fill="#9e9e9e" d="M444.06876 255.29866L443.02188 255.29866L443.02188 248.57991Q442.63126 248.93929 442.00626 249.31429Q441.39688 249.67366 440.9125 249.84554L440.9125 248.82991Q441.7875 248.40804 442.44376 247.82991Q443.11563 247.23616 443.39688 246.67366L444.06876 246.67366L444.06876 255.29866ZM447.1 251.06429Q447.1 249.53304 447.4125 248.61116Q447.725 247.67366 448.33438 247.17366Q448.95938 246.67366 449.89688 246.67366Q450.58438 246.67366 451.1 246.95491Q451.63126 247.23616 451.975 247.76741Q452.31876 248.28304 452.50626 249.03304Q452.69376 249.78304 452.69376 251.06429Q452.69376 252.57991 452.38126 253.50179Q452.08438 254.42366 451.45938 254.93929Q450.85 255.43929 449.89688 255.43929Q448.6625 255.43929 447.94376 254.54866Q447.1 253.48616 447.1 251.06429ZM448.17813 251.06429Q448.17813 253.17366 448.67813 253.87679Q449.17813 254.57991 449.89688 254.57991Q450.63126 254.57991 451.11563 253.87679Q451.61563 253.17366 451.61563 251.06429Q451.61563 248.93929 451.11563 248.25179Q450.63126 247.54866 449.88126 247.54866Q449.1625 247.54866 448.725 248.15804Q448.17813 248.93929 448.17813 251.06429ZM454.1 251.06429Q454.1 249.53304 454.4125 248.61116Q454.725 247.67366 455.33438 247.17366Q455.95938 246.67366 456.89688 246.67366Q457.58438 246.67366 458.1 246.95491Q458.63126 247.23616 458.975 247.76741Q459.31876 248.28304 459.50626 249.03304Q459.69376 249.78304 459.69376 251.06429Q459.69376 252.57991 459.38126 253.50179Q459.08438 254.42366 458.45938 254.93929Q457.85 255.43929 456.89688 255.43929Q455.6625 255.43929 454.94376 254.54866Q454.1 253.48616 454.1 251.06429ZM455.17813 251.06429Q455.17813 253.17366 455.67813 253.87679Q456.17813 254.57991 456.89688 254.57991Q457.63126 254.57991 458.11563 253.87679Q458.61563 253.17366 458.61563 251.06429Q458.61563 248.93929 458.11563 248.25179Q457.63126 247.54866 456.88126 247.54866Q456.1625 247.54866 455.725 248.15804Q455.17813 248.93929 455.17813 251.06429ZM461.69376 255.29866L461.69376 254.09554L462.89688 254.09554L462.89688 255.29866L461.69376 255.29866ZM464.1 251.06429Q464.1 249.53304 464.4125 248.61116Q464.725 247.67366 465.33438 247.17366Q465.95938 246.67366 466.89688 246.67366Q467.58438 246.67366 468.1 246.95491Q468.63126 247.23616 468.975 247.76741Q469.31876 248.28304 469.50626 249.03304Q469.69376 249.78304 469.69376 251.06429Q469.69376 252.57991 469.38126 253.50179Q469.08438 254.42366 468.45938 254.93929Q467.85 255.43929 466.89688 255.43929Q465.6625 255.43929 464.94376 254.54866Q464.1 253.48616 464.1 251.06429ZM465.17813 251.06429Q465.17813 253.17366 465.67813 253.87679Q466.17813 254.57991 466.89688 254.57991Q467.63126 254.57991 468.11563 253.87679Q468.61563 253.17366 468.61563 251.06429Q468.61563 248.93929 468.11563 248.25179Q467.63126 247.54866 466.88126 247.54866Q466.1625 247.54866 465.725 248.15804Q465.17813 248.93929 465.17813 251.06429ZM471.30313 248.76741Q471.30313 247.84554 471.75626 247.20491Q472.225 246.56429 473.1 246.56429Q473.9125 246.56429 474.44376 247.14241Q474.975 247.72054 474.975 248.82991Q474.975 249.92366 474.42813 250.51741Q473.89688 251.09554 473.11563 251.09554Q472.33438 251.09554 471.81876 250.51741Q471.30313 249.93929 471.30313 248.76741ZM473.13126 247.28304Q472.74063 247.28304 472.475 247.62679Q472.225 247.97054 472.225 248.87679Q472.225 249.70491 472.475 250.04866Q472.74063 250.37679 473.13126 250.37679Q473.5375 250.37679 473.7875 250.03304Q474.05313 249.68929 474.05313 248.79866Q474.05313 247.95491 473.7875 247.62679Q473.52188 247.28304 473.13126 247.28304ZM473.13126 255.61116L477.83438 246.56429L478.69376 246.56429L474.00626 255.61116L473.13126 255.61116ZM476.85 253.28304Q476.85 252.36116 477.30313 251.72054Q477.77188 251.07991 478.6625 251.07991Q479.475 251.07991 480.00626 251.65804Q480.5375 252.22054 480.5375 253.34554Q480.5375 254.43929 479.99063 255.03304Q479.45938 255.61116 478.6625 255.61116Q477.89688 255.61116 477.36563 255.03304Q476.85 254.45491 476.85 253.28304ZM478.69376 251.79866Q478.2875 251.79866 478.02188 252.14241Q477.77188 252.48616 477.77188 253.39241Q477.77188 254.20491 478.0375 254.54866Q478.30313 254.89241 478.69376 254.89241Q479.08438 254.89241 479.35 254.54866Q479.61563 254.20491 479.61563 253.29866Q479.61563 252.47054 479.35 252.14241Q479.08438 251.79866 478.69376 251.79866Z" fill-rule="nonzero"/><path stroke="#757575" stroke-width="1.0" stroke-linecap="butt" d="M481.6 242.79866L375.96667 242.79866L248.5 242.79866" fill-rule="nonzero"/><path fill="#9e9e9e" d="M250.5 242.79866C250.5 241.69409 249.60457 240.79866 248.5 240.79866C247.39543 240.79866 246.5 241.69409 246.5 242.79866C246.5 243.90323 247.39543 244.79866 248.5 244.79866C249.60457 244.79866 250.5 243.90323 250.5 242.79866" fill-rule="nonzero"/><path fill="#757575" d="M16.946875 34.4L16.946875 20.087502L21.86875 20.087502Q23.540625 20.087502 24.43125 20.290627Q25.65 20.571877 26.525 21.306252Q27.65 22.275002 28.2125 23.759377Q28.775 25.243752 28.775 27.165627Q28.775 28.790627 28.4 30.056252Q28.025 31.306252 27.415625 32.134377Q26.821875 32.9625 26.11875 33.446877Q25.415625 33.915627 24.415625 34.165627Q23.415625 34.4 22.103125 34.4L16.946875 34.4ZM18.8375 32.7125L21.9 32.7125Q23.30625 32.7125 24.103125 32.446877Q24.915625 32.18125 25.4 31.696877Q26.071875 31.025002 26.446875 29.900002Q26.821875 28.759377 26.821875 27.134377Q26.821875 24.884377 26.0875 23.681252Q25.353125 22.478127 24.290625 22.071877Q23.540625 21.775002 21.853125 21.775002L18.8375 21.775002L18.8375 32.7125ZM30.071875 29.212502Q30.071875 26.337502 31.665625 24.946877Q33.009377 23.790627 34.93125 23.790627Q37.071877 23.790627 38.415627 25.196877Q39.775 26.603127 39.775 29.071877Q39.775 31.071877 39.18125 32.228127Q38.5875 33.36875 37.43125 34.009377Q36.290627 34.634377 34.93125 34.634377Q32.74375 34.634377 31.4 33.24375Q30.071875 31.837502 30.071875 29.212502ZM31.86875 29.212502Q31.86875 31.212502 32.728127 32.196877Q33.603127 33.18125 34.93125 33.18125Q36.24375 33.18125 37.103127 32.196877Q37.978127 31.196877 37.978127 29.150002Q37.978127 27.228127 37.103127 26.243752Q36.228127 25.243752 34.93125 25.243752Q33.603127 25.243752 32.728127 26.243752Q31.86875 27.228127 31.86875 29.212502ZM49.634377 34.4L46.4625 24.025002L48.275 24.025002L49.93125 30.009377L50.540627 32.24375Q50.5875 32.071877 51.071877 30.103127L52.728127 24.025002L54.540627 24.025002L56.0875 30.040627L56.603127 32.025L57.196877 30.025002L58.978127 24.025002L60.68125 24.025002L57.446877 34.4L55.61875 34.4L53.9625 28.181252L53.571877 26.415627L51.4625 34.4L49.634377 34.4ZM68.49375 33.11875Q67.50938 33.946877 66.60313 34.290627Q65.69688 34.634377 64.66563 34.634377Q62.9625 34.634377 62.040627 33.80625Q61.11875 32.9625 61.11875 31.665627Q61.11875 30.900002 61.4625 30.275002Q61.821877 29.650002 62.384377 29.275002Q62.946877 28.884377 63.65 28.681252Q64.16563 28.556252 65.2125 28.415627Q67.3375 28.165627 68.3375 27.821877Q68.35313 27.462502 68.35313 27.353127Q68.35313 26.290627 67.85313 25.837502Q67.18125 25.243752 65.85313 25.243752Q64.60313 25.243752 64.00938 25.681252Q63.43125 26.118752 63.15 27.228127L61.43125 26.993752Q61.665627 25.884377 62.196877 25.212502Q62.728127 24.525002 63.74375 24.165627Q64.75938 23.790627 66.10313 23.790627Q67.43125 23.790627 68.25938 24.103127Q69.0875 24.415627 69.47813 24.900002Q69.86875 25.368752 70.025 26.087502Q70.11875 26.540627 70.11875 27.712502L70.11875 30.056252Q70.11875 32.509377 70.22813 33.165627Q70.3375 33.80625 70.68125 34.4L68.8375 34.4Q68.57188 33.853127 68.49375 33.11875ZM68.3375 29.196877Q67.38438 29.587502 65.4625 29.853127Q64.38438 30.009377 63.93125 30.212502Q63.49375 30.400002 63.24375 30.775002Q62.99375 31.150002 62.99375 31.618752Q62.99375 32.321877 63.525 32.790627Q64.05625 33.259377 65.0875 33.259377Q66.10313 33.259377 66.88438 32.821877Q67.68125 32.36875 68.05625 31.603127Q68.3375 30.993752 68.3375 29.837502L68.3375 29.196877ZM72.7125 34.4L72.7125 24.025002L74.30625 24.025002L74.30625 25.509377Q75.44688 23.790627 77.60313 23.790627Q78.54063 23.790627 79.32188 24.134377Q80.11875 24.462502 80.50938 25.009377Q80.9 25.556252 81.05625 26.306252Q81.15 26.806252 81.15 28.025002L81.15 34.4L79.38438 34.4L79.38438 28.087502Q79.38438 27.009377 79.18125 26.478127Q78.97813 25.946877 78.44688 25.634377Q77.93125 25.321877 77.22813 25.321877Q76.10313 25.321877 75.29063 26.040627Q74.47813 26.743752 74.47813 28.728127L74.47813 34.4L72.7125 34.4ZM87.55625 32.821877L87.80625 34.384377Q87.07188 34.540627 86.47813 34.540627Q85.525 34.540627 84.99375 34.24375Q84.47813 33.93125 84.25938 33.446877Q84.04063 32.946877 84.04063 31.368752L84.04063 25.400002L82.75938 25.400002L82.75938 24.025002L84.04063 24.025002L84.04063 21.462502L85.79063 20.400002L85.79063 24.025002L87.55625 24.025002L87.55625 25.400002L85.79063 25.400002L85.79063 31.462502Q85.79063 32.2125 85.88438 32.43125Q85.97813 32.634377 86.18125 32.775Q86.4 32.9 86.79063 32.9Q87.07188 32.9 87.55625 32.821877ZM99.55625 32.821877L99.80625 34.384377Q99.07188 34.540627 98.47813 34.540627Q97.525 34.540627 96.99375 34.24375Q96.47813 33.93125 96.25938 33.446877Q96.04063 32.946877 96.04063 31.368752L96.04063 25.400002L94.75938 25.400002L94.75938 24.025002L96.04063 24.025002L96.04063 21.462502L97.79063 20.400002L97.79063 24.025002L99.55625 24.025002L99.55625 25.400002L97.79063 25.400002L97.79063 31.462502Q97.79063 32.2125 97.88438 32.43125Q97.97813 32.634377 98.18125 32.775Q98.4 32.9 98.79063 32.9Q99.07188 32.9 99.55625 32.821877ZM101.07188 29.212502Q101.07188 26.337502 102.66563 24.946877Q104.00938 23.790627 105.93125 23.790627Q108.07188 23.790627 109.41563 25.196877Q110.775 26.603127 110.775 29.071877Q110.775 31.071877 110.18125 32.228127Q109.5875 33.36875 108.43125 34.009377Q107.29063 34.634377 105.93125 34.634377Q103.74375 34.634377 102.4 33.24375Q101.07188 31.837502 101.07188 29.212502ZM102.86875 29.212502Q102.86875 31.212502 103.72813 32.196877Q104.60313 33.18125 105.93125 33.18125Q107.24375 33.18125 108.10313 32.196877Q108.97813 31.196877 108.97813 29.150002Q108.97813 27.228127 108.10313 26.243752Q107.22813 25.243752 105.93125 25.243752Q104.60313 25.243752 103.72813 26.243752Q102.86875 27.228127 102.86875 29.212502ZM118.00938 31.306252L119.75938 31.025002Q119.9 32.071877 120.57188 32.634377Q121.24375 33.18125 122.44688 33.18125Q123.65 33.18125 124.22813 32.696877Q124.82188 32.196877 124.82188 31.540627Q124.82188 30.946877 124.30625 30.603127Q123.94688 30.368752 122.50938 30.009377Q120.57188 29.509377 119.82188 29.165627Q119.0875 28.806252 118.69688 28.181252Q118.30625 27.540627 118.30625 26.775002Q118.30625 26.087502 118.61875 25.493752Q118.94688 24.900002 119.49375 24.509377Q119.9 24.212502 120.60313 24.009377Q121.32188 23.790627 122.13438 23.790627Q123.35313 23.790627 124.275 24.150002Q125.19688 24.493752 125.63438 25.103127Q126.07188 25.696877 126.24375 26.696877L124.525 26.931252Q124.4 26.134377 123.8375 25.696877Q123.275 25.243752 122.25938 25.243752Q121.04063 25.243752 120.525 25.650002Q120.00938 26.040627 120.00938 26.571877Q120.00938 26.915627 120.22813 27.196877Q120.43125 27.478127 120.9 27.665627Q121.16563 27.759377 122.44688 28.103127Q124.32188 28.603127 125.05625 28.931252Q125.79063 29.243752 126.2125 29.853127Q126.63438 30.446877 126.63438 31.353127Q126.63438 32.228127 126.11875 33.009377Q125.60313 33.790627 124.63438 34.2125Q123.66563 34.634377 122.44688 34.634377Q120.43125 34.634377 119.36875 33.790627Q118.30625 32.946877 118.00938 31.306252ZM135.82187 31.056252L137.63437 31.290627Q137.2125 32.86875 136.04062 33.759377Q134.88437 34.634377 133.07187 34.634377Q130.80624 34.634377 129.4625 33.24375Q128.13437 31.837502 128.13437 29.306252Q128.13437 26.681252 129.47812 25.243752Q130.82187 23.790627 132.97812 23.790627Q135.05624 23.790627 136.36874 25.212502Q137.69687 26.618752 137.69687 29.196877Q137.69687 29.353127 137.68124 29.665627L129.94687 29.665627Q130.04062 31.368752 130.91562 32.275Q131.79062 33.18125 133.0875 33.18125Q134.05624 33.18125 134.72812 32.68125Q135.41562 32.165627 135.82187 31.056252ZM130.04062 28.212502L135.8375 28.212502Q135.72812 26.915627 135.18124 26.259377Q134.3375 25.243752 132.99374 25.243752Q131.79062 25.243752 130.9625 26.056252Q130.13437 26.853127 130.04062 28.212502ZM146.82187 31.056252L148.63437 31.290627Q148.2125 32.86875 147.04062 33.759377Q145.88437 34.634377 144.07187 34.634377Q141.80624 34.634377 140.4625 33.24375Q139.13437 31.837502 139.13437 29.306252Q139.13437 26.681252 140.47812 25.243752Q141.82187 23.790627 143.97812 23.790627Q146.05624 23.790627 147.36874 25.212502Q148.69687 26.618752 148.69687 29.196877Q148.69687 29.353127 148.68124 29.665627L140.94687 29.665627Q141.04062 31.368752 141.91562 32.275Q142.79062 33.18125 144.0875 33.18125Q145.05624 33.18125 145.72812 32.68125Q146.41562 32.165627 146.82187 31.056252ZM141.04062 28.212502L146.8375 28.212502Q146.72812 26.915627 146.18124 26.259377Q145.3375 25.243752 143.99374 25.243752Q142.79062 25.243752 141.9625 26.056252Q141.13437 26.853127 141.04062 28.212502ZM160.55624 32.821877L160.80624 34.384377Q160.07187 34.540627 159.47812 34.540627Q158.525 34.540627 157.99374 34.24375Q157.47812 33.93125 157.25937 33.446877Q157.04062 32.946877 157.04062 31.368752L157.04062 25.400002L155.75937 25.400002L155.75937 24.025002L157.04062 24.025002L157.04062 21.462502L158.79062 20.400002L158.79062 24.025002L160.55624 24.025002L160.55624 25.400002L158.79062 25.400002L158.79062 31.462502Q158.79062 32.2125 158.88437 32.43125Q158.97812 32.634377 159.18124 32.775Q159.4 32.9 159.79062 32.9Q160.07187 32.9 160.55624 32.821877ZM162.7125 34.4L162.7125 20.087502L164.47812 20.087502L164.47812 25.212502Q165.7125 23.790627 167.5875 23.790627Q168.72812 23.790627 169.57187 24.243752Q170.43124 24.696877 170.79062 25.509377Q171.16562 26.306252 171.16562 27.821877L171.16562 34.4L169.41562 34.4L169.41562 27.821877Q169.41562 26.509377 168.8375 25.915627Q168.25937 25.306252 167.22812 25.306252Q166.44687 25.306252 165.74374 25.712502Q165.05624 26.118752 164.75937 26.821877Q164.47812 27.509377 164.47812 28.728127L164.47812 34.4L162.7125 34.4ZM180.82187 31.056252L182.63437 31.290627Q182.2125 32.86875 181.04062 33.759377Q179.88437 34.634377 178.07187 34.634377Q175.80624 34.634377 174.4625 33.24375Q173.13437 31.837502 173.13437 29.306252Q173.13437 26.681252 174.47812 25.243752Q175.82187 23.790627 177.97812 23.790627Q180.05624 23.790627 181.36874 25.212502Q182.69687 26.618752 182.69687 29.196877Q182.69687 29.353127 182.68124 29.665627L174.94687 29.665627Q175.04062 31.368752 175.91562 32.275Q176.79062 33.18125 178.0875 33.18125Q179.05624 33.18125 179.72812 32.68125Q180.41562 32.165627 180.82187 31.056252ZM175.04062 28.212502L180.8375 28.212502Q180.72812 26.915627 180.18124 26.259377Q179.3375 25.243752 177.99374 25.243752Q176.79062 25.243752 175.9625 26.056252Q175.13437 26.853127 175.04062 28.212502ZM184.00937 31.306252L185.75937 31.025002Q185.9 32.071877 186.57187 32.634377Q187.24374 33.18125 188.44687 33.18125Q189.65 33.18125 190.22812 32.696877Q190.82187 32.196877 190.82187 31.540627Q190.82187 30.946877 190.30624 30.603127Q189.94687 30.368752 188.50937 30.009377Q186.57187 29.509377 185.82187 29.165627Q185.0875 28.806252 184.69687 28.181252Q184.30624 27.540627 184.30624 26.775002Q184.30624 26.087502 184.61874 25.493752Q184.94687 24.900002 185.49374 24.509377Q185.9 24.212502 186.60312 24.009377Q187.32187 23.790627 188.13437 23.790627Q189.35312 23.790627 190.275 24.150002Q191.19687 24.493752 191.63437 25.103127Q192.07187 25.696877 192.24374 26.696877L190.525 26.931252Q190.4 26.134377 189.8375 25.696877Q189.275 25.243752 188.25937 25.243752Q187.04062 25.243752 186.525 25.650002Q186.00937 26.040627 186.00937 26.571877Q186.00937 26.915627 186.22812 27.196877Q186.43124 27.478127 186.9 27.665627Q187.16562 27.759377 188.44687 28.103127Q190.32187 28.603127 191.05624 28.931252Q191.79062 29.243752 192.2125 29.853127Q192.63437 30.446877 192.63437 31.353127Q192.63437 32.228127 192.11874 33.009377Q191.60312 33.790627 190.63437 34.2125Q189.66562 34.634377 188.44687 34.634377Q186.43124 34.634377 185.36874 33.790627Q184.30624 32.946877 184.00937 31.306252ZM201.82187 31.056252L203.63437 31.290627Q203.2125 32.86875 202.04062 33.759377Q200.88437 34.634377 199.07187 34.634377Q196.80624 34.634377 195.4625 33.24375Q194.13437 31.837502 194.13437 29.306252Q194.13437 26.681252 195.47812 25.243752Q196.82187 23.790627 198.97812 23.790627Q201.05624 23.790627 202.36874 25.212502Q203.69687 26.618752 203.69687 29.196877Q203.69687 29.353127 203.68124 29.665627L195.94687 29.665627Q196.04062 31.368752 196.91562 32.275Q197.79062 33.18125 199.0875 33.18125Q200.05624 33.18125 200.72812 32.68125Q201.41562 32.165627 201.82187 31.056252ZM196.04062 28.212502L201.8375 28.212502Q201.72812 26.915627 201.18124 26.259377Q200.3375 25.243752 198.99374 25.243752Q197.79062 25.243752 196.9625 26.056252Q196.13437 26.853127 196.04062 28.212502ZM218.3375 38.36875L218.3375 33.290627Q217.91562 33.86875 217.18124 34.259377Q216.44687 34.634377 215.61874 34.634377Q213.775 34.634377 212.43124 33.165627Q211.10312 31.681252 211.10312 29.118752Q211.10312 27.556252 211.63437 26.321877Q212.18124 25.071877 213.2125 24.431252Q214.24374 23.790627 215.47812 23.790627Q217.4 23.790627 218.50937 25.415627L218.50937 24.025002L220.0875 24.025002L220.0875 38.36875L218.3375 38.36875ZM212.91562 29.181252Q212.91562 31.181252 213.74374 32.18125Q214.5875 33.18125 215.75937 33.18125Q216.88437 33.18125 217.69687 32.24375Q218.50937 31.290627 218.50937 29.337502Q218.50937 27.275002 217.65 26.228127Q216.79062 25.181252 215.65 25.181252Q214.50937 25.181252 213.7125 26.150002Q212.91562 27.118752 212.91562 29.181252ZM229.50937 34.4L229.50937 32.86875Q228.30624 34.634377 226.22812 34.634377Q225.30624 34.634377 224.50937 34.290627Q223.7125 33.93125 223.32187 33.4Q222.94687 32.86875 222.79062 32.0875Q222.68124 31.571877 222.68124 30.446877L222.68124 24.025002L224.43124 24.025002L224.43124 29.775002Q224.43124 31.150002 224.54062 31.634377Q224.7125 32.321877 225.24374 32.728127Q225.79062 33.11875 226.57187 33.11875Q227.36874 33.11875 228.05624 32.7125Q228.75937 32.30625 229.04062 31.618752Q229.3375 30.915627 229.3375 29.587502L229.3375 24.025002L231.0875 24.025002L231.0875 34.4L229.50937 34.4ZM240.82187 31.056252L242.63437 31.290627Q242.2125 32.86875 241.04062 33.759377Q239.88437 34.634377 238.07187 34.634377Q235.80624 34.634377 234.4625 33.24375Q233.13437 31.837502 233.13437 29.306252Q233.13437 26.681252 234.47812 25.243752Q235.82187 23.790627 237.97812 23.790627Q240.05624 23.790627 241.36874 25.212502Q242.69687 26.618752 242.69687 29.196877Q242.69687 29.353127 242.68124 29.665627L234.94687 29.665627Q235.04062 31.368752 235.91562 32.275Q236.79062 33.18125 238.0875 33.18125Q239.05624 33.18125 239.72812 32.68125Q240.41562 32.165627 240.82187 31.056252ZM235.04062 28.212502L240.8375 28.212502Q240.72812 26.915627 240.18124 26.259377Q239.3375 25.243752 237.99374 25.243752Q236.79062 25.243752 235.9625 26.056252Q235.13437 26.853127 235.04062 28.212502ZM244.00937 31.306252L245.75937 31.025002Q245.9 32.071877 246.57187 32.634377Q247.24374 33.18125 248.44687 33.18125Q249.65 33.18125 250.22812 32.696877Q250.82187 32.196877 250.82187 31.540627Q250.82187 30.946877 250.30624 30.603127Q249.94687 30.368752 248.50937 30.009377Q246.57187 29.509377 245.82187 29.165627Q245.0875 28.806252 244.69687 28.181252Q244.30624 27.540627 244.30624 26.775002Q244.30624 26.087502 244.61874 25.493752Q244.94687 24.900002 245.49374 24.509377Q245.9 24.212502 246.60312 24.009377Q247.32187 23.790627 248.13437 23.790627Q249.35312 23.790627 250.275 24.150002Q251.19687 24.493752 251.63437 25.103127Q252.07187 25.696877 252.24374 26.696877L250.525 26.931252Q250.4 26.134377 249.8375 25.696877Q249.275 25.243752 248.25937 25.243752Q247.04062 25.243752 246.525 25.650002Q246.00937 26.040627 246.00937 26.571877Q246.00937 26.915627 246.22812 27.196877Q246.43124 27.478127 246.9 27.665627Q247.16562 27.759377 248.44687 28.103127Q250.32187 28.603127 251.05624 28.931252Q251.79062 29.243752 252.2125 29.853127Q252.63437 30.446877 252.63437 31.353127Q252.63437 32.228127 252.11874 33.009377Q251.60312 33.790627 250.63437 34.2125Q249.66562 34.634377 248.44687 34.634377Q246.43124 34.634377 245.36874 33.790627Q244.30624 32.946877 244.00937 31.306252ZM258.55624 32.821877L258.80624 34.384377Q258.07187 34.540627 257.47812 34.540627Q256.525 34.540627 255.99374 34.24375Q255.47812 33.93125 255.25937 33.446877Q255.04062 32.946877 255.04062 31.368752L255.04062 25.400002L253.75937 25.400002L253.75937 24.025002L255.04062 24.025002L255.04062 21.462502L256.79062 20.400002L256.79062 24.025002L258.55624 24.025002L258.55624 25.400002L256.79062 25.400002L256.79062 31.462502Q256.79062 32.2125 256.88437 32.43125Q256.97812 32.634377 257.18124 32.775Q257.4 32.9 257.79062 32.9Q258.07187 32.9 258.55624 32.821877ZM260.72812 22.103127L260.72812 20.087502L262.49374 20.087502L262.49374 22.103127L260.72812 22.103127ZM260.72812 34.4L260.72812 24.025002L262.49374 24.025002L262.49374 34.4L260.72812 34.4ZM264.07187 29.212502Q264.07187 26.337502 265.66562 24.946877Q267.00937 23.790627 268.93124 23.790627Q271.07187 23.790627 272.41562 25.196877Q273.775 26.603127 273.775 29.071877Q273.775 31.071877 273.18124 32.228127Q272.5875 33.36875 271.43124 34.009377Q270.29062 34.634377 268.93124 34.634377Q266.74374 34.634377 265.4 33.24375Q264.07187 31.837502 264.07187 29.212502ZM265.86874 29.212502Q265.86874 31.212502 266.72812 32.196877Q267.60312 33.18125 268.93124 33.18125Q270.24374 33.18125 271.10312 32.196877Q271.97812 31.196877 271.97812 29.150002Q271.97812 27.228127 271.10312 26.243752Q270.22812 25.243752 268.93124 25.243752Q267.60312 25.243752 266.72812 26.243752Q265.86874 27.228127 265.86874 29.212502ZM275.7125 34.4L275.7125 24.025002L277.30624 24.025002L277.30624 25.509377Q278.44687 23.790627 280.60312 23.790627Q281.54062 23.790627 282.32187 24.134377Q283.11874 24.462502 283.50937 25.009377Q283.9 25.556252 284.05624 26.306252Q284.15 26.806252 284.15 28.025002L284.15 34.4L282.38437 34.4L282.38437 28.087502Q282.38437 27.009377 282.18124 26.478127Q281.97812 25.946877 281.44687 25.634377Q280.93124 25.321877 280.22812 25.321877Q279.10312 25.321877 278.29062 26.040627Q277.47812 26.743752 277.47812 28.728127L277.47812 34.4L275.7125 34.4ZM286.00937 31.306252L287.75937 31.025002Q287.9 32.071877 288.57187 32.634377Q289.24374 33.18125 290.44687 33.18125Q291.65 33.18125 292.22812 32.696877Q292.82187 32.196877 292.82187 31.540627Q292.82187 30.946877 292.30624 30.603127Q291.94687 30.368752 290.50937 30.009377Q288.57187 29.509377 287.82187 29.165627Q287.0875 28.806252 286.69687 28.181252Q286.30624 27.540627 286.30624 26.775002Q286.30624 26.087502 286.61874 25.493752Q286.94687 24.900002 287.49374 24.509377Q287.9 24.212502 288.60312 24.009377Q289.32187 23.790627 290.13437 23.790627Q291.35312 23.790627 292.275 24.150002Q293.19687 24.493752 293.63437 25.103127Q294.07187 25.696877 294.24374 26.696877L292.525 26.931252Q292.4 26.134377 291.8375 25.696877Q291.275 25.243752 290.25937 25.243752Q289.04062 25.243752 288.525 25.650002Q288.00937 26.040627 288.00937 26.571877Q288.00937 26.915627 288.22812 27.196877Q288.43124 27.478127 288.9 27.665627Q289.16562 27.759377 290.44687 28.103127Q292.32187 28.603127 293.05624 28.931252Q293.79062 29.243752 294.2125 29.853127Q294.63437 30.446877 294.63437 31.353127Q294.63437 32.228127 294.11874 33.009377Q293.60312 33.790627 292.63437 34.2125Q291.66562 34.634377 290.44687 34.634377Q288.43124 34.634377 287.36874 33.790627Q286.30624 32.946877 286.00937 31.306252ZM302.72812 22.103127L302.72812 20.087502L304.49374 20.087502L304.49374 22.103127L302.72812 22.103127ZM302.72812 34.4L302.72812 24.025002L304.49374 24.025002L304.49374 34.4L302.72812 34.4ZM306.7125 34.4L306.7125 24.025002L308.30624 24.025002L308.30624 25.509377Q309.44687 23.790627 311.60312 23.790627Q312.54062 23.790627 313.32187 24.134377Q314.11874 24.462502 314.50937 25.009377Q314.9 25.556252 315.05624 26.306252Q315.15 26.806252 315.15 28.025002L315.15 34.4L313.38437 34.4L313.38437 28.087502Q313.38437 27.009377 313.18124 26.478127Q312.97812 25.946877 312.44687 25.634377Q311.93124 25.321877 311.22812 25.321877Q310.10312 25.321877 309.29062 26.040627Q308.47812 26.743752 308.47812 28.728127L308.47812 34.4L306.7125 34.4ZM323.07187 29.212502Q323.07187 26.337502 324.66562 24.946877Q326.00937 23.790627 327.93124 23.790627Q330.07187 23.790627 331.41562 25.196877Q332.775 26.603127 332.775 29.071877Q332.775 31.071877 332.18124 32.228127Q331.5875 33.36875 330.43124 34.009377Q329.29062 34.634377 327.93124 34.634377Q325.74374 34.634377 324.4 33.24375Q323.07187 31.837502 323.07187 29.212502ZM324.86874 29.212502Q324.86874 31.212502 325.72812 32.196877Q326.60312 33.18125 327.93124 33.18125Q329.24374 33.18125 330.10312 32.196877Q330.97812 31.196877 330.97812 29.150002Q330.97812 27.228127 330.10312 26.243752Q329.22812 25.243752 327.93124 25.243752Q326.60312 25.243752 325.72812 26.243752Q324.86874 27.228127 324.86874 29.212502ZM341.50937 34.4L341.50937 32.86875Q340.30624 34.634377 338.22812 34.634377Q337.30624 34.634377 336.50937 34.290627Q335.7125 33.93125 335.32187 33.4Q334.94687 32.86875 334.79062 32.0875Q334.68124 31.571877 334.68124 30.446877L334.68124 24.025002L336.43124 24.025002L336.43124 29.775002Q336.43124 31.150002 336.54062 31.634377Q336.7125 32.321877 337.24374 32.728127Q337.79062 33.11875 338.57187 33.11875Q339.36874 33.11875 340.05624 32.7125Q340.75937 32.30625 341.04062 31.618752Q341.3375 30.915627 341.3375 29.587502L341.3375 24.025002L343.0875 24.025002L343.0875 34.4L341.50937 34.4ZM345.69687 34.4L345.69687 24.025002L347.275 24.025002L347.275 25.603127Q347.88437 24.493752 348.4 24.150002Q348.91562 23.790627 349.525 23.790627Q350.41562 23.790627 351.3375 24.353127L350.72812 25.993752Q350.0875 25.603127 349.44687 25.603127Q348.86874 25.603127 348.4 25.962502Q347.94687 26.306252 347.74374 26.915627Q347.4625 27.853127 347.4625 28.962502L347.4625 34.4L345.69687 34.4ZM360.63437 34.4L357.4625 24.025002L359.275 24.025002L360.93124 30.009377L361.54062 32.24375Q361.5875 32.071877 362.07187 30.103127L363.72812 24.025002L365.54062 24.025002L367.0875 30.040627L367.60312 32.025L368.19687 30.025002L369.97812 24.025002L371.68124 24.025002L368.44687 34.4L366.61874 34.4L364.9625 28.181252L364.57187 26.415627L362.4625 34.4L360.63437 34.4ZM372.07187 29.212502Q372.07187 26.337502 373.66562 24.946877Q375.00937 23.790627 376.93124 23.790627Q379.07187 23.790627 380.41562 25.196877Q381.775 26.603127 381.775 29.071877Q381.775 31.071877 381.18124 32.228127Q380.5875 33.36875 379.43124 34.009377Q378.29062 34.634377 376.93124 34.634377Q374.74374 34.634377 373.4 33.24375Q372.07187 31.837502 372.07187 29.212502ZM373.86874 29.212502Q373.86874 31.212502 374.72812 32.196877Q375.60312 33.18125 376.93124 33.18125Q378.24374 33.18125 379.10312 32.196877Q379.97812 31.196877 379.97812 29.150002Q379.97812 27.228127 379.10312 26.243752Q378.22812 25.243752 376.93124 25.243752Q375.60312 25.243752 374.72812 26.243752Q373.86874 27.228127 373.86874 29.212502ZM383.69687 34.4L383.69687 24.025002L385.275 24.025002L385.275 25.603127Q385.88437 24.493752 386.4 24.150002Q386.91562 23.790627 387.525 23.790627Q388.41562 23.790627 389.3375 24.353127L388.72812 25.993752Q388.0875 25.603127 387.44687 25.603127Q386.86874 25.603127 386.4 25.962502Q385.94687 26.306252 385.74374 26.915627Q385.4625 27.853127 385.4625 28.962502L385.4625 34.4L383.69687 34.4ZM390.72812 34.4L390.72812 20.087502L392.49374 20.087502L392.49374 28.243752L396.65 24.025002L398.91562 24.025002L394.9625 27.868752L399.32187 34.4L397.15 34.4L393.72812 29.103127L392.49374 30.290627L392.49374 34.4L390.72812 34.4ZM400.00937 31.306252L401.75937 31.025002Q401.9 32.071877 402.57187 32.634377Q403.24374 33.18125 404.44687 33.18125Q405.65 33.18125 406.22812 32.696877Q406.82187 32.196877 406.82187 31.540627Q406.82187 30.946877 406.30624 30.603127Q405.94687 30.368752 404.50937 30.009377Q402.57187 29.509377 401.82187 29.165627Q401.0875 28.806252 400.69687 28.181252Q400.30624 27.540627 400.30624 26.775002Q400.30624 26.087502 400.61874 25.493752Q400.94687 24.900002 401.49374 24.509377Q401.9 24.212502 402.60312 24.009377Q403.32187 23.790627 404.13437 23.790627Q405.35312 23.790627 406.275 24.150002Q407.19687 24.493752 407.63437 25.103127Q408.07187 25.696877 408.24374 26.696877L406.525 26.931252Q406.4 26.134377 405.8375 25.696877Q405.275 25.243752 404.25937 25.243752Q403.04062 25.243752 402.525 25.650002Q402.00937 26.040627 402.00937 26.571877Q402.00937 26.915627 402.22812 27.196877Q402.43124 27.478127 402.9 27.665627Q403.16562 27.759377 404.44687 28.103127Q406.32187 28.603127 407.05624 28.931252Q407.79062 29.243752 408.2125 29.853127Q408.63437 30.446877 408.63437 31.353127Q408.63437 32.228127 408.11874 33.009377Q407.60312 33.790627 406.63437 34.2125Q405.66562 34.634377 404.44687 34.634377Q402.43124 34.634377 401.36874 33.790627Q400.30624 32.946877 400.00937 31.306252ZM410.7125 34.4L410.7125 20.087502L412.47812 20.087502L412.47812 25.212502Q413.7125 23.790627 415.5875 23.790627Q416.72812 23.790627 417.57187 24.243752Q418.43124 24.696877 418.79062 25.509377Q419.16562 26.306252 419.16562 27.821877L419.16562 34.4L417.41562 34.4L417.41562 27.821877Q417.41562 26.509377 416.8375 25.915627Q416.25937 25.306252 415.22812 25.306252Q414.44687 25.306252 413.74374 25.712502Q413.05624 26.118752 412.75937 26.821877Q412.47812 27.509377 412.47812 28.728127L412.47812 34.4L410.7125 34.4ZM421.07187 29.212502Q421.07187 26.337502 422.66562 24.946877Q424.00937 23.790627 425.93124 23.790627Q428.07187 23.790627 429.41562 25.196877Q430.775 26.603127 430.775 29.071877Q430.775 31.071877 430.18124 32.228127Q429.5875 33.36875 428.43124 34.009377Q427.29062 34.634377 425.93124 34.634377Q423.74374 34.634377 422.4 33.24375Q421.07187 31.837502 421.07187 29.212502ZM422.86874 29.212502Q422.86874 31.212502 423.72812 32.196877Q424.60312 33.18125 425.93124 33.18125Q427.24374 33.18125 428.10312 32.196877Q428.97812 31.196877 428.97812 29.150002Q428.97812 27.228127 428.10312 26.243752Q427.22812 25.243752 425.93124 25.243752Q424.60312 25.243752 423.72812 26.243752Q422.86874 27.228127 422.86874 29.212502ZM432.7125 38.36875L432.7125 24.025002L434.32187 24.025002L434.32187 25.368752Q434.88437 24.587502 435.5875 24.196877Q436.30624 23.790627 437.32187 23.790627Q438.65 23.790627 439.66562 24.478127Q440.68124 25.165627 441.19687 26.415627Q441.72812 27.650002 441.72812 29.134377Q441.72812 30.728127 441.15 32.009377Q440.5875 33.275 439.49374 33.9625Q438.4 34.634377 437.19687 34.634377Q436.32187 34.634377 435.61874 34.259377Q434.93124 33.884377 434.47812 33.321877L434.47812 38.36875L432.7125 38.36875ZM434.30624 29.275002Q434.30624 31.275002 435.11874 32.228127Q435.93124 33.18125 437.0875 33.18125Q438.25937 33.18125 439.0875 32.196877Q439.93124 31.212502 439.93124 29.118752Q439.93124 27.150002 439.10312 26.165627Q438.29062 25.165627 437.16562 25.165627Q436.04062 25.165627 435.16562 26.228127Q434.30624 27.275002 434.30624 29.275002ZM447.00937 30.868752Q446.99374 30.525002 446.99374 30.353127Q446.99374 29.306252 447.29062 28.556252Q447.50937 27.993752 447.99374 27.415627Q448.3375 26.993752 449.24374 26.196877Q450.16562 25.384377 450.43124 24.915627Q450.7125 24.431252 450.7125 23.868752Q450.7125 22.837502 449.9 22.071877Q449.10312 21.290627 447.94687 21.290627Q446.82187 21.290627 446.07187 21.993752Q445.32187 22.696877 445.0875 24.181252L443.275 23.962502Q443.525 21.962502 444.72812 20.900002Q445.93124 19.837502 447.91562 19.837502Q450.025 19.837502 451.275 20.978127Q452.525 22.118752 452.525 23.743752Q452.525 24.681252 452.07187 25.478127Q451.63437 26.259377 450.35312 27.400002Q449.49374 28.165627 449.22812 28.525002Q448.97812 28.884377 448.8375 29.353127Q448.7125 29.821877 448.69687 30.868752L447.00937 30.868752ZM446.9 34.4L446.9 32.4L448.9 32.4L448.9 34.4L446.9 34.4Z" fill-rule="nonzero"/></svg>