<svg version="1.1" viewBox="0.0 0.0 497.0 308.0" fill="none" stroke="none" stroke-linecap="square" stroke-miterlimit="10" width="497" height="308" xmlns:xlink="http://www.w3.org/1999/xlink" xmlns="http://www.w3.org/2000/svg"><path fill="#ffffff" d="M0 0L497.0 0L497.0 308.0L0 308.0L0 0Z" fill-rule="nonzero"/><path fill="#2e5dab" d="M369.96667 180.24333L369.96667 162.02333Z" fill-rule="nonzero"/><path fill="#2e5dab" d="M248.5 119.51C282.04208 119.51 309.23334 138.54387 309.23334 162.02333L309.23334 180.24333C309.23334 156.76387 282.04208 137.73 248.5 137.73Z" fill-rule="nonzero"/><path fill="#4285f4" d="M248.5 76.996666C315.5842 76.996666 369.96667 115.0644 369.96667 162.02333L309.23334 162.02333C309.23334 138.54387 282.04208 119.51 248.5 119.51Z" fill-rule="nonzero"/><path fill="#a42f25" d="M369.96667 180.24333C369.96667 227.20227 315.5842 265.27 248.5 265.27C181.41582 265.27 127.03333 227.20227 127.03333 180.24333L127.03333 162.02333C127.03333 208.98227 181.41582 247.05 248.5 247.05C315.5842 247.05 369.96667 208.98227 369.96667 162.02333Z" fill-rule="nonzero"/><path fill="#a42f25" d="M309.23334 162.02333L309.23334 180.24333Z" fill-rule="nonzero"/><path fill="#a42f25" d="M187.76666 162.02333C187.76666 138.54387 214.9579 119.51 248.5 119.51L248.5 137.73C214.9579 137.73 187.76666 156.76387 187.76666 180.24333Z" fill-rule="nonzero"/><path fill="#ea4335" d="M369.96667 162.02333C369.96667 208.98227 315.5842 247.05 248.5 247.05C181.41582 247.05 127.03333 208.98227 127.03333 162.02333C127.03333 115.0644 181.41582 76.996666 248.5 76.996666L248.5 119.51C214.9579 119.51 187.76666 138.54387 187.76666 162.02333C187.76666 185.50279 214.9579 204.53667 248.5 204.53667C282.04208 204.53667 309.23334 185.50279 309.23334 162.02333Z" fill-rule="nonzero"/><path fill="#1a1a1a" d="M18.74375 214.64012L18.74375 210.9995L15.43125 206.04637L16.821875 206.04637L18.509375 208.64012Q18.978125 209.35887 19.384375 210.09325Q19.775 209.42137 20.321875 208.57762L21.99375 206.04637L23.30625 206.04637L19.884375 210.9995L19.884375 214.64012L18.74375 214.64012ZM28.446875 212.64012L29.540625 212.76512Q29.290625 213.71825 28.5875 214.2495Q27.884375 214.78075 26.80625 214.78075Q25.446875 214.78075 24.634375 213.937Q23.8375 213.09325 23.8375 211.57762Q23.8375 210.01512 24.65 209.15575Q25.4625 208.28075 26.74375 208.28075Q27.99375 208.28075 28.775 209.1245Q29.571875 209.96825 29.571875 211.51512Q29.571875 211.60887 29.571875 211.79637L24.93125 211.79637Q24.99375 212.82762 25.509375 213.3745Q26.025 213.90575 26.80625 213.90575Q27.384375 213.90575 27.790625 213.60887Q28.2125 213.29637 28.446875 212.64012ZM24.99375 210.937L28.4625 210.937Q28.4 210.14012 28.071875 209.7495Q27.55625 209.14012 26.759375 209.14012Q26.025 209.14012 25.525 209.6245Q25.040625 210.10887 24.99375 210.937ZM30.775 212.78075L31.80625 212.6245Q31.9 213.2495 32.290627 213.57762Q32.696877 213.90575 33.43125 213.90575Q34.15 213.90575 34.49375 213.6245Q34.853127 213.32762 34.853127 212.92137Q34.853127 212.562 34.540627 212.35887Q34.321877 212.21825 33.4625 211.9995Q32.30625 211.70262 31.853125 211.4995Q31.415625 211.28075 31.18125 210.90575Q30.946875 210.53075 30.946875 210.062Q30.946875 209.65575 31.134375 209.29637Q31.321875 208.937 31.65 208.70262Q31.9 208.53075 32.321877 208.40575Q32.74375 208.28075 33.24375 208.28075Q33.9625 208.28075 34.509377 208.4995Q35.071877 208.70262 35.3375 209.062Q35.603127 209.42137 35.696877 210.01512L34.665627 210.15575Q34.603127 209.687 34.259377 209.42137Q33.93125 209.14012 33.30625 209.14012Q32.5875 209.14012 32.275 209.39012Q31.9625 209.6245 31.9625 209.95262Q31.9625 210.15575 32.0875 210.312Q32.228127 210.48387 32.49375 210.59325Q32.65 210.65575 33.43125 210.85887Q34.55625 211.17137 34.99375 211.35887Q35.43125 211.54637 35.68125 211.90575Q35.93125 212.26512 35.93125 212.812Q35.93125 213.34325 35.61875 213.812Q35.321877 214.26512 34.74375 214.53075Q34.165627 214.78075 33.43125 214.78075Q32.2125 214.78075 31.571875 214.28075Q30.946875 213.76512 30.775 212.78075Z" fill-rule="nonzero"/><path fill="#9e9e9e" d="M15.9625 224.17137L15.9625 223.15575L21.525 223.15575L21.525 223.98387Q20.7125 224.85887 19.9 226.312Q19.103125 227.7495 18.665625 229.28075Q18.3375 230.35887 18.259375 231.64012L17.165625 231.64012Q17.18125 230.6245 17.55625 229.187Q17.946875 227.7495 18.65 226.42137Q19.36875 225.09325 20.18125 224.17137L15.9625 224.17137ZM22.9 229.39012L24.009375 229.29637Q24.134375 230.10887 24.571875 230.51512Q25.025 230.92137 25.665625 230.92137Q26.415625 230.92137 26.946875 230.34325Q27.478125 229.76512 27.478125 228.82762Q27.478125 227.92137 26.9625 227.40575Q26.4625 226.8745 25.634375 226.8745Q25.134375 226.8745 24.7125 227.10887Q24.30625 227.34325 24.071875 227.70262L23.0875 227.57762L23.915625 223.17137L28.196875 223.17137L28.196875 224.17137L24.759375 224.17137L24.30625 226.48387Q25.071875 225.937 25.915625 225.937Q27.040625 225.937 27.80625 226.71825Q28.5875 227.4995 28.5875 228.73387Q28.5875 229.89012 27.915625 230.7495Q27.0875 231.78075 25.665625 231.78075Q24.49375 231.78075 23.74375 231.1245Q23.009375 230.46825 22.9 229.39012ZM30.49375 231.64012L30.49375 230.437L31.696875 230.437L31.696875 231.64012L30.49375 231.64012ZM32.9 227.40575Q32.9 225.8745 33.2125 224.95262Q33.525 224.01512 34.134377 223.51512Q34.759377 223.01512 35.696877 223.01512Q36.384377 223.01512 36.9 223.29637Q37.43125 223.57762 37.775 224.10887Q38.11875 224.6245 38.30625 225.3745Q38.49375 226.1245 38.49375 227.40575Q38.49375 228.92137 38.18125 229.84325Q37.884377 230.76512 37.259377 231.28075Q36.65 231.78075 35.696877 231.78075Q34.4625 231.78075 33.74375 230.89012Q32.9 229.82762 32.9 227.40575ZM33.978127 227.40575Q33.978127 229.51512 34.478127 230.21825Q34.978127 230.92137 35.696877 230.92137Q36.43125 230.92137 36.915627 230.21825Q37.415627 229.51512 37.415627 227.40575Q37.415627 225.28075 36.915627 224.59325Q36.43125 223.89012 35.68125 223.89012Q34.9625 223.89012 34.525 224.4995Q33.978127 225.28075 33.978127 227.40575ZM40.103127 225.10887Q40.103127 224.187 40.55625 223.54637Q41.025 222.90575 41.9 222.90575Q42.7125 222.90575 43.24375 223.48387Q43.775 224.062 43.775 225.17137Q43.775 226.26512 43.228127 226.85887Q42.696877 227.437 41.915627 227.437Q41.134377 227.437 40.61875 226.85887Q40.103127 226.28075 40.103127 225.10887ZM41.93125 223.6245Q41.540627 223.6245 41.275 223.96825Q41.025 224.312 41.025 225.21825Q41.025 226.04637 41.275 226.39012Q41.540627 226.71825 41.93125 226.71825Q42.3375 226.71825 42.5875 226.3745Q42.853127 226.03075 42.853127 225.14012Q42.853127 224.29637 42.5875 223.96825Q42.321877 223.6245 41.93125 223.6245ZM41.93125 231.95262L46.634377 222.90575L47.49375 222.90575L42.80625 231.95262L41.93125 231.95262ZM45.65 229.6245Q45.65 228.70262 46.103127 228.062Q46.571877 227.42137 47.4625 227.42137Q48.275 227.42137 48.80625 227.9995Q49.3375 228.562 49.3375 229.687Q49.3375 230.78075 48.790627 231.3745Q48.259377 231.95262 47.4625 231.95262Q46.696877 231.95262 46.165627 231.3745Q45.65 230.79637 45.65 229.6245ZM47.49375 228.14012Q47.0875 228.14012 46.821877 228.48387Q46.571877 228.82762 46.571877 229.73387Q46.571877 230.54637 46.8375 230.89012Q47.103127 231.23387 47.49375 231.23387Q47.884377 231.23387 48.15 230.89012Q48.415627 230.54637 48.415627 229.64012Q48.415627 228.812 48.15 228.48387Q47.884377 228.14012 47.49375 228.14012Z" fill-rule="nonzero"/><path stroke="#757575" stroke-width="1.0" stroke-linecap="butt" d="M15.4 219.14012L121.03333 219.14012L166.90459 219.14012" fill-rule="nonzero"/><path fill="#9e9e9e" d="M168.90459 219.14012C168.90459 218.03555 168.00916 217.14012 166.90459 217.14012C165.80002 217.14012 164.90459 218.03555 164.90459 219.14012C164.90459 220.24469 165.80002 221.14012 166.90459 221.14012C168.00916 221.14012 168.90459 220.24469 168.90459 219.14012" fill-rule="nonzero"/><path fill="#1a1a1a" d="M445.49063 100.40655L445.49063 91.8128L447.20938 91.8128L449.24063 97.89092Q449.52188 98.7503 449.64688 99.17217Q449.7875 98.70342 450.1 97.79717L452.1625 91.8128L453.69376 91.8128L453.69376 100.40655L452.6 100.40655L452.6 93.21905L450.1 100.40655L449.06876 100.40655L446.58438 93.09405L446.58438 100.40655L445.49063 100.40655ZM459.45938 99.64092Q458.86563 100.14092 458.31876 100.34405Q457.7875 100.54717 457.1625 100.54717Q456.13126 100.54717 455.58438 100.04717Q455.0375 99.54717 455.0375 98.76592Q455.0375 98.3128 455.24063 97.9378Q455.44376 97.54717 455.7875 97.32842Q456.13126 97.09405 456.55313 96.98467Q456.85 96.89092 457.49063 96.8128Q458.75626 96.67217 459.36563 96.45342Q459.36563 96.23467 459.36563 96.1878Q459.36563 95.53155 459.06876 95.26592Q458.6625 94.92217 457.86563 94.92217Q457.13126 94.92217 456.77188 95.1878Q456.4125 95.4378 456.24063 96.09405L455.20938 95.95342Q455.35 95.29717 455.67813 94.89092Q456.00626 94.48467 456.61563 94.26592Q457.225 94.04717 458.02188 94.04717Q458.81876 94.04717 459.31876 94.23467Q459.81876 94.42217 460.05313 94.70342Q460.2875 94.98467 460.38126 95.42217Q460.42813 95.6878 460.42813 96.39092L460.42813 97.79717Q460.42813 99.26592 460.49063 99.65655Q460.56876 100.04717 460.77188 100.40655L459.6625 100.40655Q459.50626 100.07842 459.45938 99.64092ZM459.36563 97.28155Q458.7875 97.51592 457.64688 97.6878Q456.99063 97.78155 456.725 97.90655Q456.45938 98.01592 456.30313 98.23467Q456.1625 98.45342 456.1625 98.73467Q456.1625 99.15655 456.475 99.4378Q456.80313 99.71905 457.4125 99.71905Q458.02188 99.71905 458.49063 99.45342Q458.975 99.1878 459.19376 98.71905Q459.36563 98.35967 459.36563 97.67217L459.36563 97.28155ZM462.35 102.79717L462.225 101.8128Q462.56876 101.90655 462.83438 101.90655Q463.17813 101.90655 463.38126 101.78155Q463.6 101.67217 463.74063 101.46905Q463.83438 101.29717 464.06876 100.67217Q464.08438 100.59405 464.1625 100.42217L461.7875 94.1878L462.92813 94.1878L464.225 97.78155Q464.475 98.46905 464.67813 99.23467Q464.86563 98.5003 465.11563 97.8128L466.44376 94.1878L467.49063 94.1878L465.13126 100.51592Q464.74063 101.53155 464.5375 101.92217Q464.25626 102.45342 463.88126 102.6878Q463.52188 102.9378 463.02188 102.9378Q462.725 102.9378 462.35 102.79717ZM469.36563 100.40655L468.38126 100.40655L468.38126 91.8128L469.44376 91.8128L469.44376 94.8753Q470.11563 94.04717 471.14688 94.04717Q471.725 94.04717 472.225 94.28155Q472.74063 94.5003 473.06876 94.92217Q473.4125 95.34405 473.6 95.9378Q473.7875 96.53155 473.7875 97.20342Q473.7875 98.79717 472.99063 99.67217Q472.19376 100.54717 471.1 100.54717Q469.99063 100.54717 469.36563 99.6253L469.36563 100.40655ZM469.35 97.2503Q469.35 98.35967 469.6625 98.85967Q470.1625 99.67217 471.00626 99.67217Q471.69376 99.67217 472.19376 99.07842Q472.70938 98.48467 472.70938 97.28155Q472.70938 96.0628 472.225 95.48467Q471.74063 94.90655 471.05313 94.90655Q470.36563 94.90655 469.85 95.51592Q469.35 96.10967 469.35 97.2503ZM479.64688 98.40655L480.74063 98.53155Q480.49063 99.48467 479.7875 100.01592Q479.08438 100.54717 478.00626 100.54717Q476.64688 100.54717 475.83438 99.70342Q475.0375 98.85967 475.0375 97.34405Q475.0375 95.78155 475.85 94.92217Q476.6625 94.04717 477.94376 94.04717Q479.19376 94.04717 479.975 94.89092Q480.77188 95.73467 480.77188 97.28155Q480.77188 97.3753 480.77188 97.5628L476.13126 97.5628Q476.19376 98.59405 476.70938 99.14092Q477.225 99.67217 478.00626 99.67217Q478.58438 99.67217 478.99063 99.3753Q479.4125 99.0628 479.64688 98.40655ZM476.19376 96.70342L479.6625 96.70342Q479.6 95.90655 479.27188 95.51592Q478.75626 94.90655 477.95938 94.90655Q477.225 94.90655 476.725 95.39092Q476.24063 95.8753 476.19376 96.70342Z" fill-rule="nonzero"/><path fill="#9e9e9e" d="M452.64688 116.39092L452.64688 117.40655L446.95938 117.40655Q446.95938 117.03155 447.08438 116.67217Q447.30313 116.09405 447.77188 115.53155Q448.25626 114.96905 449.1625 114.23467Q450.56876 113.07842 451.05313 112.40655Q451.55313 111.73467 451.55313 111.14092Q451.55313 110.51592 451.1 110.09405Q450.64688 109.65655 449.92813 109.65655Q449.1625 109.65655 448.70938 110.10967Q448.25626 110.5628 448.24063 111.3753L447.1625 111.26592Q447.27188 110.04717 447.99063 109.42217Q448.725 108.78155 449.95938 108.78155Q451.19376 108.78155 451.9125 109.46905Q452.63126 110.15655 452.63126 111.17217Q452.63126 111.6878 452.4125 112.1878Q452.20938 112.67217 451.70938 113.23467Q451.225 113.78155 450.1 114.73467Q449.14688 115.53155 448.86563 115.82842Q448.6 116.10967 448.42813 116.39092L452.64688 116.39092ZM454.1 115.15655L455.20938 115.0628Q455.33438 115.8753 455.77188 116.28155Q456.225 116.6878 456.86563 116.6878Q457.61563 116.6878 458.14688 116.10967Q458.67813 115.53155 458.67813 114.59405Q458.67813 113.6878 458.1625 113.17217Q457.6625 112.64092 456.83438 112.64092Q456.33438 112.64092 455.9125 112.8753Q455.50626 113.10967 455.27188 113.46905L454.2875 113.34405L455.11563 108.9378L459.39688 108.9378L459.39688 109.9378L455.95938 109.9378L455.50626 112.2503Q456.27188 111.70342 457.11563 111.70342Q458.24063 111.70342 459.00626 112.48467Q459.7875 113.26592 459.7875 114.5003Q459.7875 115.65655 459.11563 116.51592Q458.2875 117.54717 456.86563 117.54717Q455.69376 117.54717 454.94376 116.89092Q454.20938 116.23467 454.1 115.15655ZM461.69376 117.40655L461.69376 116.20342L462.89688 116.20342L462.89688 117.40655L461.69376 117.40655ZM464.1 113.17217Q464.1 111.64092 464.4125 110.71905Q464.725 109.78155 465.33438 109.28155Q465.95938 108.78155 466.89688 108.78155Q467.58438 108.78155 468.1 109.0628Q468.63126 109.34405 468.975 109.8753Q469.31876 110.39092 469.50626 111.14092Q469.69376 111.89092 469.69376 113.17217Q469.69376 114.6878 469.38126 115.60967Q469.08438 116.53155 468.45938 117.04717Q467.85 117.54717 466.89688 117.54717Q465.6625 117.54717 464.94376 116.65655Q464.1 115.59405 464.1 113.17217ZM465.17813 113.17217Q465.17813 115.28155 465.67813 115.98467Q466.17813 116.6878 466.89688 116.6878Q467.63126 116.6878 468.11563 115.98467Q468.61563 115.28155 468.61563 113.17217Q468.61563 111.04717 468.11563 110.35967Q467.63126 109.65655 466.88126 109.65655Q466.1625 109.65655 465.725 110.26592Q465.17813 111.04717 465.17813 113.17217ZM471.30313 110.8753Q471.30313 109.95342 471.75626 109.3128Q472.225 108.67217 473.1 108.67217Q473.9125 108.67217 474.44376 109.2503Q474.975 109.82842 474.975 110.9378Q474.975 112.03155 474.42813 112.6253Q473.89688 113.20342 473.11563 113.20342Q472.33438 113.20342 471.81876 112.6253Q471.30313 112.04717 471.30313 110.8753ZM473.13126 109.39092Q472.74063 109.39092 472.475 109.73467Q472.225 110.07842 472.225 110.98467Q472.225 111.8128 472.475 112.15655Q472.74063 112.48467 473.13126 112.48467Q473.5375 112.48467 473.7875 112.14092Q474.05313 111.79717 474.05313 110.90655Q474.05313 110.0628 473.7875 109.73467Q473.52188 109.39092 473.13126 109.39092ZM473.13126 117.71905L477.83438 108.67217L478.69376 108.67217L474.00626 117.71905L473.13126 117.71905ZM476.85 115.39092Q476.85 114.46905 477.30313 113.82842Q477.77188 113.1878 478.6625 113.1878Q479.475 113.1878 480.00626 113.76592Q480.5375 114.32842 480.5375 115.45342Q480.5375 116.54717 479.99063 117.14092Q479.45938 117.71905 478.6625 117.71905Q477.89688 117.71905 477.36563 117.14092Q476.85 116.5628 476.85 115.39092ZM478.69376 113.90655Q478.2875 113.90655 478.02188 114.2503Q477.77188 114.59405 477.77188 115.5003Q477.77188 116.3128 478.0375 116.65655Q478.30313 117.0003 478.69376 117.0003Q479.08438 117.0003 479.35 116.65655Q479.61563 116.3128 479.61563 115.40655Q479.61563 114.57842 479.35 114.2503Q479.08438 113.90655 478.69376 113.90655Z" fill-rule="nonzero"/><path stroke="#757575" stroke-width="1.0" stroke-linecap="butt" d="M481.6 104.90655L375.96667 104.90655L330.0954 104.90655" fill-rule="nonzero"/><path fill="#9e9e9e" d="M332.0954 104.90655C332.0954 103.80198 331.19998 102.90655 330.0954 102.90655C328.99084 102.90655 328.0954 103.80198 328.0954 104.90655C328.0954 106.011116 328.99084 106.90655 330.0954 106.90655C331.19998 106.90655 332.0954 106.011116 332.0954 104.90655" fill-rule="nonzero"/><path fill="#757575" d="M15.946875 34.4L15.946875 20.087502L20.86875 20.087502Q22.540625 20.087502 23.43125 20.290627Q24.65 20.571877 25.525 21.306252Q26.65 22.275002 27.2125 23.759377Q27.775 25.243752 27.775 27.165627Q27.775 28.790627 27.4 30.056252Q27.025 31.306252 26.415625 32.134377Q25.821875 32.9625 25.11875 33.446877Q24.415625 33.915627 23.415625 34.165627Q22.415625 34.4 21.103125 34.4L15.946875 34.4ZM17.8375 32.7125L20.9 32.7125Q22.30625 32.7125 23.103125 32.446877Q23.915625 32.18125 24.4 31.696877Q25.071875 31.025002 25.446875 29.900002Q25.821875 28.759377 25.821875 27.134377Q25.821875 24.884377 25.0875 23.681252Q24.353125 22.478127 23.290625 22.071877Q22.540625 21.775002 20.853125 21.775002L17.8375 21.775002L17.8375 32.7125ZM29.728125 22.103127L29.728125 20.087502L31.49375 20.087502L31.49375 22.103127L29.728125 22.103127ZM29.728125 34.4L29.728125 24.025002L31.49375 24.025002L31.49375 34.4L29.728125 34.4ZM40.446877 34.4L40.446877 33.0875Q39.4625 34.634377 37.540627 34.634377Q36.30625 34.634377 35.259377 33.946877Q34.228127 33.259377 33.65 32.040627Q33.0875 30.821877 33.0875 29.228127Q33.0875 27.665627 33.603127 26.400002Q34.11875 25.134377 35.15 24.462502Q36.196877 23.790627 37.4625 23.790627Q38.4 23.790627 39.134377 24.196877Q39.86875 24.587502 40.3375 25.212502L40.3375 20.087502L42.071877 20.087502L42.071877 34.4L40.446877 34.4ZM34.884377 29.228127Q34.884377 31.212502 35.728127 32.196877Q36.571877 33.18125 37.7125 33.18125Q38.86875 33.18125 39.665627 32.24375Q40.478127 31.306252 40.478127 29.368752Q40.478127 27.243752 39.65 26.243752Q38.8375 25.243752 37.634377 25.243752Q36.4625 25.243752 35.665627 26.212502Q34.884377 27.165627 34.884377 29.228127ZM50.634377 38.4L50.446877 36.74375Q51.025 36.9 51.446877 36.9Q52.040627 36.9 52.384377 36.696877Q52.74375 36.509377 52.9625 36.165627Q53.134377 35.9 53.509377 34.853127Q53.55625 34.696877 53.665627 34.415627L49.728127 24.025002L51.61875 24.025002L53.775 30.040627Q54.196877 31.181252 54.525 32.43125Q54.8375 31.228127 55.24375 30.071877L57.4625 24.025002L59.228127 24.025002L55.275 34.571877Q54.65 36.290627 54.290627 36.93125Q53.821877 37.80625 53.2125 38.196877Q52.61875 38.603127 51.775 38.603127Q51.259377 38.603127 50.634377 38.4ZM60.071877 29.212502Q60.071877 26.337502 61.665627 24.946877Q63.009377 23.790627 64.93125 23.790627Q67.07188 23.790627 68.41563 25.196877Q69.775 26.603127 69.775 29.071877Q69.775 31.071877 69.18125 32.228127Q68.5875 33.36875 67.43125 34.009377Q66.29063 34.634377 64.93125 34.634377Q62.74375 34.634377 61.4 33.24375Q60.071877 31.837502 60.071877 29.212502ZM61.86875 29.212502Q61.86875 31.212502 62.728127 32.196877Q63.603127 33.18125 64.93125 33.18125Q66.24375 33.18125 67.10313 32.196877Q67.97813 31.196877 67.97813 29.150002Q67.97813 27.228127 67.10313 26.243752Q66.22813 25.243752 64.93125 25.243752Q63.603127 25.243752 62.728127 26.243752Q61.86875 27.228127 61.86875 29.212502ZM78.50938 34.4L78.50938 32.86875Q77.30625 34.634377 75.22813 34.634377Q74.30625 34.634377 73.50938 34.290627Q72.7125 33.93125 72.32188 33.4Q71.94688 32.86875 71.79063 32.0875Q71.68125 31.571877 71.68125 30.446877L71.68125 24.025002L73.43125 24.025002L73.43125 29.775002Q73.43125 31.150002 73.54063 31.634377Q73.7125 32.321877 74.24375 32.728127Q74.79063 33.11875 75.57188 33.11875Q76.36875 33.11875 77.05625 32.7125Q77.75938 32.30625 78.04063 31.618752Q78.3375 30.915627 78.3375 29.587502L78.3375 24.025002L80.0875 24.025002L80.0875 34.4L78.50938 34.4ZM88.68125 34.4L88.68125 20.087502L90.43125 20.087502L90.43125 34.4L88.68125 34.4ZM92.72813 22.103127L92.72813 20.087502L94.49375 20.087502L94.49375 22.103127L92.72813 22.103127ZM92.72813 34.4L92.72813 24.025002L94.49375 24.025002L94.49375 34.4L92.72813 34.4ZM96.72813 34.4L96.72813 20.087502L98.49375 20.087502L98.49375 28.243752L102.65 24.025002L104.91563 24.025002L100.9625 27.868752L105.32188 34.4L103.15 34.4L99.72813 29.103127L98.49375 30.290627L98.49375 34.4L96.72813 34.4ZM113.82188 31.056252L115.63438 31.290627Q115.2125 32.86875 114.04063 33.759377Q112.88438 34.634377 111.07188 34.634377Q108.80625 34.634377 107.4625 33.24375Q106.13438 31.837502 106.13438 29.306252Q106.13438 26.681252 107.47813 25.243752Q108.82188 23.790627 110.97813 23.790627Q113.05625 23.790627 114.36875 25.212502Q115.69688 26.618752 115.69688 29.196877Q115.69688 29.353127 115.68125 29.665627L107.94688 29.665627Q108.04063 31.368752 108.91563 32.275Q109.79063 33.18125 111.0875 33.18125Q112.05625 33.18125 112.72813 32.68125Q113.41563 32.165627 113.82188 31.056252ZM108.04063 28.212502L113.8375 28.212502Q113.72813 26.915627 113.18125 26.259377Q112.3375 25.243752 110.99375 25.243752Q109.79063 25.243752 108.9625 26.056252Q108.13438 26.853127 108.04063 28.212502ZM123.07188 29.212502Q123.07188 26.337502 124.66563 24.946877Q126.00938 23.790627 127.93125 23.790627Q130.07187 23.790627 131.41562 25.196877Q132.775 26.603127 132.775 29.071877Q132.775 31.071877 132.18124 32.228127Q131.5875 33.36875 130.43124 34.009377Q129.29062 34.634377 127.93125 34.634377Q125.74375 34.634377 124.4 33.24375Q123.07188 31.837502 123.07188 29.212502ZM124.86875 29.212502Q124.86875 31.212502 125.72813 32.196877Q126.60313 33.18125 127.93125 33.18125Q129.24374 33.18125 130.10312 32.196877Q130.97812 31.196877 130.97812 29.150002Q130.97812 27.228127 130.10312 26.243752Q129.22812 25.243752 127.93125 25.243752Q126.60313 25.243752 125.72813 26.243752Q124.86875 27.228127 124.86875 29.212502ZM141.50937 34.4L141.50937 32.86875Q140.30624 34.634377 138.22812 34.634377Q137.30624 34.634377 136.50937 34.290627Q135.7125 33.93125 135.32187 33.4Q134.94687 32.86875 134.79062 32.0875Q134.68124 31.571877 134.68124 30.446877L134.68124 24.025002L136.43124 24.025002L136.43124 29.775002Q136.43124 31.150002 136.54062 31.634377Q136.7125 32.321877 137.24374 32.728127Q137.79062 33.11875 138.57187 33.11875Q139.36874 33.11875 140.05624 32.7125Q140.75937 32.30625 141.04062 31.618752Q141.3375 30.915627 141.3375 29.587502L141.3375 24.025002L143.0875 24.025002L143.0875 34.4L141.50937 34.4ZM145.69687 34.4L145.69687 24.025002L147.275 24.025002L147.275 25.603127Q147.88437 24.493752 148.4 24.150002Q148.91562 23.790627 149.525 23.790627Q150.41562 23.790627 151.3375 24.353127L150.72812 25.993752Q150.0875 25.603127 149.44687 25.603127Q148.86874 25.603127 148.4 25.962502Q147.94687 26.306252 147.74374 26.915627Q147.4625 27.853127 147.4625 28.962502L147.4625 34.4L145.69687 34.4ZM160.63437 34.4L157.4625 24.025002L159.275 24.025002L160.93124 30.009377L161.54062 32.24375Q161.5875 32.071877 162.07187 30.103127L163.72812 24.025002L165.54062 24.025002L167.0875 30.040627L167.60312 32.025L168.19687 30.025002L169.97812 24.025002L171.68124 24.025002L168.44687 34.4L166.61874 34.4L164.9625 28.181252L164.57187 26.415627L162.4625 34.4L160.63437 34.4ZM172.07187 29.212502Q172.07187 26.337502 173.66562 24.946877Q175.00937 23.790627 176.93124 23.790627Q179.07187 23.790627 180.41562 25.196877Q181.775 26.603127 181.775 29.071877Q181.775 31.071877 181.18124 32.228127Q180.5875 33.36875 179.43124 34.009377Q178.29062 34.634377 176.93124 34.634377Q174.74374 34.634377 173.4 33.24375Q172.07187 31.837502 172.07187 29.212502ZM173.86874 29.212502Q173.86874 31.212502 174.72812 32.196877Q175.60312 33.18125 176.93124 33.18125Q178.24374 33.18125 179.10312 32.196877Q179.97812 31.196877 179.97812 29.150002Q179.97812 27.228127 179.10312 26.243752Q178.22812 25.243752 176.93124 25.243752Q175.60312 25.243752 174.72812 26.243752Q173.86874 27.228127 173.86874 29.212502ZM183.69687 34.4L183.69687 24.025002L185.275 24.025002L185.275 25.603127Q185.88437 24.493752 186.4 24.150002Q186.91562 23.790627 187.525 23.790627Q188.41562 23.790627 189.3375 24.353127L188.72812 25.993752Q188.0875 25.603127 187.44687 25.603127Q186.86874 25.603127 186.4 25.962502Q185.94687 26.306252 185.74374 26.915627Q185.4625 27.853127 185.4625 28.962502L185.4625 34.4L183.69687 34.4ZM190.72812 34.4L190.72812 20.087502L192.49374 20.087502L192.49374 28.243752L196.65 24.025002L198.91562 24.025002L194.9625 27.868752L199.32187 34.4L197.15 34.4L193.72812 29.103127L192.49374 30.290627L192.49374 34.4L190.72812 34.4ZM200.00937 31.306252L201.75937 31.025002Q201.9 32.071877 202.57187 32.634377Q203.24374 33.18125 204.44687 33.18125Q205.65 33.18125 206.22812 32.696877Q206.82187 32.196877 206.82187 31.540627Q206.82187 30.946877 206.30624 30.603127Q205.94687 30.368752 204.50937 30.009377Q202.57187 29.509377 201.82187 29.165627Q201.0875 28.806252 200.69687 28.181252Q200.30624 27.540627 200.30624 26.775002Q200.30624 26.087502 200.61874 25.493752Q200.94687 24.900002 201.49374 24.509377Q201.9 24.212502 202.60312 24.009377Q203.32187 23.790627 204.13437 23.790627Q205.35312 23.790627 206.275 24.150002Q207.19687 24.493752 207.63437 25.103127Q208.07187 25.696877 208.24374 26.696877L206.525 26.931252Q206.4 26.134377 205.8375 25.696877Q205.275 25.243752 204.25937 25.243752Q203.04062 25.243752 202.525 25.650002Q202.00937 26.040627 202.00937 26.571877Q202.00937 26.915627 202.22812 27.196877Q202.43124 27.478127 202.9 27.665627Q203.16562 27.759377 204.44687 28.103127Q206.32187 28.603127 207.05624 28.931252Q207.79062 29.243752 208.2125 29.853127Q208.63437 30.446877 208.63437 31.353127Q208.63437 32.228127 208.11874 33.009377Q207.60312 33.790627 206.63437 34.2125Q205.66562 34.634377 204.44687 34.634377Q202.43124 34.634377 201.36874 33.790627Q200.30624 32.946877 200.00937 31.306252ZM210.7125 34.4L210.7125 20.087502L212.47812 20.087502L212.47812 25.212502Q213.7125 23.790627 215.5875 23.790627Q216.72812 23.790627 217.57187 24.243752Q218.43124 24.696877 218.79062 25.509377Q219.16562 26.306252 219.16562 27.821877L219.16562 34.4L217.41562 34.4L217.41562 27.821877Q217.41562 26.509377 216.8375 25.915627Q216.25937 25.306252 215.22812 25.306252Q214.44687 25.306252 213.74374 25.712502Q213.05624 26.118752 212.75937 26.821877Q212.47812 27.509377 212.47812 28.728127L212.47812 34.4L210.7125 34.4ZM221.07187 29.212502Q221.07187 26.337502 222.66562 24.946877Q224.00937 23.790627 225.93124 23.790627Q228.07187 23.790627 229.41562 25.196877Q230.775 26.603127 230.775 29.071877Q230.775 31.071877 230.18124 32.228127Q229.5875 33.36875 228.43124 34.009377Q227.29062 34.634377 225.93124 34.634377Q223.74374 34.634377 222.4 33.24375Q221.07187 31.837502 221.07187 29.212502ZM222.86874 29.212502Q222.86874 31.212502 223.72812 32.196877Q224.60312 33.18125 225.93124 33.18125Q227.24374 33.18125 228.10312 32.196877Q228.97812 31.196877 228.97812 29.150002Q228.97812 27.228127 228.10312 26.243752Q227.22812 25.243752 225.93124 25.243752Q224.60312 25.243752 223.72812 26.243752Q222.86874 27.228127 222.86874 29.212502ZM232.7125 38.36875L232.7125 24.025002L234.32187 24.025002L234.32187 25.368752Q234.88437 24.587502 235.5875 24.196877Q236.30624 23.790627 237.32187 23.790627Q238.65 23.790627 239.66562 24.478127Q240.68124 25.165627 241.19687 26.415627Q241.72812 27.650002 241.72812 29.134377Q241.72812 30.728127 241.15 32.009377Q240.5875 33.275 239.49374 33.9625Q238.4 34.634377 237.19687 34.634377Q236.32187 34.634377 235.61874 34.259377Q234.93124 33.884377 234.47812 33.321877L234.47812 38.36875L232.7125 38.36875ZM234.30624 29.275002Q234.30624 31.275002 235.11874 32.228127Q235.93124 33.18125 237.0875 33.18125Q238.25937 33.18125 239.0875 32.196877Q239.93124 31.212502 239.93124 29.118752Q239.93124 27.150002 239.10312 26.165627Q238.29062 25.165627 237.16562 25.165627Q236.04062 25.165627 235.16562 26.228127Q234.30624 27.275002 234.30624 29.275002ZM247.00937 30.868752Q246.99374 30.525002 246.99374 30.353127Q246.99374 29.306252 247.29062 28.556252Q247.50937 27.993752 247.99374 27.415627Q248.3375 26.993752 249.24374 26.196877Q250.16562 25.384377 250.43124 24.915627Q250.7125 24.431252 250.7125 23.868752Q250.7125 22.837502 249.9 22.071877Q249.10312 21.290627 247.94687 21.290627Q246.82187 21.290627 246.07187 21.993752Q245.32187 22.696877 245.0875 24.181252L243.275 23.962502Q243.525 21.962502 244.72812 20.900002Q245.93124 19.837502 247.91562 19.837502Q250.025 19.837502 251.275 20.978127Q252.525 22.118752 252.525 23.743752Q252.525 24.681252 252.07187 25.478127Q251.63437 26.259377 250.35312 27.400002Q249.49374 28.165627 249.22812 28.525002Q248.97812 28.884377 248.8375 29.353127Q248.7125 29.821877 248.69687 30.868752L247.00937 30.868752ZM246.9 34.4L246.9 32.4L248.9 32.4L248.9 34.4L246.9 34.4Z" fill-rule="nonzero"/></svg>