<svg version="1.1" viewBox="0.0 0.0 497.0 308.0" fill="none" stroke="none" stroke-linecap="square" stroke-miterlimit="10" width="497" height="308" xmlns:xlink="http://www.w3.org/1999/xlink" xmlns="http://www.w3.org/2000/svg"><path fill="#ffffff" d="M0 0L497.0 0L497.0 308.0L0 308.0L0 0Z" fill-rule="nonzero"/><path fill="#2e5dab" d="M369.96667 180.24333L369.96667 162.02333Z" fill-rule="nonzero"/><path fill="#2e5dab" d="M248.5 119.51C282.04208 119.51 309.23334 138.54387 309.23334 162.02333L309.23334 180.24333C309.23334 156.76387 282.04208 137.73 248.5 137.73Z" fill-rule="nonzero"/><path fill="#4285f4" d="M248.5 76.996666C315.5842 76.996666 369.96667 115.0644 369.96667 162.02333L309.23334 162.02333C309.23334 138.54387 282.04208 119.51 248.5 119.51Z" fill-rule="nonzero"/><path fill="#a42f25" d="M369.96667 180.24333C369.96667 227.20227 315.5842 265.27 248.5 265.27C181.41582 265.27 127.03333 227.20227 127.03333 180.24333L127.03333 162.02333C127.03333 208.98227 181.41582 247.05 248.5 247.05C315.5842 247.05 369.96667 208.98227 369.96667 162.02333Z" fill-rule="nonzero"/><path fill="#a42f25" d="M309.23334 162.02333L309.23334 180.24333Z" fill-rule="nonzero"/><path fill="#a42f25" d="M187.76666 162.02333C187.76666 138.54387 214.9579 119.51 248.5 119.51L248.5 137.73C214.9579 137.73 187.76666 156.76387 187.76666 180.24333Z" fill-rule="nonzero"/><path fill="#ea4335" d="M369.96667 162.02333C369.96667 208.98227 315.5842 247.05 248.5 247.05C181.41582 247.05 127.03333 208.98227 127.03333 162.02333C127.03333 115.0644 181.41582 76.996666 248.5 76.996666L248.5 119.51C214.9579 119.51 187.76666 138.54387 187.76666 162.02333C187.76666 185.50279 214.9579 204.53667 248.5 204.53667C282.04208 204.53667 309.23334 185.50279 309.23334 162.02333Z" fill-rule="nonzero"/><path fill="#1a1a1a" d="M18.74375 214.64012L18.74375 210.9995L15.43125 206.04637L16.821875 206.04637L18.509375 208.64012Q18.978125 209.35887 19.384375 210.09325Q19.775 209.42137 20.321875 208.57762L21.99375 206.04637L23.30625 206.04637L19.884375 210.9995L19.884375 214.64012L18.74375 214.64012ZM28.446875 212.64012L29.540625 212.76512Q29.290625 213.71825 28.5875 214.2495Q27.884375 214.78075 26.80625 214.78075Q25.446875 214.78075 24.634375 213.937Q23.8375 213.09325 23.8375 211.57762Q23.8375 210.01512 24.65 209.15575Q25.4625 208.28075 26.74375 208.28075Q27.99375 208.28075 28.775 209.1245Q29.571875 209.96825 29.571875 211.51512Q29.571875 211.60887 29.571875 211.79637L24.93125 211.79637Q24.99375 212.82762 25.509375 213.3745Q26.025 213.90575 26.80625 213.90575Q27.384375 213.90575 27.790625 213.60887Q28.2125 213.29637 28.446875 212.64012ZM24.99375 210.937L28.4625 210.937Q28.4 210.14012 28.071875 209.7495Q27.55625 209.14012 26.759375 209.14012Q26.025 209.14012 25.525 209.6245Q25.040625 210.10887 24.99375 210.937ZM30.775 212.78075L31.80625 212.6245Q31.9 213.2495 32.290627 213.57762Q32.696877 213.90575 33.43125 213.90575Q34.15 213.90575 34.49375 213.6245Q34.853127 213.32762 34.853127 212.92137Q34.853127 212.562 34.540627 212.35887Q34.321877 212.21825 33.4625 211.9995Q32.30625 211.70262 31.853125 211.4995Q31.415625 211.28075 31.18125 210.90575Q30.946875 210.53075 30.946875 210.062Q30.946875 209.65575 31.134375 209.29637Q31.321875 208.937 31.65 208.70262Q31.9 208.53075 32.321877 208.40575Q32.74375 208.28075 33.24375 208.28075Q33.9625 208.28075 34.509377 208.4995Q35.071877 208.70262 35.3375 209.062Q35.603127 209.42137 35.696877 210.01512L34.665627 210.15575Q34.603127 209.687 34.259377 209.42137Q33.93125 209.14012 33.30625 209.14012Q32.5875 209.14012 32.275 209.39012Q31.9625 209.6245 31.9625 209.95262Q31.9625 210.15575 32.0875 210.312Q32.228127 210.48387 32.49375 210.59325Q32.65 210.65575 33.43125 210.85887Q34.55625 211.17137 34.99375 211.35887Q35.43125 211.54637 35.68125 211.90575Q35.93125 212.26512 35.93125 212.812Q35.93125 213.34325 35.61875 213.812Q35.321877 214.26512 34.74375 214.53075Q34.165627 214.78075 33.43125 214.78075Q32.2125 214.78075 31.571875 214.28075Q30.946875 213.76512 30.775 212.78075Z" fill-rule="nonzero"/><path fill="#9e9e9e" d="M15.9625 224.17137L15.9625 223.15575L21.525 223.15575L21.525 223.98387Q20.7125 224.85887 19.9 226.312Q19.103125 227.7495 18.665625 229.28075Q18.3375 230.35887 18.259375 231.64012L17.165625 231.64012Q17.18125 230.6245 17.55625 229.187Q17.946875 227.7495 18.65 226.42137Q19.36875 225.09325 20.18125 224.17137L15.9625 224.17137ZM22.9 229.39012L24.009375 229.29637Q24.134375 230.10887 24.571875 230.51512Q25.025 230.92137 25.665625 230.92137Q26.415625 230.92137 26.946875 230.34325Q27.478125 229.76512 27.478125 228.82762Q27.478125 227.92137 26.9625 227.40575Q26.4625 226.8745 25.634375 226.8745Q25.134375 226.8745 24.7125 227.10887Q24.30625 227.34325 24.071875 227.70262L23.0875 227.57762L23.915625 223.17137L28.196875 223.17137L28.196875 224.17137L24.759375 224.17137L24.30625 226.48387Q25.071875 225.937 25.915625 225.937Q27.040625 225.937 27.80625 226.71825Q28.5875 227.4995 28.5875 228.73387Q28.5875 229.89012 27.915625 230.7495Q27.0875 231.78075 25.665625 231.78075Q24.49375 231.78075 23.74375 231.1245Q23.009375 230.46825 22.9 229.39012ZM30.49375 231.64012L30.49375 230.437L31.696875 230.437L31.696875 231.64012L30.49375 231.64012ZM32.9 227.40575Q32.9 225.8745 33.2125 224.95262Q33.525 224.01512 34.134377 223.51512Q34.759377 223.01512 35.696877 223.01512Q36.384377 223.01512 36.9 223.29637Q37.43125 223.57762 37.775 224.10887Q38.11875 224.6245 38.30625 225.3745Q38.49375 226.1245 38.49375 227.40575Q38.49375 228.92137 38.18125 229.84325Q37.884377 230.76512 37.259377 231.28075Q36.65 231.78075 35.696877 231.78075Q34.4625 231.78075 33.74375 230.89012Q32.9 229.82762 32.9 227.40575ZM33.978127 227.40575Q33.978127 229.51512 34.478127 230.21825Q34.978127 230.92137 35.696877 230.92137Q36.43125 230.92137 36.915627 230.21825Q37.415627 229.51512 37.415627 227.40575Q37.415627 225.28075 36.915627 224.59325Q36.43125 223.89012 35.68125 223.89012Q34.9625 223.89012 34.525 224.4995Q33.978127 225.28075 33.978127 227.40575ZM40.103127 225.10887Q40.103127 224.187 40.55625 223.54637Q41.025 222.90575 41.9 222.90575Q42.7125 222.90575 43.24375 223.48387Q43.775 224.062 43.775 225.17137Q43.775 226.26512 43.228127 226.85887Q42.696877 227.437 41.915627 227.437Q41.134377 227.437 40.61875 226.85887Q40.103127 226.28075 40.103127 225.10887ZM41.93125 223.6245Q41.540627 223.6245 41.275 223.96825Q41.025 224.312 41.025 225.21825Q41.025 226.04637 41.275 226.39012Q41.540627 226.71825 41.93125 226.71825Q42.3375 226.71825 42.5875 226.3745Q42.853127 226.03075 42.853127 225.14012Q42.853127 224.29637 42.5875 223.96825Q42.321877 223.6245 41.93125 223.6245ZM41.93125 231.95262L46.634377 222.90575L47.49375 222.90575L42.80625 231.95262L41.93125 231.95262ZM45.65 229.6245Q45.65 228.70262 46.103127 228.062Q46.571877 227.42137 47.4625 227.42137Q48.275 227.42137 48.80625 227.9995Q49.3375 228.562 49.3375 229.687Q49.3375 230.78075 48.790627 231.3745Q48.259377 231.95262 47.4625 231.95262Q46.696877 231.95262 46.165627 231.3745Q45.65 230.79637 45.65 229.6245ZM47.49375 228.14012Q47.0875 228.14012 46.821877 228.48387Q46.571877 228.82762 46.571877 229.73387Q46.571877 230.54637 46.8375 230.89012Q47.103127 231.23387 47.49375 231.23387Q47.884377 231.23387 48.15 230.89012Q48.415627 230.54637 48.415627 229.64012Q48.415627 228.812 48.15 228.48387Q47.884377 228.14012 47.49375 228.14012Z" fill-rule="nonzero"/><path stroke="#757575" stroke-width="1.0" stroke-linecap="butt" d="M15.4 219.14012L121.03333 219.14012L166.90459 219.14012" fill-rule="nonzero"/><path fill="#9e9e9e" d="M168.90459 219.14012C168.90459 218.03555 168.00916 217.14012 166.90459 217.14012C165.80002 217.14012 164.90459 218.03555 164.90459 219.14012C164.90459 220.24469 165.80002 221.14012 166.90459 221.14012C168.00916 221.14012 168.90459 220.24469 168.90459 219.14012" fill-rule="nonzero"/><path fill="#1a1a1a" d="M466.52188 100.40655L466.52188 91.8128L467.67813 91.8128L472.19376 98.5628L472.19376 91.8128L473.2875 91.8128L473.2875 100.40655L472.11563 100.40655L467.6 93.65655L467.6 100.40655L466.52188 100.40655ZM475.00626 97.29717Q475.00626 95.5628 475.95938 94.73467Q476.75626 94.04717 477.9125 94.04717Q479.19376 94.04717 480.00626 94.89092Q480.83438 95.71905 480.83438 97.20342Q480.83438 98.40655 480.475 99.09405Q480.11563 99.78155 479.4125 100.17217Q478.725 100.54717 477.9125 100.54717Q476.61563 100.54717 475.80313 99.71905Q475.00626 98.8753 475.00626 97.29717ZM476.08438 97.29717Q476.08438 98.48467 476.6 99.07842Q477.13126 99.67217 477.9125 99.67217Q478.70938 99.67217 479.225 99.07842Q479.74063 98.48467 479.74063 97.26592Q479.74063 96.10967 479.20938 95.51592Q478.69376 94.92217 477.9125 94.92217Q477.13126 94.92217 476.6 95.51592Q476.08438 96.09405 476.08438 97.29717Z" fill-rule="nonzero"/><path fill="#9e9e9e" d="M452.64688 116.39092L452.64688 117.40655L446.95938 117.40655Q446.95938 117.03155 447.08438 116.67217Q447.30313 116.09405 447.77188 115.53155Q448.25626 114.96905 449.1625 114.23467Q450.56876 113.07842 451.05313 112.40655Q451.55313 111.73467 451.55313 111.14092Q451.55313 110.51592 451.1 110.09405Q450.64688 109.65655 449.92813 109.65655Q449.1625 109.65655 448.70938 110.10967Q448.25626 110.5628 448.24063 111.3753L447.1625 111.26592Q447.27188 110.04717 447.99063 109.42217Q448.725 108.78155 449.95938 108.78155Q451.19376 108.78155 451.9125 109.46905Q452.63126 110.15655 452.63126 111.17217Q452.63126 111.6878 452.4125 112.1878Q452.20938 112.67217 451.70938 113.23467Q451.225 113.78155 450.1 114.73467Q449.14688 115.53155 448.86563 115.82842Q448.6 116.10967 448.42813 116.39092L452.64688 116.39092ZM454.1 115.15655L455.20938 115.0628Q455.33438 115.8753 455.77188 116.28155Q456.225 116.6878 456.86563 116.6878Q457.61563 116.6878 458.14688 116.10967Q458.67813 115.53155 458.67813 114.59405Q458.67813 113.6878 458.1625 113.17217Q457.6625 112.64092 456.83438 112.64092Q456.33438 112.64092 455.9125 112.8753Q455.50626 113.10967 455.27188 113.46905L454.2875 113.34405L455.11563 108.9378L459.39688 108.9378L459.39688 109.9378L455.95938 109.9378L455.50626 112.2503Q456.27188 111.70342 457.11563 111.70342Q458.24063 111.70342 459.00626 112.48467Q459.7875 113.26592 459.7875 114.5003Q459.7875 115.65655 459.11563 116.51592Q458.2875 117.54717 456.86563 117.54717Q455.69376 117.54717 454.94376 116.89092Q454.20938 116.23467 454.1 115.15655ZM461.69376 117.40655L461.69376 116.20342L462.89688 116.20342L462.89688 117.40655L461.69376 117.40655ZM464.1 113.17217Q464.1 111.64092 464.4125 110.71905Q464.725 109.78155 465.33438 109.28155Q465.95938 108.78155 466.89688 108.78155Q467.58438 108.78155 468.1 109.0628Q468.63126 109.34405 468.975 109.8753Q469.31876 110.39092 469.50626 111.14092Q469.69376 111.89092 469.69376 113.17217Q469.69376 114.6878 469.38126 115.60967Q469.08438 116.53155 468.45938 117.04717Q467.85 117.54717 466.89688 117.54717Q465.6625 117.54717 464.94376 116.65655Q464.1 115.59405 464.1 113.17217ZM465.17813 113.17217Q465.17813 115.28155 465.67813 115.98467Q466.17813 116.6878 466.89688 116.6878Q467.63126 116.6878 468.11563 115.98467Q468.61563 115.28155 468.61563 113.17217Q468.61563 111.04717 468.11563 110.35967Q467.63126 109.65655 466.88126 109.65655Q466.1625 109.65655 465.725 110.26592Q465.17813 111.04717 465.17813 113.17217ZM471.30313 110.8753Q471.30313 109.95342 471.75626 109.3128Q472.225 108.67217 473.1 108.67217Q473.9125 108.67217 474.44376 109.2503Q474.975 109.82842 474.975 110.9378Q474.975 112.03155 474.42813 112.6253Q473.89688 113.20342 473.11563 113.20342Q472.33438 113.20342 471.81876 112.6253Q471.30313 112.04717 471.30313 110.8753ZM473.13126 109.39092Q472.74063 109.39092 472.475 109.73467Q472.225 110.07842 472.225 110.98467Q472.225 111.8128 472.475 112.15655Q472.74063 112.48467 473.13126 112.48467Q473.5375 112.48467 473.7875 112.14092Q474.05313 111.79717 474.05313 110.90655Q474.05313 110.0628 473.7875 109.73467Q473.52188 109.39092 473.13126 109.39092ZM473.13126 117.71905L477.83438 108.67217L478.69376 108.67217L474.00626 117.71905L473.13126 117.71905ZM476.85 115.39092Q476.85 114.46905 477.30313 113.82842Q477.77188 113.1878 478.6625 113.1878Q479.475 113.1878 480.00626 113.76592Q480.5375 114.32842 480.5375 115.45342Q480.5375 116.54717 479.99063 117.14092Q479.45938 117.71905 478.6625 117.71905Q477.89688 117.71905 477.36563 117.14092Q476.85 116.5628 476.85 115.39092ZM478.69376 113.90655Q478.2875 113.90655 478.02188 114.2503Q477.77188 114.59405 477.77188 115.5003Q477.77188 116.3128 478.0375 116.65655Q478.30313 117.0003 478.69376 117.0003Q479.08438 117.0003 479.35 116.65655Q479.61563 116.3128 479.61563 115.40655Q479.61563 114.57842 479.35 114.2503Q479.08438 113.90655 478.69376 113.90655Z" fill-rule="nonzero"/><path stroke="#757575" stroke-width="1.0" stroke-linecap="butt" d="M481.6 104.90655L375.96667 104.90655L330.0954 104.90655" fill-rule="nonzero"/><path fill="#9e9e9e" d="M332.0954 104.90655C332.0954 103.80198 331.19998 102.90655 330.0954 102.90655C328.99084 102.90655 328.0954 103.80198 328.0954 104.90655C328.0954 106.011116 328.99084 106.90655 330.0954 106.90655C331.19998 106.90655 332.0954 106.011116 332.0954 104.90655" fill-rule="nonzero"/><path fill="#757575" d="M16.946875 34.4L16.946875 20.087502L21.86875 20.087502Q23.540625 20.087502 24.43125 20.290627Q25.65 20.571877 26.525 21.306252Q27.65 22.275002 28.2125 23.759377Q28.775 25.243752 28.775 27.165627Q28.775 28.790627 28.4 30.056252Q28.025 31.306252 27.415625 32.134377Q26.821875 32.9625 26.11875 33.446877Q25.415625 33.915627 24.415625 34.165627Q23.415625 34.4 22.103125 34.4L16.946875 34.4ZM18.8375 32.7125L21.9 32.7125Q23.30625 32.7125 24.103125 32.446877Q24.915625 32.18125 25.4 31.696877Q26.071875 31.025002 26.446875 29.900002Q26.821875 28.759377 26.821875 27.134377Q26.821875 24.884377 26.0875 23.681252Q25.353125 22.478127 24.290625 22.071877Q23.540625 21.775002 21.853125 21.775002L18.8375 21.775002L18.8375 32.7125ZM30.071875 29.212502Q30.071875 26.337502 31.665625 24.946877Q33.009377 23.790627 34.93125 23.790627Q37.071877 23.790627 38.415627 25.196877Q39.775 26.603127 39.775 29.071877Q39.775 31.071877 39.18125 32.228127Q38.5875 33.36875 37.43125 34.009377Q36.290627 34.634377 34.93125 34.634377Q32.74375 34.634377 31.4 33.24375Q30.071875 31.837502 30.071875 29.212502ZM31.86875 29.212502Q31.86875 31.212502 32.728127 32.196877Q33.603127 33.18125 34.93125 33.18125Q36.24375 33.18125 37.103127 32.196877Q37.978127 31.196877 37.978127 29.150002Q37.978127 27.228127 37.103127 26.243752Q36.228127 25.243752 34.93125 25.243752Q33.603127 25.243752 32.728127 26.243752Q31.86875 27.228127 31.86875 29.212502ZM47.634377 38.4L47.446877 36.74375Q48.025 36.9 48.446877 36.9Q49.040627 36.9 49.384377 36.696877Q49.74375 36.509377 49.9625 36.165627Q50.134377 35.9 50.509377 34.853127Q50.55625 34.696877 50.665627 34.415627L46.728127 24.025002L48.61875 24.025002L50.775 30.040627Q51.196877 31.181252 51.525 32.43125Q51.8375 31.228127 52.24375 30.071877L54.4625 24.025002L56.228127 24.025002L52.275 34.571877Q51.65 36.290627 51.290627 36.93125Q50.821877 37.80625 50.2125 38.196877Q49.61875 38.603127 48.775 38.603127Q48.259377 38.603127 47.634377 38.4ZM57.071877 29.212502Q57.071877 26.337502 58.665627 24.946877Q60.009377 23.790627 61.93125 23.790627Q64.07188 23.790627 65.41563 25.196877Q66.775 26.603127 66.775 29.071877Q66.775 31.071877 66.18125 32.228127Q65.5875 33.36875 64.43125 34.009377Q63.290627 34.634377 61.93125 34.634377Q59.74375 34.634377 58.4 33.24375Q57.071877 31.837502 57.071877 29.212502ZM58.86875 29.212502Q58.86875 31.212502 59.728127 32.196877Q60.603127 33.18125 61.93125 33.18125Q63.24375 33.18125 64.10313 32.196877Q64.97813 31.196877 64.97813 29.150002Q64.97813 27.228127 64.10313 26.243752Q63.228127 25.243752 61.93125 25.243752Q60.603127 25.243752 59.728127 26.243752Q58.86875 27.228127 58.86875 29.212502ZM75.50938 34.4L75.50938 32.86875Q74.30625 34.634377 72.22813 34.634377Q71.30625 34.634377 70.50938 34.290627Q69.7125 33.93125 69.32188 33.4Q68.94688 32.86875 68.79063 32.0875Q68.68125 31.571877 68.68125 30.446877L68.68125 24.025002L70.43125 24.025002L70.43125 29.775002Q70.43125 31.150002 70.54063 31.634377Q70.7125 32.321877 71.24375 32.728127Q71.79063 33.11875 72.57188 33.11875Q73.36875 33.11875 74.05625 32.7125Q74.75938 32.30625 75.04063 31.618752Q75.3375 30.915627 75.3375 29.587502L75.3375 24.025002L77.0875 24.025002L77.0875 34.4L75.50938 34.4ZM87.63438 34.4L84.4625 24.025002L86.275 24.025002L87.93125 30.009377L88.54063 32.24375Q88.5875 32.071877 89.07188 30.103127L90.72813 24.025002L92.54063 24.025002L94.0875 30.040627L94.60313 32.025L95.19688 30.025002L96.97813 24.025002L98.68125 24.025002L95.44688 34.4L93.61875 34.4L91.9625 28.181252L91.57188 26.415627L89.4625 34.4L87.63438 34.4ZM106.49375 33.11875Q105.50938 33.946877 104.60313 34.290627Q103.69688 34.634377 102.66563 34.634377Q100.9625 34.634377 100.04063 33.80625Q99.11875 32.9625 99.11875 31.665627Q99.11875 30.900002 99.4625 30.275002Q99.82188 29.650002 100.38438 29.275002Q100.94688 28.884377 101.65 28.681252Q102.16563 28.556252 103.2125 28.415627Q105.3375 28.165627 106.3375 27.821877Q106.35313 27.462502 106.35313 27.353127Q106.35313 26.290627 105.85313 25.837502Q105.18125 25.243752 103.85313 25.243752Q102.60313 25.243752 102.00938 25.681252Q101.43125 26.118752 101.15 27.228127L99.43125 26.993752Q99.66563 25.884377 100.19688 25.212502Q100.72813 24.525002 101.74375 24.165627Q102.75938 23.790627 104.10313 23.790627Q105.43125 23.790627 106.25938 24.103127Q107.0875 24.415627 107.47813 24.900002Q107.86875 25.368752 108.025 26.087502Q108.11875 26.540627 108.11875 27.712502L108.11875 30.056252Q108.11875 32.509377 108.22813 33.165627Q108.3375 33.80625 108.68125 34.4L106.8375 34.4Q106.57188 33.853127 106.49375 33.11875ZM106.3375 29.196877Q105.38438 29.587502 103.4625 29.853127Q102.38438 30.009377 101.93125 30.212502Q101.49375 30.400002 101.24375 30.775002Q100.99375 31.150002 100.99375 31.618752Q100.99375 32.321877 101.525 32.790627Q102.05625 33.259377 103.0875 33.259377Q104.10313 33.259377 104.88438 32.821877Q105.68125 32.36875 106.05625 31.603127Q106.3375 30.993752 106.3375 29.837502L106.3375 29.196877ZM110.7125 34.4L110.7125 24.025002L112.30625 24.025002L112.30625 25.509377Q113.44688 23.790627 115.60313 23.790627Q116.54063 23.790627 117.32188 24.134377Q118.11875 24.462502 118.50938 25.009377Q118.9 25.556252 119.05625 26.306252Q119.15 26.806252 119.15 28.025002L119.15 34.4L117.38438 34.4L117.38438 28.087502Q117.38438 27.009377 117.18125 26.478127Q116.97813 25.946877 116.44688 25.634377Q115.93125 25.321877 115.22813 25.321877Q114.10313 25.321877 113.29063 26.040627Q112.47813 26.743752 112.47813 28.728127L112.47813 34.4L110.7125 34.4ZM125.55625 32.821877L125.80625 34.384377Q125.07188 34.540627 124.47813 34.540627Q123.525 34.540627 122.99375 34.24375Q122.47813 33.93125 122.25938 33.446877Q122.04063 32.946877 122.04063 31.368752L122.04063 25.400002L120.75938 25.400002L120.75938 24.025002L122.04063 24.025002L122.04063 21.462502L123.79063 20.400002L123.79063 24.025002L125.55625 24.025002L125.55625 25.400002L123.79063 25.400002L123.79063 31.462502Q123.79063 32.2125 123.88438 32.43125Q123.97813 32.634377 124.18125 32.775Q124.4 32.9 124.79063 32.9Q125.07188 32.9 125.55625 32.821877ZM140.49374 33.11875Q139.50937 33.946877 138.60312 34.290627Q137.69687 34.634377 136.66562 34.634377Q134.9625 34.634377 134.04062 33.80625Q133.11874 32.9625 133.11874 31.665627Q133.11874 30.900002 133.4625 30.275002Q133.82187 29.650002 134.38437 29.275002Q134.94687 28.884377 135.65 28.681252Q136.16562 28.556252 137.2125 28.415627Q139.3375 28.165627 140.3375 27.821877Q140.35312 27.462502 140.35312 27.353127Q140.35312 26.290627 139.85312 25.837502Q139.18124 25.243752 137.85312 25.243752Q136.60312 25.243752 136.00937 25.681252Q135.43124 26.118752 135.15 27.228127L133.43124 26.993752Q133.66562 25.884377 134.19687 25.212502Q134.72812 24.525002 135.74374 24.165627Q136.75937 23.790627 138.10312 23.790627Q139.43124 23.790627 140.25937 24.103127Q141.0875 24.415627 141.47812 24.900002Q141.86874 25.368752 142.025 26.087502Q142.11874 26.540627 142.11874 27.712502L142.11874 30.056252Q142.11874 32.509377 142.22812 33.165627Q142.3375 33.80625 142.68124 34.4L140.8375 34.4Q140.57187 33.853127 140.49374 33.11875ZM140.3375 29.196877Q139.38437 29.587502 137.4625 29.853127Q136.38437 30.009377 135.93124 30.212502Q135.49374 30.400002 135.24374 30.775002Q134.99374 31.150002 134.99374 31.618752Q134.99374 32.321877 135.525 32.790627Q136.05624 33.259377 137.0875 33.259377Q138.10312 33.259377 138.88437 32.821877Q139.68124 32.36875 140.05624 31.603127Q140.3375 30.993752 140.3375 29.837502L140.3375 29.196877ZM150.4 35.259377L152.10312 35.509377Q152.2125 36.30625 152.69687 36.665627Q153.35312 37.15 154.49374 37.15Q155.7125 37.15 156.36874 36.665627Q157.04062 36.18125 157.275 35.30625Q157.41562 34.759377 157.4 33.040627Q156.24374 34.4 154.525 34.4Q152.38437 34.4 151.2125 32.853127Q150.04062 31.306252 150.04062 29.150002Q150.04062 27.665627 150.57187 26.415627Q151.11874 25.165627 152.13437 24.478127Q153.16562 23.790627 154.54062 23.790627Q156.36874 23.790627 157.57187 25.275002L157.57187 24.025002L159.18124 24.025002L159.18124 32.99375Q159.18124 35.415627 158.68124 36.415627Q158.19687 37.43125 157.11874 38.009377Q156.05624 38.603127 154.49374 38.603127Q152.65 38.603127 151.49374 37.775Q150.35312 36.946877 150.4 35.259377ZM151.85312 29.025002Q151.85312 31.071877 152.66562 32.009377Q153.47812 32.946877 154.69687 32.946877Q155.9 32.946877 156.7125 32.009377Q157.54062 31.071877 157.54062 29.087502Q157.54062 27.181252 156.69687 26.212502Q155.85312 25.243752 154.66562 25.243752Q153.49374 25.243752 152.66562 26.196877Q151.85312 27.150002 151.85312 29.025002ZM168.49374 33.11875Q167.50937 33.946877 166.60312 34.290627Q165.69687 34.634377 164.66562 34.634377Q162.9625 34.634377 162.04062 33.80625Q161.11874 32.9625 161.11874 31.665627Q161.11874 30.900002 161.4625 30.275002Q161.82187 29.650002 162.38437 29.275002Q162.94687 28.884377 163.65 28.681252Q164.16562 28.556252 165.2125 28.415627Q167.3375 28.165627 168.3375 27.821877Q168.35312 27.462502 168.35312 27.353127Q168.35312 26.290627 167.85312 25.837502Q167.18124 25.243752 165.85312 25.243752Q164.60312 25.243752 164.00937 25.681252Q163.43124 26.118752 163.15 27.228127L161.43124 26.993752Q161.66562 25.884377 162.19687 25.212502Q162.72812 24.525002 163.74374 24.165627Q164.75937 23.790627 166.10312 23.790627Q167.43124 23.790627 168.25937 24.103127Q169.0875 24.415627 169.47812 24.900002Q169.86874 25.368752 170.025 26.087502Q170.11874 26.540627 170.11874 27.712502L170.11874 30.056252Q170.11874 32.509377 170.22812 33.165627Q170.3375 33.80625 170.68124 34.4L168.8375 34.4Q168.57187 33.853127 168.49374 33.11875ZM168.3375 29.196877Q167.38437 29.587502 165.4625 29.853127Q164.38437 30.009377 163.93124 30.212502Q163.49374 30.400002 163.24374 30.775002Q162.99374 31.150002 162.99374 31.618752Q162.99374 32.321877 163.525 32.790627Q164.05624 33.259377 165.0875 33.259377Q166.10312 33.259377 166.88437 32.821877Q167.68124 32.36875 168.05624 31.603127Q168.3375 30.993752 168.3375 29.837502L168.3375 29.196877ZM172.7125 34.4L172.7125 24.025002L174.29062 24.025002L174.29062 25.478127Q174.775 24.728127 175.5875 24.259377Q176.4 23.790627 177.43124 23.790627Q178.5875 23.790627 179.32187 24.275002Q180.05624 24.743752 180.36874 25.603127Q181.60312 23.790627 183.57187 23.790627Q185.11874 23.790627 185.94687 24.650002Q186.775 25.509377 186.775 27.275002L186.775 34.4L185.025 34.4L185.025 27.868752Q185.025 26.806252 184.85312 26.353127Q184.68124 25.884377 184.22812 25.603127Q183.79062 25.321877 183.18124 25.321877Q182.0875 25.321877 181.35312 26.056252Q180.63437 26.775002 180.63437 28.368752L180.63437 34.4L178.88437 34.4L178.88437 27.665627Q178.88437 26.493752 178.44687 25.915627Q178.025 25.321877 177.04062 25.321877Q176.30624 25.321877 175.66562 25.712502Q175.04062 26.103127 174.75937 26.853127Q174.47812 27.603127 174.47812 29.025002L174.47812 34.4L172.7125 34.4ZM196.82187 31.056252L198.63437 31.290627Q198.2125 32.86875 197.04062 33.759377Q195.88437 34.634377 194.07187 34.634377Q191.80624 34.634377 190.4625 33.24375Q189.13437 31.837502 189.13437 29.306252Q189.13437 26.681252 190.47812 25.243752Q191.82187 23.790627 193.97812 23.790627Q196.05624 23.790627 197.36874 25.212502Q198.69687 26.618752 198.69687 29.196877Q198.69687 29.353127 198.68124 29.665627L190.94687 29.665627Q191.04062 31.368752 191.91562 32.275Q192.79062 33.18125 194.0875 33.18125Q195.05624 33.18125 195.72812 32.68125Q196.41562 32.165627 196.82187 31.056252ZM191.04062 28.212502L196.8375 28.212502Q196.72812 26.915627 196.18124 26.259377Q195.3375 25.243752 193.99374 25.243752Q192.79062 25.243752 191.9625 26.056252Q191.13437 26.853127 191.04062 28.212502ZM206.68124 34.4L206.68124 20.087502L208.43124 20.087502L208.43124 34.4L206.68124 34.4ZM210.72812 22.103127L210.72812 20.087502L212.49374 20.087502L212.49374 22.103127L210.72812 22.103127ZM210.72812 34.4L210.72812 24.025002L212.49374 24.025002L212.49374 34.4L210.72812 34.4ZM214.72812 34.4L214.72812 20.087502L216.49374 20.087502L216.49374 28.243752L220.65 24.025002L222.91562 24.025002L218.9625 27.868752L223.32187 34.4L221.15 34.4L217.72812 29.103127L216.49374 30.290627L216.49374 34.4L214.72812 34.4ZM231.82187 31.056252L233.63437 31.290627Q233.2125 32.86875 232.04062 33.759377Q230.88437 34.634377 229.07187 34.634377Q226.80624 34.634377 225.4625 33.24375Q224.13437 31.837502 224.13437 29.306252Q224.13437 26.681252 225.47812 25.243752Q226.82187 23.790627 228.97812 23.790627Q231.05624 23.790627 232.36874 25.212502Q233.69687 26.618752 233.69687 29.196877Q233.69687 29.353127 233.68124 29.665627L225.94687 29.665627Q226.04062 31.368752 226.91562 32.275Q227.79062 33.18125 229.0875 33.18125Q230.05624 33.18125 230.72812 32.68125Q231.41562 32.165627 231.82187 31.056252ZM226.04062 28.212502L231.8375 28.212502Q231.72812 26.915627 231.18124 26.259377Q230.3375 25.243752 228.99374 25.243752Q227.79062 25.243752 226.9625 26.056252Q226.13437 26.853127 226.04062 28.212502ZM248.49374 33.11875Q247.50937 33.946877 246.60312 34.290627Q245.69687 34.634377 244.66562 34.634377Q242.9625 34.634377 242.04062 33.80625Q241.11874 32.9625 241.11874 31.665627Q241.11874 30.900002 241.4625 30.275002Q241.82187 29.650002 242.38437 29.275002Q242.94687 28.884377 243.65 28.681252Q244.16562 28.556252 245.2125 28.415627Q247.3375 28.165627 248.3375 27.821877Q248.35312 27.462502 248.35312 27.353127Q248.35312 26.290627 247.85312 25.837502Q247.18124 25.243752 245.85312 25.243752Q244.60312 25.243752 244.00937 25.681252Q243.43124 26.118752 243.15 27.228127L241.43124 26.993752Q241.66562 25.884377 242.19687 25.212502Q242.72812 24.525002 243.74374 24.165627Q244.75937 23.790627 246.10312 23.790627Q247.43124 23.790627 248.25937 24.103127Q249.0875 24.415627 249.47812 24.900002Q249.86874 25.368752 250.025 26.087502Q250.11874 26.540627 250.11874 27.712502L250.11874 30.056252Q250.11874 32.509377 250.22812 33.165627Q250.3375 33.80625 250.68124 34.4L248.8375 34.4Q248.57187 33.853127 248.49374 33.11875ZM248.3375 29.196877Q247.38437 29.587502 245.4625 29.853127Q244.38437 30.009377 243.93124 30.212502Q243.49374 30.400002 243.24374 30.775002Q242.99374 31.150002 242.99374 31.618752Q242.99374 32.321877 243.525 32.790627Q244.05624 33.259377 245.0875 33.259377Q246.10312 33.259377 246.88437 32.821877Q247.68124 32.36875 248.05624 31.603127Q248.3375 30.993752 248.3375 29.837502L248.3375 29.196877ZM259.49374 30.603127L261.2125 30.821877Q260.93124 32.61875 259.75937 33.634377Q258.60312 34.634377 256.9 34.634377Q254.775 34.634377 253.47812 33.24375Q252.18124 31.853127 252.18124 29.259377Q252.18124 27.571877 252.72812 26.321877Q253.29062 25.056252 254.43124 24.431252Q255.57187 23.790627 256.91562 23.790627Q258.60312 23.790627 259.66562 24.650002Q260.74374 25.509377 261.05624 27.071877L259.3375 27.337502Q259.10312 26.290627 258.47812 25.775002Q257.85312 25.243752 256.97812 25.243752Q255.65 25.243752 254.82187 26.196877Q253.99374 27.150002 253.99374 29.196877Q253.99374 31.290627 254.79062 32.24375Q255.5875 33.18125 256.88437 33.18125Q257.91562 33.18125 258.60312 32.55625Q259.30624 31.915627 259.49374 30.603127ZM266.55624 32.821877L266.80624 34.384377Q266.07187 34.540627 265.47812 34.540627Q264.525 34.540627 263.99374 34.24375Q263.47812 33.93125 263.25937 33.446877Q263.04062 32.946877 263.04062 31.368752L263.04062 25.400002L261.75937 25.400002L261.75937 24.025002L263.04062 24.025002L263.04062 21.462502L264.79062 20.400002L264.79062 24.025002L266.55624 24.025002L266.55624 25.400002L264.79062 25.400002L264.79062 31.462502Q264.79062 32.2125 264.88437 32.43125Q264.97812 32.634377 265.18124 32.775Q265.4 32.9 265.79062 32.9Q266.07187 32.9 266.55624 32.821877ZM268.72812 22.103127L268.72812 20.087502L270.49374 20.087502L270.49374 22.103127L268.72812 22.103127ZM268.72812 34.4L268.72812 24.025002L270.49374 24.025002L270.49374 34.4L268.72812 34.4ZM275.60312 34.4L271.65 24.025002L273.50937 24.025002L275.74374 30.243752Q276.10312 31.243752 276.4 32.321877Q276.63437 31.509377 277.05624 30.353127L279.35312 24.025002L281.16562 24.025002L277.24374 34.4L275.60312 34.4ZM282.72812 22.103127L282.72812 20.087502L284.49374 20.087502L284.49374 22.103127L282.72812 22.103127ZM282.72812 34.4L282.72812 24.025002L284.49374 24.025002L284.49374 34.4L282.72812 34.4ZM290.55624 32.821877L290.80624 34.384377Q290.07187 34.540627 289.47812 34.540627Q288.525 34.540627 287.99374 34.24375Q287.47812 33.93125 287.25937 33.446877Q287.04062 32.946877 287.04062 31.368752L287.04062 25.400002L285.75937 25.400002L285.75937 24.025002L287.04062 24.025002L287.04062 21.462502L288.79062 20.400002L288.79062 24.025002L290.55624 24.025002L290.55624 25.400002L288.79062 25.400002L288.79062 31.462502Q288.79062 32.2125 288.88437 32.43125Q288.97812 32.634377 289.18124 32.775Q289.4 32.9 289.79062 32.9Q290.07187 32.9 290.55624 32.821877ZM292.63437 38.4L292.44687 36.74375Q293.025 36.9 293.44687 36.9Q294.04062 36.9 294.38437 36.696877Q294.74374 36.509377 294.9625 36.165627Q295.13437 35.9 295.50937 34.853127Q295.55624 34.696877 295.66562 34.415627L291.72812 24.025002L293.61874 24.025002L295.775 30.040627Q296.19687 31.181252 296.525 32.43125Q296.8375 31.228127 297.24374 30.071877L299.4625 24.025002L301.22812 24.025002L297.275 34.571877Q296.65 36.290627 296.29062 36.93125Q295.82187 37.80625 295.2125 38.196877Q294.61874 38.603127 293.775 38.603127Q293.25937 38.603127 292.63437 38.4ZM308.72812 22.103127L308.72812 20.087502L310.49374 20.087502L310.49374 22.103127L308.72812 22.103127ZM308.72812 34.4L308.72812 24.025002L310.49374 24.025002L310.49374 34.4L308.72812 34.4ZM312.7125 34.4L312.7125 24.025002L314.30624 24.025002L314.30624 25.509377Q315.44687 23.790627 317.60312 23.790627Q318.54062 23.790627 319.32187 24.134377Q320.11874 24.462502 320.50937 25.009377Q320.9 25.556252 321.05624 26.306252Q321.15 26.806252 321.15 28.025002L321.15 34.4L319.38437 34.4L319.38437 28.087502Q319.38437 27.009377 319.18124 26.478127Q318.97812 25.946877 318.44687 25.634377Q317.93124 25.321877 317.22812 25.321877Q316.10312 25.321877 315.29062 26.040627Q314.47812 26.743752 314.47812 28.728127L314.47812 34.4L312.7125 34.4ZM329.07187 29.212502Q329.07187 26.337502 330.66562 24.946877Q332.00937 23.790627 333.93124 23.790627Q336.07187 23.790627 337.41562 25.196877Q338.775 26.603127 338.775 29.071877Q338.775 31.071877 338.18124 32.228127Q337.5875 33.36875 336.43124 34.009377Q335.29062 34.634377 333.93124 34.634377Q331.74374 34.634377 330.4 33.24375Q329.07187 31.837502 329.07187 29.212502ZM330.86874 29.212502Q330.86874 31.212502 331.72812 32.196877Q332.60312 33.18125 333.93124 33.18125Q335.24374 33.18125 336.10312 32.196877Q336.97812 31.196877 336.97812 29.150002Q336.97812 27.228127 336.10312 26.243752Q335.22812 25.243752 333.93124 25.243752Q332.60312 25.243752 331.72812 26.243752Q330.86874 27.228127 330.86874 29.212502ZM347.50937 34.4L347.50937 32.86875Q346.30624 34.634377 344.22812 34.634377Q343.30624 34.634377 342.50937 34.290627Q341.7125 33.93125 341.32187 33.4Q340.94687 32.86875 340.79062 32.0875Q340.68124 31.571877 340.68124 30.446877L340.68124 24.025002L342.43124 24.025002L342.43124 29.775002Q342.43124 31.150002 342.54062 31.634377Q342.7125 32.321877 343.24374 32.728127Q343.79062 33.11875 344.57187 33.11875Q345.36874 33.11875 346.05624 32.7125Q346.75937 32.30625 347.04062 31.618752Q347.3375 30.915627 347.3375 29.587502L347.3375 24.025002L349.0875 24.025002L349.0875 34.4L347.50937 34.4ZM351.69687 34.4L351.69687 24.025002L353.275 24.025002L353.275 25.603127Q353.88437 24.493752 354.4 24.150002Q354.91562 23.790627 355.525 23.790627Q356.41562 23.790627 357.3375 24.353127L356.72812 25.993752Q356.0875 25.603127 355.44687 25.603127Q354.86874 25.603127 354.4 25.962502Q353.94687 26.306252 353.74374 26.915627Q353.4625 27.853127 353.4625 28.962502L353.4625 34.4L351.69687 34.4ZM366.63437 34.4L363.4625 24.025002L365.275 24.025002L366.93124 30.009377L367.54062 32.24375Q367.5875 32.071877 368.07187 30.103127L369.72812 24.025002L371.54062 24.025002L373.0875 30.040627L373.60312 32.025L374.19687 30.025002L375.97812 24.025002L377.68124 24.025002L374.44687 34.4L372.61874 34.4L370.9625 28.181252L370.57187 26.415627L368.4625 34.4L366.63437 34.4ZM378.07187 29.212502Q378.07187 26.337502 379.66562 24.946877Q381.00937 23.790627 382.93124 23.790627Q385.07187 23.790627 386.41562 25.196877Q387.775 26.603127 387.775 29.071877Q387.775 31.071877 387.18124 32.228127Q386.5875 33.36875 385.43124 34.009377Q384.29062 34.634377 382.93124 34.634377Q380.74374 34.634377 379.4 33.24375Q378.07187 31.837502 378.07187 29.212502ZM379.86874 29.212502Q379.86874 31.212502 380.72812 32.196877Q381.60312 33.18125 382.93124 33.18125Q384.24374 33.18125 385.10312 32.196877Q385.97812 31.196877 385.97812 29.150002Q385.97812 27.228127 385.10312 26.243752Q384.22812 25.243752 382.93124 25.243752Q381.60312 25.243752 380.72812 26.243752Q379.86874 27.228127 379.86874 29.212502ZM389.69687 34.4L389.69687 24.025002L391.275 24.025002L391.275 25.603127Q391.88437 24.493752 392.4 24.150002Q392.91562 23.790627 393.525 23.790627Q394.41562 23.790627 395.3375 24.353127L394.72812 25.993752Q394.0875 25.603127 393.44687 25.603127Q392.86874 25.603127 392.4 25.962502Q391.94687 26.306252 391.74374 26.915627Q391.4625 27.853127 391.4625 28.962502L391.4625 34.4L389.69687 34.4ZM396.72812 34.4L396.72812 20.087502L398.49374 20.087502L398.49374 28.243752L402.65 24.025002L404.91562 24.025002L400.9625 27.868752L405.32187 34.4L403.15 34.4L399.72812 29.103127L398.49374 30.290627L398.49374 34.4L396.72812 34.4ZM406.00937 31.306252L407.75937 31.025002Q407.9 32.071877 408.57187 32.634377Q409.24374 33.18125 410.44687 33.18125Q411.65 33.18125 412.22812 32.696877Q412.82187 32.196877 412.82187 31.540627Q412.82187 30.946877 412.30624 30.603127Q411.94687 30.368752 410.50937 30.009377Q408.57187 29.509377 407.82187 29.165627Q407.0875 28.806252 406.69687 28.181252Q406.30624 27.540627 406.30624 26.775002Q406.30624 26.087502 406.61874 25.493752Q406.94687 24.900002 407.49374 24.509377Q407.9 24.212502 408.60312 24.009377Q409.32187 23.790627 410.13437 23.790627Q411.35312 23.790627 412.275 24.150002Q413.19687 24.493752 413.63437 25.103127Q414.07187 25.696877 414.24374 26.696877L412.525 26.931252Q412.4 26.134377 411.8375 25.696877Q411.275 25.243752 410.25937 25.243752Q409.04062 25.243752 408.525 25.650002Q408.00937 26.040627 408.00937 26.571877Q408.00937 26.915627 408.22812 27.196877Q408.43124 27.478127 408.9 27.665627Q409.16562 27.759377 410.44687 28.103127Q412.32187 28.603127 413.05624 28.931252Q413.79062 29.243752 414.2125 29.853127Q414.63437 30.446877 414.63437 31.353127Q414.63437 32.228127 414.11874 33.009377Q413.60312 33.790627 412.63437 34.2125Q411.66562 34.634377 410.44687 34.634377Q408.43124 34.634377 407.36874 33.790627Q406.30624 32.946877 406.00937 31.306252ZM416.7125 34.4L416.7125 20.087502L418.47812 20.087502L418.47812 25.212502Q419.7125 23.790627 421.5875 23.790627Q422.72812 23.790627 423.57187 24.243752Q424.43124 24.696877 424.79062 25.509377Q425.16562 26.306252 425.16562 27.821877L425.16562 34.4L423.41562 34.4L423.41562 27.821877Q423.41562 26.509377 422.8375 25.915627Q422.25937 25.306252 421.22812 25.306252Q420.44687 25.306252 419.74374 25.712502Q419.05624 26.118752 418.75937 26.821877Q418.47812 27.509377 418.47812 28.728127L418.47812 34.4L416.7125 34.4ZM427.07187 29.212502Q427.07187 26.337502 428.66562 24.946877Q430.00937 23.790627 431.93124 23.790627Q434.07187 23.790627 435.41562 25.196877Q436.775 26.603127 436.775 29.071877Q436.775 31.071877 436.18124 32.228127Q435.5875 33.36875 434.43124 34.009377Q433.29062 34.634377 431.93124 34.634377Q429.74374 34.634377 428.4 33.24375Q427.07187 31.837502 427.07187 29.212502ZM428.86874 29.212502Q428.86874 31.212502 429.72812 32.196877Q430.60312 33.18125 431.93124 33.18125Q433.24374 33.18125 434.10312 32.196877Q434.97812 31.196877 434.97812 29.150002Q434.97812 27.228127 434.10312 26.243752Q433.22812 25.243752 431.93124 25.243752Q430.60312 25.243752 429.72812 26.243752Q428.86874 27.228127 428.86874 29.212502ZM438.7125 38.36875L438.7125 24.025002L440.32187 24.025002L440.32187 25.368752Q440.88437 24.587502 441.5875 24.196877Q442.30624 23.790627 443.32187 23.790627Q444.65 23.790627 445.66562 24.478127Q446.68124 25.165627 447.19687 26.415627Q447.72812 27.650002 447.72812 29.134377Q447.72812 30.728127 447.15 32.009377Q446.5875 33.275 445.49374 33.9625Q444.4 34.634377 443.19687 34.634377Q442.32187 34.634377 441.61874 34.259377Q440.93124 33.884377 440.47812 33.321877L440.47812 38.36875L438.7125 38.36875ZM440.30624 29.275002Q440.30624 31.275002 441.11874 32.228127Q441.93124 33.18125 443.0875 33.18125Q444.25937 33.18125 445.0875 32.196877Q445.93124 31.212502 445.93124 29.118752Q445.93124 27.150002 445.10312 26.165627Q444.29062 25.165627 443.16562 25.165627Q442.04062 25.165627 441.16562 26.228127Q440.30624 27.275002 440.30624 29.275002ZM453.00937 30.868752Q452.99374 30.525002 452.99374 30.353127Q452.99374 29.306252 453.29062 28.556252Q453.50937 27.993752 453.99374 27.415627Q454.3375 26.993752 455.24374 26.196877Q456.16562 25.384377 456.43124 24.915627Q456.7125 24.431252 456.7125 23.868752Q456.7125 22.837502 455.9 22.071877Q455.10312 21.290627 453.94687 21.290627Q452.82187 21.290627 452.07187 21.993752Q451.32187 22.696877 451.0875 24.181252L449.275 23.962502Q449.525 21.962502 450.72812 20.900002Q451.93124 19.837502 453.91562 19.837502Q456.025 19.837502 457.275 20.978127Q458.525 22.118752 458.525 23.743752Q458.525 24.681252 458.07187 25.478127Q457.63437 26.259377 456.35312 27.400002Q455.49374 28.165627 455.22812 28.525002Q454.97812 28.884377 454.8375 29.353127Q454.7125 29.821877 454.69687 30.868752L453.00937 30.868752ZM452.9 34.4L452.9 32.4L454.9 32.4L454.9 34.4L452.9 34.4Z" fill-rule="nonzero"/></svg>