<svg version="1.1" viewBox="0.0 0.0 497.0 308.0" fill="none" stroke="none" stroke-linecap="square" stroke-miterlimit="10" width="497" height="308" xmlns:xlink="http://www.w3.org/1999/xlink" xmlns="http://www.w3.org/2000/svg"><path fill="#ffffff" d="M0 0L497.0 0L497.0 308.0L0 308.0L0 0Z" fill-rule="nonzero"/><path fill="#a42f25" d="M369.96667 180.24333C369.96667 227.20227 315.5842 265.27 248.5 265.27C181.41582 265.27 127.03333 227.20227 127.03333 180.24333L127.03333 162.02333C127.03333 208.98227 181.41582 247.05 248.5 247.05C315.5842 247.05 369.96667 208.98227 369.96667 162.02333Z" fill-rule="nonzero"/><path fill="#a42f25" d="M187.76666 162.02333C187.76666 138.54387 214.9579 119.51 248.5 119.51C282.04208 119.51 309.23334 138.54387 309.23334 162.02333L309.23334 180.24333C309.23334 156.76387 282.04208 137.73 248.5 137.73C214.9579 137.73 187.76666 156.76387 187.76666 180.24333Z" fill-rule="nonzero"/><path fill="#ea4335" d="M248.5 76.996666C315.5842 76.996666 369.96667 115.0644 369.96667 162.02333C369.96667 208.98227 315.5842 247.05 248.5 247.05C181.41582 247.05 127.03333 208.98227 127.03333 162.02333C127.03333 115.0644 181.41582 76.996666 248.5 76.996666L248.5 119.51C214.9579 119.51 187.76666 138.54387 187.76666 162.02333C187.76666 185.50279 214.9579 204.53667 248.5 204.53667C282.04208 204.53667 309.23334 185.50279 309.23334 162.02333C309.23334 138.54387 282.04208 119.51 248.5 119.51Z" fill-rule="nonzero"/><path fill="#1a1a1a" d="M463.94376 238.29866L463.94376 234.65804L460.63126 229.70491L462.02188 229.70491L463.70938 232.29866Q464.17813 233.01741 464.58438 233.75179Q464.975 233.07991 465.52188 232.23616L467.19376 229.70491L468.50626 229.70491L465.08438 234.65804L465.08438 238.29866L463.94376 238.29866ZM473.64688 236.29866L474.74063 236.42366Q474.49063 237.37679 473.7875 237.90804Q473.08438 238.43929 472.00626 238.43929Q470.64688 238.43929 469.83438 237.59554Q469.0375 236.75179 469.0375 235.23616Q469.0375 233.67366 469.85 232.81429Q470.6625 231.93929 471.94376 231.93929Q473.19376 231.93929 473.975 232.78304Q474.77188 233.62679 474.77188 235.17366Q474.77188 235.26741 474.77188 235.45491L470.13126 235.45491Q470.19376 236.48616 470.70938 237.03304Q471.225 237.56429 472.00626 237.56429Q472.58438 237.56429 472.99063 237.26741Q473.4125 236.95491 473.64688 236.29866ZM470.19376 234.59554L473.6625 234.59554Q473.6 233.79866 473.27188 233.40804Q472.75626 232.79866 471.95938 232.79866Q471.225 232.79866 470.725 233.28304Q470.24063 233.76741 470.19376 234.59554ZM475.975 236.43929L477.00626 236.28304Q477.1 236.90804 477.49063 237.23616Q477.89688 237.56429 478.63126 237.56429Q479.35 237.56429 479.69376 237.28304Q480.05313 236.98616 480.05313 236.57991Q480.05313 236.22054 479.74063 236.01741Q479.52188 235.87679 478.6625 235.65804Q477.50626 235.36116 477.05313 235.15804Q476.61563 234.93929 476.38126 234.56429Q476.14688 234.18929 476.14688 233.72054Q476.14688 233.31429 476.33438 232.95491Q476.52188 232.59554 476.85 232.36116Q477.1 232.18929 477.52188 232.06429Q477.94376 231.93929 478.44376 231.93929Q479.1625 231.93929 479.70938 232.15804Q480.27188 232.36116 480.5375 232.72054Q480.80313 233.07991 480.89688 233.67366L479.86563 233.81429Q479.80313 233.34554 479.45938 233.07991Q479.13126 232.79866 478.50626 232.79866Q477.7875 232.79866 477.475 233.04866Q477.1625 233.28304 477.1625 233.61116Q477.1625 233.81429 477.2875 233.97054Q477.42813 234.14241 477.69376 234.25179Q477.85 234.31429 478.63126 234.51741Q479.75626 234.82991 480.19376 235.01741Q480.63126 235.20491 480.88126 235.56429Q481.13126 235.92366 481.13126 236.47054Q481.13126 237.00179 480.81876 237.47054Q480.52188 237.92366 479.94376 238.18929Q479.36563 238.43929 478.63126 238.43929Q477.4125 238.43929 476.77188 237.93929Q476.14688 237.42366 475.975 236.43929Z" fill-rule="nonzero"/><path fill="#9e9e9e" d="M444.06876 255.29866L443.02188 255.29866L443.02188 248.57991Q442.63126 248.93929 442.00626 249.31429Q441.39688 249.67366 440.9125 249.84554L440.9125 248.82991Q441.7875 248.40804 442.44376 247.82991Q443.11563 247.23616 443.39688 246.67366L444.06876 246.67366L444.06876 255.29866ZM447.1 251.06429Q447.1 249.53304 447.4125 248.61116Q447.725 247.67366 448.33438 247.17366Q448.95938 246.67366 449.89688 246.67366Q450.58438 246.67366 451.1 246.95491Q451.63126 247.23616 451.975 247.76741Q452.31876 248.28304 452.50626 249.03304Q452.69376 249.78304 452.69376 251.06429Q452.69376 252.57991 452.38126 253.50179Q452.08438 254.42366 451.45938 254.93929Q450.85 255.43929 449.89688 255.43929Q448.6625 255.43929 447.94376 254.54866Q447.1 253.48616 447.1 251.06429ZM448.17813 251.06429Q448.17813 253.17366 448.67813 253.87679Q449.17813 254.57991 449.89688 254.57991Q450.63126 254.57991 451.11563 253.87679Q451.61563 253.17366 451.61563 251.06429Q451.61563 248.93929 451.11563 248.25179Q450.63126 247.54866 449.88126 247.54866Q449.1625 247.54866 448.725 248.15804Q448.17813 248.93929 448.17813 251.06429ZM454.1 251.06429Q454.1 249.53304 454.4125 248.61116Q454.725 247.67366 455.33438 247.17366Q455.95938 246.67366 456.89688 246.67366Q457.58438 246.67366 458.1 246.95491Q458.63126 247.23616 458.975 247.76741Q459.31876 248.28304 459.50626 249.03304Q459.69376 249.78304 459.69376 251.06429Q459.69376 252.57991 459.38126 253.50179Q459.08438 254.42366 458.45938 254.93929Q457.85 255.43929 456.89688 255.43929Q455.6625 255.43929 454.94376 254.54866Q454.1 253.48616 454.1 251.06429ZM455.17813 251.06429Q455.17813 253.17366 455.67813 253.87679Q456.17813 254.57991 456.89688 254.57991Q457.63126 254.57991 458.11563 253.87679Q458.61563 253.17366 458.61563 251.06429Q458.61563 248.93929 458.11563 248.25179Q457.63126 247.54866 456.88126 247.54866Q456.1625 247.54866 455.725 248.15804Q455.17813 248.93929 455.17813 251.06429ZM461.69376 255.29866L461.69376 254.09554L462.89688 254.09554L462.89688 255.29866L461.69376 255.29866ZM464.1 251.06429Q464.1 249.53304 464.4125 248.61116Q464.725 247.67366 465.33438 247.17366Q465.95938 246.67366 466.89688 246.67366Q467.58438 246.67366 468.1 246.95491Q468.63126 247.23616 468.975 247.76741Q469.31876 248.28304 469.50626 249.03304Q469.69376 249.78304 469.69376 251.06429Q469.69376 252.57991 469.38126 253.50179Q469.08438 254.42366 468.45938 254.93929Q467.85 255.43929 466.89688 255.43929Q465.6625 255.43929 464.94376 254.54866Q464.1 253.48616 464.1 251.06429ZM465.17813 251.06429Q465.17813 253.17366 465.67813 253.87679Q466.17813 254.57991 466.89688 254.57991Q467.63126 254.57991 468.11563 253.87679Q468.61563 253.17366 468.61563 251.06429Q468.61563 248.93929 468.11563 248.25179Q467.63126 247.54866 466.88126 247.54866Q466.1625 247.54866 465.725 248.15804Q465.17813 248.93929 465.17813 251.06429ZM471.30313 248.76741Q471.30313 247.84554 471.75626 247.20491Q472.225 246.56429 473.1 246.56429Q473.9125 246.56429 474.44376 247.14241Q474.975 247.72054 474.975 248.82991Q474.975 249.92366 474.42813 250.51741Q473.89688 251.09554 473.11563 251.09554Q472.33438 251.09554 471.81876 250.51741Q471.30313 249.93929 471.30313 248.76741ZM473.13126 247.28304Q472.74063 247.28304 472.475 247.62679Q472.225 247.97054 472.225 248.87679Q472.225 249.70491 472.475 250.04866Q472.74063 250.37679 473.13126 250.37679Q473.5375 250.37679 473.7875 250.03304Q474.05313 249.68929 474.05313 248.79866Q474.05313 247.95491 473.7875 247.62679Q473.52188 247.28304 473.13126 247.28304ZM473.13126 255.61116L477.83438 246.56429L478.69376 246.56429L474.00626 255.61116L473.13126 255.61116ZM476.85 253.28304Q476.85 252.36116 477.30313 251.72054Q477.77188 251.07991 478.6625 251.07991Q479.475 251.07991 480.00626 251.65804Q480.5375 252.22054 480.5375 253.34554Q480.5375 254.43929 479.99063 255.03304Q479.45938 255.61116 478.6625 255.61116Q477.89688 255.61116 477.36563 255.03304Q476.85 254.45491 476.85 253.28304ZM478.69376 251.79866Q478.2875 251.79866 478.02188 252.14241Q477.77188 252.48616 477.77188 253.39241Q477.77188 254.20491 478.0375 254.54866Q478.30313 254.89241 478.69376 254.89241Q479.08438 254.89241 479.35 254.54866Q479.61563 254.20491 479.61563 253.29866Q479.61563 252.47054 479.35 252.14241Q479.08438 251.79866 478.69376 251.79866Z" fill-rule="nonzero"/><path stroke="#757575" stroke-width="1.0" stroke-linecap="butt" d="M481.6 242.79866L375.96667 242.79866L248.5 242.79866" fill-rule="nonzero"/><path fill="#9e9e9e" d="M250.5 242.79866C250.5 241.69409 249.60457 240.79866 248.5 240.79866C247.39543 240.79866 246.5 241.69409 246.5 242.79866C246.5 243.90323 247.39543 244.79866 248.5 244.79866C249.60457 244.79866 250.5 243.90323 250.5 242.79866" fill-rule="nonzero"/><path fill="#757575" d="M16.86875 34.4L16.86875 20.087502L22.24375 20.087502Q23.884375 20.087502 24.86875 20.525002Q25.853125 20.946877 26.415625 21.853127Q26.978125 22.759377 26.978125 23.743752Q26.978125 24.665627 26.478125 25.478127Q25.99375 26.290627 24.978125 26.775002Q26.275 27.165627 26.978125 28.087502Q27.68125 28.993752 27.68125 30.243752Q27.68125 31.259377 27.24375 32.11875Q26.821875 32.978127 26.196875 33.446877Q25.571875 33.915627 24.634375 34.165627Q23.696875 34.4 22.321875 34.4L16.86875 34.4ZM18.759375 26.103127L21.853125 26.103127Q23.11875 26.103127 23.665625 25.931252Q24.384375 25.712502 24.74375 25.228127Q25.11875 24.728127 25.11875 23.962502Q25.11875 23.259377 24.775 22.712502Q24.43125 22.165627 23.790625 21.978127Q23.165625 21.775002 21.61875 21.775002L18.759375 21.775002L18.759375 26.103127ZM18.759375 32.7125L22.321875 32.7125Q23.24375 32.7125 23.61875 32.634377Q24.275 32.525 24.7125 32.259377Q25.15 31.978127 25.43125 31.462502Q25.7125 30.931252 25.7125 30.243752Q25.7125 29.446877 25.30625 28.853127Q24.9 28.259377 24.165625 28.025002Q23.43125 27.790627 22.071875 27.790627L18.759375 27.790627L18.759375 32.7125ZM36.49375 33.11875Q35.509377 33.946877 34.603127 34.290627Q33.696877 34.634377 32.665627 34.634377Q30.9625 34.634377 30.040625 33.80625Q29.11875 32.9625 29.11875 31.665627Q29.11875 30.900002 29.4625 30.275002Q29.821875 29.650002 30.384375 29.275002Q30.946875 28.884377 31.65 28.681252Q32.165627 28.556252 33.2125 28.415627Q35.3375 28.165627 36.3375 27.821877Q36.353127 27.462502 36.353127 27.353127Q36.353127 26.290627 35.853127 25.837502Q35.18125 25.243752 33.853127 25.243752Q32.603127 25.243752 32.009377 25.681252Q31.43125 26.118752 31.15 27.228127L29.43125 26.993752Q29.665625 25.884377 30.196875 25.212502Q30.728125 24.525002 31.74375 24.165627Q32.759377 23.790627 34.103127 23.790627Q35.43125 23.790627 36.259377 24.103127Q37.0875 24.415627 37.478127 24.900002Q37.86875 25.368752 38.025 26.087502Q38.11875 26.540627 38.11875 27.712502L38.11875 30.056252Q38.11875 32.509377 38.228127 33.165627Q38.3375 33.80625 38.68125 34.4L36.8375 34.4Q36.571877 33.853127 36.49375 33.11875ZM36.3375 29.196877Q35.384377 29.587502 33.4625 29.853127Q32.384377 30.009377 31.93125 30.212502Q31.49375 30.400002 31.24375 30.775002Q30.99375 31.150002 30.99375 31.618752Q30.99375 32.321877 31.525 32.790627Q32.05625 33.259377 33.0875 33.259377Q34.103127 33.259377 34.884377 32.821877Q35.68125 32.36875 36.05625 31.603127Q36.3375 30.993752 36.3375 29.837502L36.3375 29.196877ZM40.009377 31.306252L41.759377 31.025002Q41.9 32.071877 42.571877 32.634377Q43.24375 33.18125 44.446877 33.18125Q45.65 33.18125 46.228127 32.696877Q46.821877 32.196877 46.821877 31.540627Q46.821877 30.946877 46.30625 30.603127Q45.946877 30.368752 44.509377 30.009377Q42.571877 29.509377 41.821877 29.165627Q41.0875 28.806252 40.696877 28.181252Q40.30625 27.540627 40.30625 26.775002Q40.30625 26.087502 40.61875 25.493752Q40.946877 24.900002 41.49375 24.509377Q41.9 24.212502 42.603127 24.009377Q43.321877 23.790627 44.134377 23.790627Q45.353127 23.790627 46.275 24.150002Q47.196877 24.493752 47.634377 25.103127Q48.071877 25.696877 48.24375 26.696877L46.525 26.931252Q46.4 26.134377 45.8375 25.696877Q45.275 25.243752 44.259377 25.243752Q43.040627 25.243752 42.525 25.650002Q42.009377 26.040627 42.009377 26.571877Q42.009377 26.915627 42.228127 27.196877Q42.43125 27.478127 42.9 27.665627Q43.165627 27.759377 44.446877 28.103127Q46.321877 28.603127 47.05625 28.931252Q47.790627 29.243752 48.2125 29.853127Q48.634377 30.446877 48.634377 31.353127Q48.634377 32.228127 48.11875 33.009377Q47.603127 33.790627 46.634377 34.2125Q45.665627 34.634377 44.446877 34.634377Q42.43125 34.634377 41.36875 33.790627Q40.30625 32.946877 40.009377 31.306252ZM57.821877 31.056252L59.634377 31.290627Q59.2125 32.86875 58.040627 33.759377Q56.884377 34.634377 55.071877 34.634377Q52.80625 34.634377 51.4625 33.24375Q50.134377 31.837502 50.134377 29.306252Q50.134377 26.681252 51.478127 25.243752Q52.821877 23.790627 54.978127 23.790627Q57.05625 23.790627 58.36875 25.212502Q59.696877 26.618752 59.696877 29.196877Q59.696877 29.353127 59.68125 29.665627L51.946877 29.665627Q52.040627 31.368752 52.915627 32.275Q53.790627 33.18125 55.0875 33.18125Q56.05625 33.18125 56.728127 32.68125Q57.415627 32.165627 57.821877 31.056252ZM52.040627 28.212502L57.8375 28.212502Q57.728127 26.915627 57.18125 26.259377Q56.3375 25.243752 54.99375 25.243752Q53.790627 25.243752 52.9625 26.056252Q52.134377 26.853127 52.040627 28.212502ZM68.44688 34.4L68.44688 33.0875Q67.4625 34.634377 65.54063 34.634377Q64.30625 34.634377 63.259377 33.946877Q62.228127 33.259377 61.65 32.040627Q61.0875 30.821877 61.0875 29.228127Q61.0875 27.665627 61.603127 26.400002Q62.11875 25.134377 63.15 24.462502Q64.19688 23.790627 65.4625 23.790627Q66.4 23.790627 67.13438 24.196877Q67.86875 24.587502 68.3375 25.212502L68.3375 20.087502L70.07188 20.087502L70.07188 34.4L68.44688 34.4ZM62.884377 29.228127Q62.884377 31.212502 63.728127 32.196877Q64.57188 33.18125 65.7125 33.18125Q66.86875 33.18125 67.66563 32.24375Q68.47813 31.306252 68.47813 29.368752Q68.47813 27.243752 67.65 26.243752Q66.8375 25.243752 65.63438 25.243752Q64.4625 25.243752 63.665627 26.212502Q62.884377 27.165627 62.884377 29.228127ZM78.07188 29.212502Q78.07188 26.337502 79.66563 24.946877Q81.00938 23.790627 82.93125 23.790627Q85.07188 23.790627 86.41563 25.196877Q87.775 26.603127 87.775 29.071877Q87.775 31.071877 87.18125 32.228127Q86.5875 33.36875 85.43125 34.009377Q84.29063 34.634377 82.93125 34.634377Q80.74375 34.634377 79.4 33.24375Q78.07188 31.837502 78.07188 29.212502ZM79.86875 29.212502Q79.86875 31.212502 80.72813 32.196877Q81.60313 33.18125 82.93125 33.18125Q84.24375 33.18125 85.10313 32.196877Q85.97813 31.196877 85.97813 29.150002Q85.97813 27.228127 85.10313 26.243752Q84.22813 25.243752 82.93125 25.243752Q81.60313 25.243752 80.72813 26.243752Q79.86875 27.228127 79.86875 29.212502ZM89.7125 34.4L89.7125 24.025002L91.30625 24.025002L91.30625 25.509377Q92.44688 23.790627 94.60313 23.790627Q95.54063 23.790627 96.32188 24.134377Q97.11875 24.462502 97.50938 25.009377Q97.9 25.556252 98.05625 26.306252Q98.15 26.806252 98.15 28.025002L98.15 34.4L96.38438 34.4L96.38438 28.087502Q96.38438 27.009377 96.18125 26.478127Q95.97813 25.946877 95.44688 25.634377Q94.93125 25.321877 94.22813 25.321877Q93.10313 25.321877 92.29063 26.040627Q91.47813 26.743752 91.47813 28.728127L91.47813 34.4L89.7125 34.4ZM106.63438 38.4L106.44688 36.74375Q107.025 36.9 107.44688 36.9Q108.04063 36.9 108.38438 36.696877Q108.74375 36.509377 108.9625 36.165627Q109.13438 35.9 109.50938 34.853127Q109.55625 34.696877 109.66563 34.415627L105.72813 24.025002L107.61875 24.025002L109.775 30.040627Q110.19688 31.181252 110.525 32.43125Q110.8375 31.228127 111.24375 30.071877L113.4625 24.025002L115.22813 24.025002L111.275 34.571877Q110.65 36.290627 110.29063 36.93125Q109.82188 37.80625 109.2125 38.196877Q108.61875 38.603127 107.775 38.603127Q107.25938 38.603127 106.63438 38.4ZM116.07188 29.212502Q116.07188 26.337502 117.66563 24.946877Q119.00938 23.790627 120.93125 23.790627Q123.07188 23.790627 124.41563 25.196877Q125.775 26.603127 125.775 29.071877Q125.775 31.071877 125.18125 32.228127Q124.5875 33.36875 123.43125 34.009377Q122.29063 34.634377 120.93125 34.634377Q118.74375 34.634377 117.4 33.24375Q116.07188 31.837502 116.07188 29.212502ZM117.86875 29.212502Q117.86875 31.212502 118.72813 32.196877Q119.60313 33.18125 120.93125 33.18125Q122.24375 33.18125 123.10313 32.196877Q123.97813 31.196877 123.97813 29.150002Q123.97813 27.228127 123.10313 26.243752Q122.22813 25.243752 120.93125 25.243752Q119.60313 25.243752 118.72813 26.243752Q117.86875 27.228127 117.86875 29.212502ZM134.50937 34.4L134.50937 32.86875Q133.30624 34.634377 131.22812 34.634377Q130.30624 34.634377 129.50937 34.290627Q128.7125 33.93125 128.32187 33.4Q127.94688 32.86875 127.79063 32.0875Q127.68125 31.571877 127.68125 30.446877L127.68125 24.025002L129.43124 24.025002L129.43124 29.775002Q129.43124 31.150002 129.54062 31.634377Q129.7125 32.321877 130.24374 32.728127Q130.79062 33.11875 131.57187 33.11875Q132.36874 33.11875 133.05624 32.7125Q133.75937 32.30625 134.04062 31.618752Q134.3375 30.915627 134.3375 29.587502L134.3375 24.025002L136.0875 24.025002L136.0875 34.4L134.50937 34.4ZM138.69687 34.4L138.69687 24.025002L140.275 24.025002L140.275 25.603127Q140.88437 24.493752 141.4 24.150002Q141.91562 23.790627 142.525 23.790627Q143.41562 23.790627 144.3375 24.353127L143.72812 25.993752Q143.0875 25.603127 142.44687 25.603127Q141.86874 25.603127 141.4 25.962502Q140.94687 26.306252 140.74374 26.915627Q140.4625 27.853127 140.4625 28.962502L140.4625 34.4L138.69687 34.4ZM158.82187 31.056252L160.63437 31.290627Q160.2125 32.86875 159.04062 33.759377Q157.88437 34.634377 156.07187 34.634377Q153.80624 34.634377 152.4625 33.24375Q151.13437 31.837502 151.13437 29.306252Q151.13437 26.681252 152.47812 25.243752Q153.82187 23.790627 155.97812 23.790627Q158.05624 23.790627 159.36874 25.212502Q160.69687 26.618752 160.69687 29.196877Q160.69687 29.353127 160.68124 29.665627L152.94687 29.665627Q153.04062 31.368752 153.91562 32.275Q154.79062 33.18125 156.0875 33.18125Q157.05624 33.18125 157.72812 32.68125Q158.41562 32.165627 158.82187 31.056252ZM153.04062 28.212502L158.8375 28.212502Q158.72812 26.915627 158.18124 26.259377Q157.3375 25.243752 155.99374 25.243752Q154.79062 25.243752 153.9625 26.056252Q153.13437 26.853127 153.04062 28.212502ZM161.54062 34.4L165.3375 29.009377L161.8375 24.025002L164.025 24.025002L165.61874 26.462502Q166.07187 27.150002 166.3375 27.618752Q166.775 26.978127 167.13437 26.478127L168.88437 24.025002L170.97812 24.025002L167.4 28.915627L171.25937 34.4L169.10312 34.4L166.9625 31.181252L166.4 30.306252L163.68124 34.4L161.54062 34.4ZM172.7125 38.36875L172.7125 24.025002L174.32187 24.025002L174.32187 25.368752Q174.88437 24.587502 175.5875 24.196877Q176.30624 23.790627 177.32187 23.790627Q178.65 23.790627 179.66562 24.478127Q180.68124 25.165627 181.19687 26.415627Q181.72812 27.650002 181.72812 29.134377Q181.72812 30.728127 181.15 32.009377Q180.5875 33.275 179.49374 33.9625Q178.4 34.634377 177.19687 34.634377Q176.32187 34.634377 175.61874 34.259377Q174.93124 33.884377 174.47812 33.321877L174.47812 38.36875L172.7125 38.36875ZM174.30624 29.275002Q174.30624 31.275002 175.11874 32.228127Q175.93124 33.18125 177.0875 33.18125Q178.25937 33.18125 179.0875 32.196877Q179.93124 31.212502 179.93124 29.118752Q179.93124 27.150002 179.10312 26.165627Q178.29062 25.165627 177.16562 25.165627Q176.04062 25.165627 175.16562 26.228127Q174.30624 27.275002 174.30624 29.275002ZM190.82187 31.056252L192.63437 31.290627Q192.2125 32.86875 191.04062 33.759377Q189.88437 34.634377 188.07187 34.634377Q185.80624 34.634377 184.4625 33.24375Q183.13437 31.837502 183.13437 29.306252Q183.13437 26.681252 184.47812 25.243752Q185.82187 23.790627 187.97812 23.790627Q190.05624 23.790627 191.36874 25.212502Q192.69687 26.618752 192.69687 29.196877Q192.69687 29.353127 192.68124 29.665627L184.94687 29.665627Q185.04062 31.368752 185.91562 32.275Q186.79062 33.18125 188.0875 33.18125Q189.05624 33.18125 189.72812 32.68125Q190.41562 32.165627 190.82187 31.056252ZM185.04062 28.212502L190.8375 28.212502Q190.72812 26.915627 190.18124 26.259377Q189.3375 25.243752 187.99374 25.243752Q186.79062 25.243752 185.9625 26.056252Q185.13437 26.853127 185.04062 28.212502ZM194.69687 34.4L194.69687 24.025002L196.275 24.025002L196.275 25.603127Q196.88437 24.493752 197.4 24.150002Q197.91562 23.790627 198.525 23.790627Q199.41562 23.790627 200.3375 24.353127L199.72812 25.993752Q199.0875 25.603127 198.44687 25.603127Q197.86874 25.603127 197.4 25.962502Q196.94687 26.306252 196.74374 26.915627Q196.4625 27.853127 196.4625 28.962502L196.4625 34.4L194.69687 34.4ZM201.72812 22.103127L201.72812 20.087502L203.49374 20.087502L203.49374 22.103127L201.72812 22.103127ZM201.72812 34.4L201.72812 24.025002L203.49374 24.025002L203.49374 34.4L201.72812 34.4ZM212.82187 31.056252L214.63437 31.290627Q214.2125 32.86875 213.04062 33.759377Q211.88437 34.634377 210.07187 34.634377Q207.80624 34.634377 206.4625 33.24375Q205.13437 31.837502 205.13437 29.306252Q205.13437 26.681252 206.47812 25.243752Q207.82187 23.790627 209.97812 23.790627Q212.05624 23.790627 213.36874 25.212502Q214.69687 26.618752 214.69687 29.196877Q214.69687 29.353127 214.68124 29.665627L206.94687 29.665627Q207.04062 31.368752 207.91562 32.275Q208.79062 33.18125 210.0875 33.18125Q211.05624 33.18125 211.72812 32.68125Q212.41562 32.165627 212.82187 31.056252ZM207.04062 28.212502L212.8375 28.212502Q212.72812 26.915627 212.18124 26.259377Q211.3375 25.243752 209.99374 25.243752Q208.79062 25.243752 207.9625 26.056252Q207.13437 26.853127 207.04062 28.212502ZM216.7125 34.4L216.7125 24.025002L218.30624 24.025002L218.30624 25.509377Q219.44687 23.790627 221.60312 23.790627Q222.54062 23.790627 223.32187 24.134377Q224.11874 24.462502 224.50937 25.009377Q224.9 25.556252 225.05624 26.306252Q225.15 26.806252 225.15 28.025002L225.15 34.4L223.38437 34.4L223.38437 28.087502Q223.38437 27.009377 223.18124 26.478127Q222.97812 25.946877 222.44687 25.634377Q221.93124 25.321877 221.22812 25.321877Q220.10312 25.321877 219.29062 26.040627Q218.47812 26.743752 218.47812 28.728127L218.47812 34.4L216.7125 34.4ZM234.49374 30.603127L236.2125 30.821877Q235.93124 32.61875 234.75937 33.634377Q233.60312 34.634377 231.9 34.634377Q229.775 34.634377 228.47812 33.24375Q227.18124 31.853127 227.18124 29.259377Q227.18124 27.571877 227.72812 26.321877Q228.29062 25.056252 229.43124 24.431252Q230.57187 23.790627 231.91562 23.790627Q233.60312 23.790627 234.66562 24.650002Q235.74374 25.509377 236.05624 27.071877L234.3375 27.337502Q234.10312 26.290627 233.47812 25.775002Q232.85312 25.243752 231.97812 25.243752Q230.65 25.243752 229.82187 26.196877Q228.99374 27.150002 228.99374 29.196877Q228.99374 31.290627 229.79062 32.24375Q230.5875 33.18125 231.88437 33.18125Q232.91562 33.18125 233.60312 32.55625Q234.30624 31.915627 234.49374 30.603127ZM244.82187 31.056252L246.63437 31.290627Q246.2125 32.86875 245.04062 33.759377Q243.88437 34.634377 242.07187 34.634377Q239.80624 34.634377 238.4625 33.24375Q237.13437 31.837502 237.13437 29.306252Q237.13437 26.681252 238.47812 25.243752Q239.82187 23.790627 241.97812 23.790627Q244.05624 23.790627 245.36874 25.212502Q246.69687 26.618752 246.69687 29.196877Q246.69687 29.353127 246.68124 29.665627L238.94687 29.665627Q239.04062 31.368752 239.91562 32.275Q240.79062 33.18125 242.0875 33.18125Q243.05624 33.18125 243.72812 32.68125Q244.41562 32.165627 244.82187 31.056252ZM239.04062 28.212502L244.8375 28.212502Q244.72812 26.915627 244.18124 26.259377Q243.3375 25.243752 241.99374 25.243752Q240.79062 25.243752 239.9625 26.056252Q239.13437 26.853127 239.04062 28.212502ZM249.18124 34.4L249.18124 32.4L251.18124 32.4L251.18124 34.4Q251.18124 35.509377 250.79062 36.18125Q250.4 36.86875 249.55624 37.228127L249.05624 36.478127Q249.61874 36.24375 249.88437 35.759377Q250.15 35.290627 250.18124 34.4L249.18124 34.4ZM262.63437 34.4L259.4625 24.025002L261.275 24.025002L262.93124 30.009377L263.54062 32.24375Q263.5875 32.071877 264.07187 30.103127L265.72812 24.025002L267.54062 24.025002L269.0875 30.040627L269.60312 32.025L270.19687 30.025002L271.97812 24.025002L273.68124 24.025002L270.44687 34.4L268.61874 34.4L266.9625 28.181252L266.57187 26.415627L264.4625 34.4L262.63437 34.4ZM274.07187 29.212502Q274.07187 26.337502 275.66562 24.946877Q277.00937 23.790627 278.93124 23.790627Q281.07187 23.790627 282.41562 25.196877Q283.775 26.603127 283.775 29.071877Q283.775 31.071877 283.18124 32.228127Q282.5875 33.36875 281.43124 34.009377Q280.29062 34.634377 278.93124 34.634377Q276.74374 34.634377 275.4 33.24375Q274.07187 31.837502 274.07187 29.212502ZM275.86874 29.212502Q275.86874 31.212502 276.72812 32.196877Q277.60312 33.18125 278.93124 33.18125Q280.24374 33.18125 281.10312 32.196877Q281.97812 31.196877 281.97812 29.150002Q281.97812 27.228127 281.10312 26.243752Q280.22812 25.243752 278.93124 25.243752Q277.60312 25.243752 276.72812 26.243752Q275.86874 27.228127 275.86874 29.212502ZM292.50937 34.4L292.50937 32.86875Q291.30624 34.634377 289.22812 34.634377Q288.30624 34.634377 287.50937 34.290627Q286.7125 33.93125 286.32187 33.4Q285.94687 32.86875 285.79062 32.0875Q285.68124 31.571877 285.68124 30.446877L285.68124 24.025002L287.43124 24.025002L287.43124 29.775002Q287.43124 31.150002 287.54062 31.634377Q287.7125 32.321877 288.24374 32.728127Q288.79062 33.11875 289.57187 33.11875Q290.36874 33.11875 291.05624 32.7125Q291.75937 32.30625 292.04062 31.618752Q292.3375 30.915627 292.3375 29.587502L292.3375 24.025002L294.0875 24.025002L294.0875 34.4L292.50937 34.4ZM296.68124 34.4L296.68124 20.087502L298.43124 20.087502L298.43124 34.4L296.68124 34.4ZM307.44687 34.4L307.44687 33.0875Q306.4625 34.634377 304.54062 34.634377Q303.30624 34.634377 302.25937 33.946877Q301.22812 33.259377 300.65 32.040627Q300.0875 30.821877 300.0875 29.228127Q300.0875 27.665627 300.60312 26.400002Q301.11874 25.134377 302.15 24.462502Q303.19687 23.790627 304.4625 23.790627Q305.4 23.790627 306.13437 24.196877Q306.86874 24.587502 307.3375 25.212502L307.3375 20.087502L309.07187 20.087502L309.07187 34.4L307.44687 34.4ZM301.88437 29.228127Q301.88437 31.212502 302.72812 32.196877Q303.57187 33.18125 304.7125 33.18125Q305.86874 33.18125 306.66562 32.24375Q307.47812 31.306252 307.47812 29.368752Q307.47812 27.243752 306.65 26.243752Q305.8375 25.243752 304.63437 25.243752Q303.4625 25.243752 302.66562 26.212502Q301.88437 27.165627 301.88437 29.228127ZM317.63437 38.4L317.44687 36.74375Q318.025 36.9 318.44687 36.9Q319.04062 36.9 319.38437 36.696877Q319.74374 36.509377 319.9625 36.165627Q320.13437 35.9 320.50937 34.853127Q320.55624 34.696877 320.66562 34.415627L316.72812 24.025002L318.61874 24.025002L320.775 30.040627Q321.19687 31.181252 321.525 32.43125Q321.8375 31.228127 322.24374 30.071877L324.4625 24.025002L326.22812 24.025002L322.275 34.571877Q321.65 36.290627 321.29062 36.93125Q320.82187 37.80625 320.2125 38.196877Q319.61874 38.603127 318.775 38.603127Q318.25937 38.603127 317.63437 38.4ZM327.07187 29.212502Q327.07187 26.337502 328.66562 24.946877Q330.00937 23.790627 331.93124 23.790627Q334.07187 23.790627 335.41562 25.196877Q336.775 26.603127 336.775 29.071877Q336.775 31.071877 336.18124 32.228127Q335.5875 33.36875 334.43124 34.009377Q333.29062 34.634377 331.93124 34.634377Q329.74374 34.634377 328.4 33.24375Q327.07187 31.837502 327.07187 29.212502ZM328.86874 29.212502Q328.86874 31.212502 329.72812 32.196877Q330.60312 33.18125 331.93124 33.18125Q333.24374 33.18125 334.10312 32.196877Q334.97812 31.196877 334.97812 29.150002Q334.97812 27.228127 334.10312 26.243752Q333.22812 25.243752 331.93124 25.243752Q330.60312 25.243752 329.72812 26.243752Q328.86874 27.228127 328.86874 29.212502ZM345.50937 34.4L345.50937 32.86875Q344.30624 34.634377 342.22812 34.634377Q341.30624 34.634377 340.50937 34.290627Q339.7125 33.93125 339.32187 33.4Q338.94687 32.86875 338.79062 32.0875Q338.68124 31.571877 338.68124 30.446877L338.68124 24.025002L340.43124 24.025002L340.43124 29.775002Q340.43124 31.150002 340.54062 31.634377Q340.7125 32.321877 341.24374 32.728127Q341.79062 33.11875 342.57187 33.11875Q343.36874 33.11875 344.05624 32.7125Q344.75937 32.30625 345.04062 31.618752Q345.3375 30.915627 345.3375 29.587502L345.3375 24.025002L347.0875 24.025002L347.0875 34.4L345.50937 34.4ZM355.69687 34.4L355.69687 24.025002L357.275 24.025002L357.275 25.603127Q357.88437 24.493752 358.4 24.150002Q358.91562 23.790627 359.525 23.790627Q360.41562 23.790627 361.3375 24.353127L360.72812 25.993752Q360.0875 25.603127 359.44687 25.603127Q358.86874 25.603127 358.4 25.962502Q357.94687 26.306252 357.74374 26.915627Q357.4625 27.853127 357.4625 28.962502L357.4625 34.4L355.69687 34.4ZM369.82187 31.056252L371.63437 31.290627Q371.2125 32.86875 370.04062 33.759377Q368.88437 34.634377 367.07187 34.634377Q364.80624 34.634377 363.4625 33.24375Q362.13437 31.837502 362.13437 29.306252Q362.13437 26.681252 363.47812 25.243752Q364.82187 23.790627 366.97812 23.790627Q369.05624 23.790627 370.36874 25.212502Q371.69687 26.618752 371.69687 29.196877Q371.69687 29.353127 371.68124 29.665627L363.94687 29.665627Q364.04062 31.368752 364.91562 32.275Q365.79062 33.18125 367.0875 33.18125Q368.05624 33.18125 368.72812 32.68125Q369.41562 32.165627 369.82187 31.056252ZM364.04062 28.212502L369.8375 28.212502Q369.72812 26.915627 369.18124 26.259377Q368.3375 25.243752 366.99374 25.243752Q365.79062 25.243752 364.9625 26.056252Q364.13437 26.853127 364.04062 28.212502ZM380.49374 30.603127L382.2125 30.821877Q381.93124 32.61875 380.75937 33.634377Q379.60312 34.634377 377.9 34.634377Q375.775 34.634377 374.47812 33.24375Q373.18124 31.853127 373.18124 29.259377Q373.18124 27.571877 373.72812 26.321877Q374.29062 25.056252 375.43124 24.431252Q376.57187 23.790627 377.91562 23.790627Q379.60312 23.790627 380.66562 24.650002Q381.74374 25.509377 382.05624 27.071877L380.3375 27.337502Q380.10312 26.290627 379.47812 25.775002Q378.85312 25.243752 377.97812 25.243752Q376.65 25.243752 375.82187 26.196877Q374.99374 27.150002 374.99374 29.196877Q374.99374 31.290627 375.79062 32.24375Q376.5875 33.18125 377.88437 33.18125Q378.91562 33.18125 379.60312 32.55625Q380.30624 31.915627 380.49374 30.603127ZM383.07187 29.212502Q383.07187 26.337502 384.66562 24.946877Q386.00937 23.790627 387.93124 23.790627Q390.07187 23.790627 391.41562 25.196877Q392.775 26.603127 392.775 29.071877Q392.775 31.071877 392.18124 32.228127Q391.5875 33.36875 390.43124 34.009377Q389.29062 34.634377 387.93124 34.634377Q385.74374 34.634377 384.4 33.24375Q383.07187 31.837502 383.07187 29.212502ZM384.86874 29.212502Q384.86874 31.212502 385.72812 32.196877Q386.60312 33.18125 387.93124 33.18125Q389.24374 33.18125 390.10312 32.196877Q390.97812 31.196877 390.97812 29.150002Q390.97812 27.228127 390.10312 26.243752Q389.22812 25.243752 387.93124 25.243752Q386.60312 25.243752 385.72812 26.243752Q384.86874 27.228127 384.86874 29.212502ZM394.7125 34.4L394.7125 24.025002L396.29062 24.025002L396.29062 25.478127Q396.775 24.728127 397.5875 24.259377Q398.4 23.790627 399.43124 23.790627Q400.5875 23.790627 401.32187 24.275002Q402.05624 24.743752 402.36874 25.603127Q403.60312 23.790627 405.57187 23.790627Q407.11874 23.790627 407.94687 24.650002Q408.775 25.509377 408.775 27.275002L408.775 34.4L407.025 34.4L407.025 27.868752Q407.025 26.806252 406.85312 26.353127Q406.68124 25.884377 406.22812 25.603127Q405.79062 25.321877 405.18124 25.321877Q404.0875 25.321877 403.35312 26.056252Q402.63437 26.775002 402.63437 28.368752L402.63437 34.4L400.88437 34.4L400.88437 27.665627Q400.88437 26.493752 400.44687 25.915627Q400.025 25.321877 399.04062 25.321877Q398.30624 25.321877 397.66562 25.712502Q397.04062 26.103127 396.75937 26.853127Q396.47812 27.603127 396.47812 29.025002L396.47812 34.4L394.7125 34.4ZM411.7125 34.4L411.7125 24.025002L413.29062 24.025002L413.29062 25.478127Q413.775 24.728127 414.5875 24.259377Q415.4 23.790627 416.43124 23.790627Q417.5875 23.790627 418.32187 24.275002Q419.05624 24.743752 419.36874 25.603127Q420.60312 23.790627 422.57187 23.790627Q424.11874 23.790627 424.94687 24.650002Q425.775 25.509377 425.775 27.275002L425.775 34.4L424.025 34.4L424.025 27.868752Q424.025 26.806252 423.85312 26.353127Q423.68124 25.884377 423.22812 25.603127Q422.79062 25.321877 422.18124 25.321877Q421.0875 25.321877 420.35312 26.056252Q419.63437 26.775002 419.63437 28.368752L419.63437 34.4L417.88437 34.4L417.88437 27.665627Q417.88437 26.493752 417.44687 25.915627Q417.025 25.321877 416.04062 25.321877Q415.30624 25.321877 414.66562 25.712502Q414.04062 26.103127 413.75937 26.853127Q413.47812 27.603127 413.47812 29.025002L413.47812 34.4L411.7125 34.4ZM435.82187 31.056252L437.63437 31.290627Q437.2125 32.86875 436.04062 33.759377Q434.88437 34.634377 433.07187 34.634377Q430.80624 34.634377 429.4625 33.24375Q428.13437 31.837502 428.13437 29.306252Q428.13437 26.681252 429.47812 25.243752Q430.82187 23.790627 432.97812 23.790627Q435.05624 23.790627 436.36874 25.212502Q437.69687 26.618752 437.69687 29.196877Q437.69687 29.353127 437.68124 29.665627L429.94687 29.665627Q430.04062 31.368752 430.91562 32.275Q431.79062 33.18125 433.0875 33.18125Q434.05624 33.18125 434.72812 32.68125Q435.41562 32.165627 435.82187 31.056252ZM430.04062 28.212502L435.8375 28.212502Q435.72812 26.915627 435.18124 26.259377Q434.3375 25.243752 432.99374 25.243752Q431.79062 25.243752 430.9625 26.056252Q430.13437 26.853127 430.04062 28.212502ZM439.7125 34.4L439.7125 24.025002L441.30624 24.025002L441.30624 25.509377Q442.44687 23.790627 444.60312 23.790627Q445.54062 23.790627 446.32187 24.134377Q447.11874 24.462502 447.50937 25.009377Q447.9 25.556252 448.05624 26.306252Q448.15 26.806252 448.15 28.025002L448.15 34.4L446.38437 34.4L446.38437 28.087502Q446.38437 27.009377 446.18124 26.478127Q445.97812 25.946877 445.44687 25.634377Q444.93124 25.321877 444.22812 25.321877Q443.10312 25.321877 442.29062 26.040627Q441.47812 26.743752 441.47812 28.728127L441.47812 34.4L439.7125 34.4ZM457.44687 34.4L457.44687 33.0875Q456.4625 34.634377 454.54062 34.634377Q453.30624 34.634377 452.25937 33.946877Q451.22812 33.259377 450.65 32.040627Q450.0875 30.821877 450.0875 29.228127Q450.0875 27.665627 450.60312 26.400002Q451.11874 25.134377 452.15 24.462502Q453.19687 23.790627 454.4625 23.790627Q455.4 23.790627 456.13437 24.196877Q456.86874 24.587502 457.3375 25.212502L457.3375 20.087502L459.07187 20.087502L459.07187 34.4L457.44687 34.4ZM451.88437 29.228127Q451.88437 31.212502 452.72812 32.196877Q453.57187 33.18125 454.7125 33.18125Q455.86874 33.18125 456.66562 32.24375Q457.47812 31.306252 457.47812 29.368752Q457.47812 27.243752 456.65 26.243752Q455.8375 25.243752 454.63437 25.243752Q453.4625 25.243752 452.66562 26.212502Q451.88437 27.165627 451.88437 29.228127Z" fill-rule="nonzero"/></svg>