<svg version="1.1" viewBox="0.0 0.0 497.0 308.0" fill="none" stroke="none" stroke-linecap="square" stroke-miterlimit="10" width="497" height="308" xmlns:xlink="http://www.w3.org/1999/xlink" xmlns="http://www.w3.org/2000/svg"><path fill="#ffffff" d="M0 0L497.0 0L497.0 308.0L0 308.0L0 0Z" fill-rule="nonzero"/><path fill="#a42f25" d="M369.96667 180.24333C369.96667 227.20227 315.5842 265.27 248.5 265.27C181.41582 265.27 127.03333 227.20227 127.03333 180.24333L127.03333 162.02333C127.03333 208.98227 181.41582 247.05 248.5 247.05C315.5842 247.05 369.96667 208.98227 369.96667 162.02333Z" fill-rule="nonzero"/><path fill="#a42f25" d="M187.76666 162.02333C187.76666 138.54387 214.9579 119.51 248.5 119.51C282.04208 119.51 309.23334 138.54387 309.23334 162.02333L309.23334 180.24333C309.23334 156.76387 282.04208 137.73 248.5 137.73C214.9579 137.73 187.76666 156.76387 187.76666 180.24333Z" fill-rule="nonzero"/><path fill="#ea4335" d="M248.5 76.996666C315.5842 76.996666 369.96667 115.0644 369.96667 162.02333C369.96667 208.98227 315.5842 247.05 248.5 247.05C181.41582 247.05 127.03333 208.98227 127.03333 162.02333C127.03333 115.0644 181.41582 76.996666 248.5 76.996666L248.5 119.51C214.9579 119.51 187.76666 138.54387 187.76666 162.02333C187.76666 185.50279 214.9579 204.53667 248.5 204.53667C282.04208 204.53667 309.23334 185.50279 309.23334 162.02333C309.23334 138.54387 282.04208 119.51 248.5 119.51Z" fill-rule="nonzero"/><path fill="#1a1a1a" d="M463.94376 238.29866L463.94376 234.65804L460.63126 229.70491L462.02188 229.70491L463.70938 232.29866Q464.17813 233.01741 464.58438 233.75179Q464.975 233.07991 465.52188 232.23616L467.19376 229.70491L468.50626 229.70491L465.08438 234.65804L465.08438 238.29866L463.94376 238.29866ZM473.64688 236.29866L474.74063 236.42366Q474.49063 237.37679 473.7875 237.90804Q473.08438 238.43929 472.00626 238.43929Q470.64688 238.43929 469.83438 237.59554Q469.0375 236.75179 469.0375 235.23616Q469.0375 233.67366 469.85 232.81429Q470.6625 231.93929 471.94376 231.93929Q473.19376 231.93929 473.975 232.78304Q474.77188 233.62679 474.77188 235.17366Q474.77188 235.26741 474.77188 235.45491L470.13126 235.45491Q470.19376 236.48616 470.70938 237.03304Q471.225 237.56429 472.00626 237.56429Q472.58438 237.56429 472.99063 237.26741Q473.4125 236.95491 473.64688 236.29866ZM470.19376 234.59554L473.6625 234.59554Q473.6 233.79866 473.27188 233.40804Q472.75626 232.79866 471.95938 232.79866Q471.225 232.79866 470.725 233.28304Q470.24063 233.76741 470.19376 234.59554ZM475.975 236.43929L477.00626 236.28304Q477.1 236.90804 477.49063 237.23616Q477.89688 237.56429 478.63126 237.56429Q479.35 237.56429 479.69376 237.28304Q480.05313 236.98616 480.05313 236.57991Q480.05313 236.22054 479.74063 236.01741Q479.52188 235.87679 478.6625 235.65804Q477.50626 235.36116 477.05313 235.15804Q476.61563 234.93929 476.38126 234.56429Q476.14688 234.18929 476.14688 233.72054Q476.14688 233.31429 476.33438 232.95491Q476.52188 232.59554 476.85 232.36116Q477.1 232.18929 477.52188 232.06429Q477.94376 231.93929 478.44376 231.93929Q479.1625 231.93929 479.70938 232.15804Q480.27188 232.36116 480.5375 232.72054Q480.80313 233.07991 480.89688 233.67366L479.86563 233.81429Q479.80313 233.34554 479.45938 233.07991Q479.13126 232.79866 478.50626 232.79866Q477.7875 232.79866 477.475 233.04866Q477.1625 233.28304 477.1625 233.61116Q477.1625 233.81429 477.2875 233.97054Q477.42813 234.14241 477.69376 234.25179Q477.85 234.31429 478.63126 234.51741Q479.75626 234.82991 480.19376 235.01741Q480.63126 235.20491 480.88126 235.56429Q481.13126 235.92366 481.13126 236.47054Q481.13126 237.00179 480.81876 237.47054Q480.52188 237.92366 479.94376 238.18929Q479.36563 238.43929 478.63126 238.43929Q477.4125 238.43929 476.77188 237.93929Q476.14688 237.42366 475.975 236.43929Z" fill-rule="nonzero"/><path fill="#9e9e9e" d="M444.06876 255.29866L443.02188 255.29866L443.02188 248.57991Q442.63126 248.93929 442.00626 249.31429Q441.39688 249.67366 440.9125 249.84554L440.9125 248.82991Q441.7875 248.40804 442.44376 247.82991Q443.11563 247.23616 443.39688 246.67366L444.06876 246.67366L444.06876 255.29866ZM447.1 251.06429Q447.1 249.53304 447.4125 248.61116Q447.725 247.67366 448.33438 247.17366Q448.95938 246.67366 449.89688 246.67366Q450.58438 246.67366 451.1 246.95491Q451.63126 247.23616 451.975 247.76741Q452.31876 248.28304 452.50626 249.03304Q452.69376 249.78304 452.69376 251.06429Q452.69376 252.57991 452.38126 253.50179Q452.08438 254.42366 451.45938 254.93929Q450.85 255.43929 449.89688 255.43929Q448.6625 255.43929 447.94376 254.54866Q447.1 253.48616 447.1 251.06429ZM448.17813 251.06429Q448.17813 253.17366 448.67813 253.87679Q449.17813 254.57991 449.89688 254.57991Q450.63126 254.57991 451.11563 253.87679Q451.61563 253.17366 451.61563 251.06429Q451.61563 248.93929 451.11563 248.25179Q450.63126 247.54866 449.88126 247.54866Q449.1625 247.54866 448.725 248.15804Q448.17813 248.93929 448.17813 251.06429ZM454.1 251.06429Q454.1 249.53304 454.4125 248.61116Q454.725 247.67366 455.33438 247.17366Q455.95938 246.67366 456.89688 246.67366Q457.58438 246.67366 458.1 246.95491Q458.63126 247.23616 458.975 247.76741Q459.31876 248.28304 459.50626 249.03304Q459.69376 249.78304 459.69376 251.06429Q459.69376 252.57991 459.38126 253.50179Q459.08438 254.42366 458.45938 254.93929Q457.85 255.43929 456.89688 255.43929Q455.6625 255.43929 454.94376 254.54866Q454.1 253.48616 454.1 251.06429ZM455.17813 251.06429Q455.17813 253.17366 455.67813 253.87679Q456.17813 254.57991 456.89688 254.57991Q457.63126 254.57991 458.11563 253.87679Q458.61563 253.17366 458.61563 251.06429Q458.61563 248.93929 458.11563 248.25179Q457.63126 247.54866 456.88126 247.54866Q456.1625 247.54866 455.725 248.15804Q455.17813 248.93929 455.17813 251.06429ZM461.69376 255.29866L461.69376 254.09554L462.89688 254.09554L462.89688 255.29866L461.69376 255.29866ZM464.1 251.06429Q464.1 249.53304 464.4125 248.61116Q464.725 247.67366 465.33438 247.17366Q465.95938 246.67366 466.89688 246.67366Q467.58438 246.67366 468.1 246.95491Q468.63126 247.23616 468.975 247.76741Q469.31876 248.28304 469.50626 249.03304Q469.69376 249.78304 469.69376 251.06429Q469.69376 252.57991 469.38126 253.50179Q469.08438 254.42366 468.45938 254.93929Q467.85 255.43929 466.89688 255.43929Q465.6625 255.43929 464.94376 254.54866Q464.1 253.48616 464.1 251.06429ZM465.17813 251.06429Q465.17813 253.17366 465.67813 253.87679Q466.17813 254.57991 466.89688 254.57991Q467.63126 254.57991 468.11563 253.87679Q468.61563 253.17366 468.61563 251.06429Q468.61563 248.93929 468.11563 248.25179Q467.63126 247.54866 466.88126 247.54866Q466.1625 247.54866 465.725 248.15804Q465.17813 248.93929 465.17813 251.06429ZM471.30313 248.76741Q471.30313 247.84554 471.75626 247.20491Q472.225 246.56429 473.1 246.56429Q473.9125 246.56429 474.44376 247.14241Q474.975 247.72054 474.975 248.82991Q474.975 249.92366 474.42813 250.51741Q473.89688 251.09554 473.11563 251.09554Q472.33438 251.09554 471.81876 250.51741Q471.30313 249.93929 471.30313 248.76741ZM473.13126 247.28304Q472.74063 247.28304 472.475 247.62679Q472.225 247.97054 472.225 248.87679Q472.225 249.70491 472.475 250.04866Q472.74063 250.37679 473.13126 250.37679Q473.5375 250.37679 473.7875 250.03304Q474.05313 249.68929 474.05313 248.79866Q474.05313 247.95491 473.7875 247.62679Q473.52188 247.28304 473.13126 247.28304ZM473.13126 255.61116L477.83438 246.56429L478.69376 246.56429L474.00626 255.61116L473.13126 255.61116ZM476.85 253.28304Q476.85 252.36116 477.30313 251.72054Q477.77188 251.07991 478.6625 251.07991Q479.475 251.07991 480.00626 251.65804Q480.5375 252.22054 480.5375 253.34554Q480.5375 254.43929 479.99063 255.03304Q479.45938 255.61116 478.6625 255.61116Q477.89688 255.61116 477.36563 255.03304Q476.85 254.45491 476.85 253.28304ZM478.69376 251.79866Q478.2875 251.79866 478.02188 252.14241Q477.77188 252.48616 477.77188 253.39241Q477.77188 254.20491 478.0375 254.54866Q478.30313 254.89241 478.69376 254.89241Q479.08438 254.89241 479.35 254.54866Q479.61563 254.20491 479.61563 253.29866Q479.61563 252.47054 479.35 252.14241Q479.08438 251.79866 478.69376 251.79866Z" fill-rule="nonzero"/><path stroke="#757575" stroke-width="1.0" stroke-linecap="butt" d="M481.6 242.79866L375.96667 242.79866L248.5 242.79866" fill-rule="nonzero"/><path fill="#9e9e9e" d="M250.5 242.79866C250.5 241.69409 249.60457 240.79866 248.5 240.79866C247.39543 240.79866 246.5 241.69409 246.5 242.79866C246.5 243.90323 247.39543 244.79866 248.5 244.79866C249.60457 244.79866 250.5 243.90323 250.5 242.79866" fill-rule="nonzero"/><path fill="#757575" d="M17.259375 34.4L17.259375 20.087502L19.165625 20.087502L19.165625 34.4L17.259375 34.4ZM23.134375 34.4L23.134375 25.400002L21.5875 25.400002L21.5875 24.025002L23.134375 24.025002L23.134375 22.931252Q23.134375 21.884377 23.321875 21.368752Q23.571875 20.681252 24.2125 20.259377Q24.853125 19.837502 26.009375 19.837502Q26.759375 19.837502 27.65 20.009377L27.384375 21.540627Q26.8375 21.446877 26.353125 21.446877Q25.55625 21.446877 25.2125 21.790627Q24.884375 22.134377 24.884375 23.071877L24.884375 24.025002L26.915625 24.025002L26.915625 25.400002L24.884375 25.400002L24.884375 34.4L23.134375 34.4ZM36.634377 34.4L33.4625 24.025002L35.275 24.025002L36.93125 30.009377L37.540627 32.24375Q37.5875 32.071877 38.071877 30.103127L39.728127 24.025002L41.540627 24.025002L43.0875 30.040627L43.603127 32.025L44.196877 30.025002L45.978127 24.025002L47.68125 24.025002L44.446877 34.4L42.61875 34.4L40.9625 28.181252L40.571877 26.415627L38.4625 34.4L36.634377 34.4ZM55.821877 31.056252L57.634377 31.290627Q57.2125 32.86875 56.040627 33.759377Q54.884377 34.634377 53.071877 34.634377Q50.80625 34.634377 49.4625 33.24375Q48.134377 31.837502 48.134377 29.306252Q48.134377 26.681252 49.478127 25.243752Q50.821877 23.790627 52.978127 23.790627Q55.05625 23.790627 56.36875 25.212502Q57.696877 26.618752 57.696877 29.196877Q57.696877 29.353127 57.68125 29.665627L49.946877 29.665627Q50.040627 31.368752 50.915627 32.275Q51.790627 33.18125 53.0875 33.18125Q54.05625 33.18125 54.728127 32.68125Q55.415627 32.165627 55.821877 31.056252ZM50.040627 28.212502L55.8375 28.212502Q55.728127 26.915627 55.18125 26.259377Q54.3375 25.243752 52.99375 25.243752Q51.790627 25.243752 50.9625 26.056252Q50.134377 26.853127 50.040627 28.212502ZM65.72813 22.103127L65.72813 20.087502L67.49375 20.087502L67.49375 22.103127L65.72813 22.103127ZM65.72813 34.4L65.72813 24.025002L67.49375 24.025002L67.49375 34.4L65.72813 34.4ZM69.7125 34.4L69.7125 24.025002L71.29063 24.025002L71.29063 25.478127Q71.775 24.728127 72.5875 24.259377Q73.4 23.790627 74.43125 23.790627Q75.5875 23.790627 76.32188 24.275002Q77.05625 24.743752 77.36875 25.603127Q78.60313 23.790627 80.57188 23.790627Q82.11875 23.790627 82.94688 24.650002Q83.775 25.509377 83.775 27.275002L83.775 34.4L82.025 34.4L82.025 27.868752Q82.025 26.806252 81.85313 26.353127Q81.68125 25.884377 81.22813 25.603127Q80.79063 25.321877 80.18125 25.321877Q79.0875 25.321877 78.35313 26.056252Q77.63438 26.775002 77.63438 28.368752L77.63438 34.4L75.88438 34.4L75.88438 27.665627Q75.88438 26.493752 75.44688 25.915627Q75.025 25.321877 74.04063 25.321877Q73.30625 25.321877 72.66563 25.712502Q72.04063 26.103127 71.75938 26.853127Q71.47813 27.603127 71.47813 29.025002L71.47813 34.4L69.7125 34.4ZM86.7125 38.36875L86.7125 24.025002L88.32188 24.025002L88.32188 25.368752Q88.88438 24.587502 89.5875 24.196877Q90.30625 23.790627 91.32188 23.790627Q92.65 23.790627 93.66563 24.478127Q94.68125 25.165627 95.19688 26.415627Q95.72813 27.650002 95.72813 29.134377Q95.72813 30.728127 95.15 32.009377Q94.5875 33.275 93.49375 33.9625Q92.4 34.634377 91.19688 34.634377Q90.32188 34.634377 89.61875 34.259377Q88.93125 33.884377 88.47813 33.321877L88.47813 38.36875L86.7125 38.36875ZM88.30625 29.275002Q88.30625 31.275002 89.11875 32.228127Q89.93125 33.18125 91.0875 33.18125Q92.25938 33.18125 93.0875 32.196877Q93.93125 31.212502 93.93125 29.118752Q93.93125 27.150002 93.10313 26.165627Q92.29063 25.165627 91.16563 25.165627Q90.04063 25.165627 89.16563 26.228127Q88.30625 27.275002 88.30625 29.275002ZM97.68125 34.4L97.68125 20.087502L99.43125 20.087502L99.43125 34.4L97.68125 34.4ZM108.82188 31.056252L110.63438 31.290627Q110.2125 32.86875 109.04063 33.759377Q107.88438 34.634377 106.07188 34.634377Q103.80625 34.634377 102.4625 33.24375Q101.13438 31.837502 101.13438 29.306252Q101.13438 26.681252 102.47813 25.243752Q103.82188 23.790627 105.97813 23.790627Q108.05625 23.790627 109.36875 25.212502Q110.69688 26.618752 110.69688 29.196877Q110.69688 29.353127 110.68125 29.665627L102.94688 29.665627Q103.04063 31.368752 103.91563 32.275Q104.79063 33.18125 106.0875 33.18125Q107.05625 33.18125 107.72813 32.68125Q108.41563 32.165627 108.82188 31.056252ZM103.04063 28.212502L108.8375 28.212502Q108.72813 26.915627 108.18125 26.259377Q107.3375 25.243752 105.99375 25.243752Q104.79063 25.243752 103.9625 26.056252Q103.13438 26.853127 103.04063 28.212502ZM112.7125 34.4L112.7125 24.025002L114.29063 24.025002L114.29063 25.478127Q114.775 24.728127 115.5875 24.259377Q116.4 23.790627 117.43125 23.790627Q118.5875 23.790627 119.32188 24.275002Q120.05625 24.743752 120.36875 25.603127Q121.60313 23.790627 123.57188 23.790627Q125.11875 23.790627 125.94688 24.650002Q126.775 25.509377 126.775 27.275002L126.775 34.4L125.025 34.4L125.025 27.868752Q125.025 26.806252 124.85313 26.353127Q124.68125 25.884377 124.22813 25.603127Q123.79063 25.321877 123.18125 25.321877Q122.0875 25.321877 121.35313 26.056252Q120.63438 26.775002 120.63438 28.368752L120.63438 34.4L118.88438 34.4L118.88438 27.665627Q118.88438 26.493752 118.44688 25.915627Q118.025 25.321877 117.04063 25.321877Q116.30625 25.321877 115.66563 25.712502Q115.04063 26.103127 114.75938 26.853127Q114.47813 27.603127 114.47813 29.025002L114.47813 34.4L112.7125 34.4ZM136.82187 31.056252L138.63437 31.290627Q138.2125 32.86875 137.04062 33.759377Q135.88437 34.634377 134.07187 34.634377Q131.80624 34.634377 130.4625 33.24375Q129.13437 31.837502 129.13437 29.306252Q129.13437 26.681252 130.47812 25.243752Q131.82187 23.790627 133.97812 23.790627Q136.05624 23.790627 137.36874 25.212502Q138.69687 26.618752 138.69687 29.196877Q138.69687 29.353127 138.68124 29.665627L130.94687 29.665627Q131.04062 31.368752 131.91562 32.275Q132.79062 33.18125 134.0875 33.18125Q135.05624 33.18125 135.72812 32.68125Q136.41562 32.165627 136.82187 31.056252ZM131.04062 28.212502L136.8375 28.212502Q136.72812 26.915627 136.18124 26.259377Q135.3375 25.243752 133.99374 25.243752Q132.79062 25.243752 131.9625 26.056252Q131.13437 26.853127 131.04062 28.212502ZM140.7125 34.4L140.7125 24.025002L142.30624 24.025002L142.30624 25.509377Q143.44687 23.790627 145.60312 23.790627Q146.54062 23.790627 147.32187 24.134377Q148.11874 24.462502 148.50937 25.009377Q148.9 25.556252 149.05624 26.306252Q149.15 26.806252 149.15 28.025002L149.15 34.4L147.38437 34.4L147.38437 28.087502Q147.38437 27.009377 147.18124 26.478127Q146.97812 25.946877 146.44687 25.634377Q145.93124 25.321877 145.22812 25.321877Q144.10312 25.321877 143.29062 26.040627Q142.47812 26.743752 142.47812 28.728127L142.47812 34.4L140.7125 34.4ZM155.55624 32.821877L155.80624 34.384377Q155.07187 34.540627 154.47812 34.540627Q153.525 34.540627 152.99374 34.24375Q152.47812 33.93125 152.25937 33.446877Q152.04062 32.946877 152.04062 31.368752L152.04062 25.400002L150.75937 25.400002L150.75937 24.025002L152.04062 24.025002L152.04062 21.462502L153.79062 20.400002L153.79062 24.025002L155.55624 24.025002L155.55624 25.400002L153.79062 25.400002L153.79062 31.462502Q153.79062 32.2125 153.88437 32.43125Q153.97812 32.634377 154.18124 32.775Q154.4 32.9 154.79062 32.9Q155.07187 32.9 155.55624 32.821877ZM167.55624 32.821877L167.80624 34.384377Q167.07187 34.540627 166.47812 34.540627Q165.525 34.540627 164.99374 34.24375Q164.47812 33.93125 164.25937 33.446877Q164.04062 32.946877 164.04062 31.368752L164.04062 25.400002L162.75937 25.400002L162.75937 24.025002L164.04062 24.025002L164.04062 21.462502L165.79062 20.400002L165.79062 24.025002L167.55624 24.025002L167.55624 25.400002L165.79062 25.400002L165.79062 31.462502Q165.79062 32.2125 165.88437 32.43125Q165.97812 32.634377 166.18124 32.775Q166.4 32.9 166.79062 32.9Q167.07187 32.9 167.55624 32.821877ZM169.7125 34.4L169.7125 20.087502L171.47812 20.087502L171.47812 25.212502Q172.7125 23.790627 174.5875 23.790627Q175.72812 23.790627 176.57187 24.243752Q177.43124 24.696877 177.79062 25.509377Q178.16562 26.306252 178.16562 27.821877L178.16562 34.4L176.41562 34.4L176.41562 27.821877Q176.41562 26.509377 175.8375 25.915627Q175.25937 25.306252 174.22812 25.306252Q173.44687 25.306252 172.74374 25.712502Q172.05624 26.118752 171.75937 26.821877Q171.47812 27.509377 171.47812 28.728127L171.47812 34.4L169.7125 34.4ZM187.82187 31.056252L189.63437 31.290627Q189.2125 32.86875 188.04062 33.759377Q186.88437 34.634377 185.07187 34.634377Q182.80624 34.634377 181.4625 33.24375Q180.13437 31.837502 180.13437 29.306252Q180.13437 26.681252 181.47812 25.243752Q182.82187 23.790627 184.97812 23.790627Q187.05624 23.790627 188.36874 25.212502Q189.69687 26.618752 189.69687 29.196877Q189.69687 29.353127 189.68124 29.665627L181.94687 29.665627Q182.04062 31.368752 182.91562 32.275Q183.79062 33.18125 185.0875 33.18125Q186.05624 33.18125 186.72812 32.68125Q187.41562 32.165627 187.82187 31.056252ZM182.04062 28.212502L187.8375 28.212502Q187.72812 26.915627 187.18124 26.259377Q186.3375 25.243752 184.99374 25.243752Q183.79062 25.243752 182.9625 26.056252Q182.13437 26.853127 182.04062 28.212502ZM191.00937 31.306252L192.75937 31.025002Q192.9 32.071877 193.57187 32.634377Q194.24374 33.18125 195.44687 33.18125Q196.65 33.18125 197.22812 32.696877Q197.82187 32.196877 197.82187 31.540627Q197.82187 30.946877 197.30624 30.603127Q196.94687 30.368752 195.50937 30.009377Q193.57187 29.509377 192.82187 29.165627Q192.0875 28.806252 191.69687 28.181252Q191.30624 27.540627 191.30624 26.775002Q191.30624 26.087502 191.61874 25.493752Q191.94687 24.900002 192.49374 24.509377Q192.9 24.212502 193.60312 24.009377Q194.32187 23.790627 195.13437 23.790627Q196.35312 23.790627 197.275 24.150002Q198.19687 24.493752 198.63437 25.103127Q199.07187 25.696877 199.24374 26.696877L197.525 26.931252Q197.4 26.134377 196.8375 25.696877Q196.275 25.243752 195.25937 25.243752Q194.04062 25.243752 193.525 25.650002Q193.00937 26.040627 193.00937 26.571877Q193.00937 26.915627 193.22812 27.196877Q193.43124 27.478127 193.9 27.665627Q194.16562 27.759377 195.44687 28.103127Q197.32187 28.603127 198.05624 28.931252Q198.79062 29.243752 199.2125 29.853127Q199.63437 30.446877 199.63437 31.353127Q199.63437 32.228127 199.11874 33.009377Q198.60312 33.790627 197.63437 34.2125Q196.66562 34.634377 195.44687 34.634377Q193.43124 34.634377 192.36874 33.790627Q191.30624 32.946877 191.00937 31.306252ZM208.82187 31.056252L210.63437 31.290627Q210.2125 32.86875 209.04062 33.759377Q207.88437 34.634377 206.07187 34.634377Q203.80624 34.634377 202.4625 33.24375Q201.13437 31.837502 201.13437 29.306252Q201.13437 26.681252 202.47812 25.243752Q203.82187 23.790627 205.97812 23.790627Q208.05624 23.790627 209.36874 25.212502Q210.69687 26.618752 210.69687 29.196877Q210.69687 29.353127 210.68124 29.665627L202.94687 29.665627Q203.04062 31.368752 203.91562 32.275Q204.79062 33.18125 206.0875 33.18125Q207.05624 33.18125 207.72812 32.68125Q208.41562 32.165627 208.82187 31.056252ZM203.04062 28.212502L208.8375 28.212502Q208.72812 26.915627 208.18124 26.259377Q207.3375 25.243752 205.99374 25.243752Q204.79062 25.243752 203.9625 26.056252Q203.13437 26.853127 203.04062 28.212502ZM218.72812 22.103127L218.72812 20.087502L220.49374 20.087502L220.49374 22.103127L218.72812 22.103127ZM218.72812 34.4L218.72812 24.025002L220.49374 24.025002L220.49374 34.4L218.72812 34.4ZM222.7125 34.4L222.7125 24.025002L224.29062 24.025002L224.29062 25.478127Q224.775 24.728127 225.5875 24.259377Q226.4 23.790627 227.43124 23.790627Q228.5875 23.790627 229.32187 24.275002Q230.05624 24.743752 230.36874 25.603127Q231.60312 23.790627 233.57187 23.790627Q235.11874 23.790627 235.94687 24.650002Q236.775 25.509377 236.775 27.275002L236.775 34.4L235.025 34.4L235.025 27.868752Q235.025 26.806252 234.85312 26.353127Q234.68124 25.884377 234.22812 25.603127Q233.79062 25.321877 233.18124 25.321877Q232.0875 25.321877 231.35312 26.056252Q230.63437 26.775002 230.63437 28.368752L230.63437 34.4L228.88437 34.4L228.88437 27.665627Q228.88437 26.493752 228.44687 25.915627Q228.025 25.321877 227.04062 25.321877Q226.30624 25.321877 225.66562 25.712502Q225.04062 26.103127 224.75937 26.853127Q224.47812 27.603127 224.47812 29.025002L224.47812 34.4L222.7125 34.4ZM239.7125 38.36875L239.7125 24.025002L241.32187 24.025002L241.32187 25.368752Q241.88437 24.587502 242.5875 24.196877Q243.30624 23.790627 244.32187 23.790627Q245.65 23.790627 246.66562 24.478127Q247.68124 25.165627 248.19687 26.415627Q248.72812 27.650002 248.72812 29.134377Q248.72812 30.728127 248.15 32.009377Q247.5875 33.275 246.49374 33.9625Q245.4 34.634377 244.19687 34.634377Q243.32187 34.634377 242.61874 34.259377Q241.93124 33.884377 241.47812 33.321877L241.47812 38.36875L239.7125 38.36875ZM241.30624 29.275002Q241.30624 31.275002 242.11874 32.228127Q242.93124 33.18125 244.0875 33.18125Q245.25937 33.18125 246.0875 32.196877Q246.93124 31.212502 246.93124 29.118752Q246.93124 27.150002 246.10312 26.165627Q245.29062 25.165627 244.16562 25.165627Q243.04062 25.165627 242.16562 26.228127Q241.30624 27.275002 241.30624 29.275002ZM250.69687 34.4L250.69687 24.025002L252.275 24.025002L252.275 25.603127Q252.88437 24.493752 253.4 24.150002Q253.91562 23.790627 254.525 23.790627Q255.41562 23.790627 256.3375 24.353127L255.72812 25.993752Q255.0875 25.603127 254.44687 25.603127Q253.86874 25.603127 253.4 25.962502Q252.94687 26.306252 252.74374 26.915627Q252.4625 27.853127 252.4625 28.962502L252.4625 34.4L250.69687 34.4ZM257.07187 29.212502Q257.07187 26.337502 258.66562 24.946877Q260.00937 23.790627 261.93124 23.790627Q264.07187 23.790627 265.41562 25.196877Q266.775 26.603127 266.775 29.071877Q266.775 31.071877 266.18124 32.228127Q265.5875 33.36875 264.43124 34.009377Q263.29062 34.634377 261.93124 34.634377Q259.74374 34.634377 258.4 33.24375Q257.07187 31.837502 257.07187 29.212502ZM258.86874 29.212502Q258.86874 31.212502 259.72812 32.196877Q260.60312 33.18125 261.93124 33.18125Q263.24374 33.18125 264.10312 32.196877Q264.97812 31.196877 264.97812 29.150002Q264.97812 27.228127 264.10312 26.243752Q263.22812 25.243752 261.93124 25.243752Q260.60312 25.243752 259.72812 26.243752Q258.86874 27.228127 258.86874 29.212502ZM271.60312 34.4L267.65 24.025002L269.50937 24.025002L271.74374 30.243752Q272.10312 31.243752 272.4 32.321877Q272.63437 31.509377 273.05624 30.353127L275.35312 24.025002L277.16562 24.025002L273.24374 34.4L271.60312 34.4ZM285.82187 31.056252L287.63437 31.290627Q287.2125 32.86875 286.04062 33.759377Q284.88437 34.634377 283.07187 34.634377Q280.80624 34.634377 279.4625 33.24375Q278.13437 31.837502 278.13437 29.306252Q278.13437 26.681252 279.47812 25.243752Q280.82187 23.790627 282.97812 23.790627Q285.05624 23.790627 286.36874 25.212502Q287.69687 26.618752 287.69687 29.196877Q287.69687 29.353127 287.68124 29.665627L279.94687 29.665627Q280.04062 31.368752 280.91562 32.275Q281.79062 33.18125 283.0875 33.18125Q284.05624 33.18125 284.72812 32.68125Q285.41562 32.165627 285.82187 31.056252ZM280.04062 28.212502L285.8375 28.212502Q285.72812 26.915627 285.18124 26.259377Q284.3375 25.243752 282.99374 25.243752Q281.79062 25.243752 280.9625 26.056252Q280.13437 26.853127 280.04062 28.212502ZM289.7125 34.4L289.7125 24.025002L291.29062 24.025002L291.29062 25.478127Q291.775 24.728127 292.5875 24.259377Q293.4 23.790627 294.43124 23.790627Q295.5875 23.790627 296.32187 24.275002Q297.05624 24.743752 297.36874 25.603127Q298.60312 23.790627 300.57187 23.790627Q302.11874 23.790627 302.94687 24.650002Q303.775 25.509377 303.775 27.275002L303.775 34.4L302.025 34.4L302.025 27.868752Q302.025 26.806252 301.85312 26.353127Q301.68124 25.884377 301.22812 25.603127Q300.79062 25.321877 300.18124 25.321877Q299.0875 25.321877 298.35312 26.056252Q297.63437 26.775002 297.63437 28.368752L297.63437 34.4L295.88437 34.4L295.88437 27.665627Q295.88437 26.493752 295.44687 25.915627Q295.025 25.321877 294.04062 25.321877Q293.30624 25.321877 292.66562 25.712502Q292.04062 26.103127 291.75937 26.853127Q291.47812 27.603127 291.47812 29.025002L291.47812 34.4L289.7125 34.4ZM313.82187 31.056252L315.63437 31.290627Q315.2125 32.86875 314.04062 33.759377Q312.88437 34.634377 311.07187 34.634377Q308.80624 34.634377 307.4625 33.24375Q306.13437 31.837502 306.13437 29.306252Q306.13437 26.681252 307.47812 25.243752Q308.82187 23.790627 310.97812 23.790627Q313.05624 23.790627 314.36874 25.212502Q315.69687 26.618752 315.69687 29.196877Q315.69687 29.353127 315.68124 29.665627L307.94687 29.665627Q308.04062 31.368752 308.91562 32.275Q309.79062 33.18125 311.0875 33.18125Q312.05624 33.18125 312.72812 32.68125Q313.41562 32.165627 313.82187 31.056252ZM308.04062 28.212502L313.8375 28.212502Q313.72812 26.915627 313.18124 26.259377Q312.3375 25.243752 310.99374 25.243752Q309.79062 25.243752 308.9625 26.056252Q308.13437 26.853127 308.04062 28.212502ZM317.7125 34.4L317.7125 24.025002L319.30624 24.025002L319.30624 25.509377Q320.44687 23.790627 322.60312 23.790627Q323.54062 23.790627 324.32187 24.134377Q325.11874 24.462502 325.50937 25.009377Q325.9 25.556252 326.05624 26.306252Q326.15 26.806252 326.15 28.025002L326.15 34.4L324.38437 34.4L324.38437 28.087502Q324.38437 27.009377 324.18124 26.478127Q323.97812 25.946877 323.44687 25.634377Q322.93124 25.321877 322.22812 25.321877Q321.10312 25.321877 320.29062 26.040627Q319.47812 26.743752 319.47812 28.728127L319.47812 34.4L317.7125 34.4ZM332.55624 32.821877L332.80624 34.384377Q332.07187 34.540627 331.47812 34.540627Q330.525 34.540627 329.99374 34.24375Q329.47812 33.93125 329.25937 33.446877Q329.04062 32.946877 329.04062 31.368752L329.04062 25.400002L327.75937 25.400002L327.75937 24.025002L329.04062 24.025002L329.04062 21.462502L330.79062 20.400002L330.79062 24.025002L332.55624 24.025002L332.55624 25.400002L330.79062 25.400002L330.79062 31.462502Q330.79062 32.2125 330.88437 32.43125Q330.97812 32.634377 331.18124 32.775Q331.4 32.9 331.79062 32.9Q332.07187 32.9 332.55624 32.821877ZM334.00937 31.306252L335.75937 31.025002Q335.9 32.071877 336.57187 32.634377Q337.24374 33.18125 338.44687 33.18125Q339.65 33.18125 340.22812 32.696877Q340.82187 32.196877 340.82187 31.540627Q340.82187 30.946877 340.30624 30.603127Q339.94687 30.368752 338.50937 30.009377Q336.57187 29.509377 335.82187 29.165627Q335.0875 28.806252 334.69687 28.181252Q334.30624 27.540627 334.30624 26.775002Q334.30624 26.087502 334.61874 25.493752Q334.94687 24.900002 335.49374 24.509377Q335.9 24.212502 336.60312 24.009377Q337.32187 23.790627 338.13437 23.790627Q339.35312 23.790627 340.275 24.150002Q341.19687 24.493752 341.63437 25.103127Q342.07187 25.696877 342.24374 26.696877L340.525 26.931252Q340.4 26.134377 339.8375 25.696877Q339.275 25.243752 338.25937 25.243752Q337.04062 25.243752 336.525 25.650002Q336.00937 26.040627 336.00937 26.571877Q336.00937 26.915627 336.22812 27.196877Q336.43124 27.478127 336.9 27.665627Q337.16562 27.759377 338.44687 28.103127Q340.32187 28.603127 341.05624 28.931252Q341.79062 29.243752 342.2125 29.853127Q342.63437 30.446877 342.63437 31.353127Q342.63437 32.228127 342.11874 33.009377Q341.60312 33.790627 340.63437 34.2125Q339.66562 34.634377 338.44687 34.634377Q336.43124 34.634377 335.36874 33.790627Q334.30624 32.946877 334.00937 31.306252ZM352.63437 34.4L349.4625 24.025002L351.275 24.025002L352.93124 30.009377L353.54062 32.24375Q353.5875 32.071877 354.07187 30.103127L355.72812 24.025002L357.54062 24.025002L359.0875 30.040627L359.60312 32.025L360.19687 30.025002L361.97812 24.025002L363.68124 24.025002L360.44687 34.4L358.61874 34.4L356.9625 28.181252L356.57187 26.415627L354.4625 34.4L352.63437 34.4ZM364.72812 22.103127L364.72812 20.087502L366.49374 20.087502L366.49374 22.103127L364.72812 22.103127ZM364.72812 34.4L364.72812 24.025002L366.49374 24.025002L366.49374 34.4L364.72812 34.4ZM368.68124 34.4L368.68124 20.087502L370.43124 20.087502L370.43124 34.4L368.68124 34.4ZM372.68124 34.4L372.68124 20.087502L374.43124 20.087502L374.43124 34.4L372.68124 34.4ZM382.63437 38.4L382.44687 36.74375Q383.025 36.9 383.44687 36.9Q384.04062 36.9 384.38437 36.696877Q384.74374 36.509377 384.9625 36.165627Q385.13437 35.9 385.50937 34.853127Q385.55624 34.696877 385.66562 34.415627L381.72812 24.025002L383.61874 24.025002L385.775 30.040627Q386.19687 31.181252 386.525 32.43125Q386.8375 31.228127 387.24374 30.071877L389.4625 24.025002L391.22812 24.025002L387.275 34.571877Q386.65 36.290627 386.29062 36.93125Q385.82187 37.80625 385.2125 38.196877Q384.61874 38.603127 383.775 38.603127Q383.25937 38.603127 382.63437 38.4ZM392.07187 29.212502Q392.07187 26.337502 393.66562 24.946877Q395.00937 23.790627 396.93124 23.790627Q399.07187 23.790627 400.41562 25.196877Q401.775 26.603127 401.775 29.071877Q401.775 31.071877 401.18124 32.228127Q400.5875 33.36875 399.43124 34.009377Q398.29062 34.634377 396.93124 34.634377Q394.74374 34.634377 393.4 33.24375Q392.07187 31.837502 392.07187 29.212502ZM393.86874 29.212502Q393.86874 31.212502 394.72812 32.196877Q395.60312 33.18125 396.93124 33.18125Q398.24374 33.18125 399.10312 32.196877Q399.97812 31.196877 399.97812 29.150002Q399.97812 27.228127 399.10312 26.243752Q398.22812 25.243752 396.93124 25.243752Q395.60312 25.243752 394.72812 26.243752Q393.86874 27.228127 393.86874 29.212502ZM410.50937 34.4L410.50937 32.86875Q409.30624 34.634377 407.22812 34.634377Q406.30624 34.634377 405.50937 34.290627Q404.7125 33.93125 404.32187 33.4Q403.94687 32.86875 403.79062 32.0875Q403.68124 31.571877 403.68124 30.446877L403.68124 24.025002L405.43124 24.025002L405.43124 29.775002Q405.43124 31.150002 405.54062 31.634377Q405.7125 32.321877 406.24374 32.728127Q406.79062 33.11875 407.57187 33.11875Q408.36874 33.11875 409.05624 32.7125Q409.75937 32.30625 410.04062 31.618752Q410.3375 30.915627 410.3375 29.587502L410.3375 24.025002L412.0875 24.025002L412.0875 34.4L410.50937 34.4Z" fill-rule="nonzero"/></svg>